<svg version="1.1" xmlns="http://www.w3.org/2000/svg" viewBox="0 0 2305.1046912783663 1255.4287501743859" width="4610.209382556733" height="2510.8575003487717">
  <!-- svg-source:excalidraw -->
  
  <defs>
    <style class="style-fonts">
      @font-face {
        font-family: "Virgil";
        src: url("https://excalidraw.com/Virgil.woff2");
      }
      @font-face {
        font-family: "Cascadia";
        src: url("https://excalidraw.com/Cascadia.woff2");
      }
      @font-face {
        font-family: "Assistant";
        src: url("https://excalidraw.com/Assistant-Regular.woff2");
      }
    </style>
    
  </defs>
  <rect x="0" y="0" width="2305.1046912783663" height="1255.4287501743859" fill="#ffffff"></rect><g stroke-linecap="round" transform="translate(1771.8717177770118 613.3715813640551) rotate(0 253.06007969711902 254.70132915479985)"><path d="M317.5 63.75 C362.77 107.16, 404.02 152.26, 442.62 191.25 M317.5 63.75 C350.29 97.21, 384.59 132.84, 442.62 191.25 M442.62 191.25 C506.32 253.81, 506.81 255.36, 442.62 318.75 M442.62 191.25 C504.93 256.16, 507.89 255.3, 442.62 318.75 M442.62 318.75 C403.34 358.89, 361.48 398.51, 317.5 445.65 M442.62 318.75 C418.88 343.56, 393.91 368.2, 317.5 445.65 M317.5 445.65 C253.86 509.41, 254.94 509.36, 190.5 445.65 M317.5 445.65 C252.62 508.95, 253.96 508.84, 190.5 445.65 M190.5 445.65 C154.49 411.6, 121.78 375.79, 63.5 318.75 M190.5 445.65 C164.04 419.77, 136.46 391.78, 63.5 318.75 M63.5 318.75 C0.34 253.15, -0.92 254.4, 63.5 191.25 M63.5 318.75 C0.07 255.17, 1.72 255.38, 63.5 191.25 M63.5 191.25 C107.14 147.63, 150.66 101.1, 190.5 63.75 M63.5 191.25 C112.73 142.33, 160.14 95.18, 190.5 63.75 M190.5 63.75 C255.36 -0.21, 255.78 -1.19, 317.5 63.75 M190.5 63.75 C254.37 -1.83, 252.25 0.38, 317.5 63.75" stroke="#1e1e1e" stroke-width="2" fill="none"></path></g><g transform="translate(1980.0277647056496 845.7222459414552) rotate(0 44.873992919921875 22.5)"><text x="44.873992919921875" y="31.536" font-family="Virgil, Segoe UI Emoji" font-size="36px" fill="#1e1e1e" text-anchor="middle" style="white-space: pre;" direction="ltr" dominant-baseline="alphabetic">AVS2</text></g><g stroke-linecap="round" transform="translate(462.96811711684785 210.8302123763507) rotate(0 87.60936753531905 30.33611209825756)"><path d="M15.17 0 C65.73 -0.08, 115.36 -1.02, 160.05 0 M15.17 0 C62.56 0.07, 108.49 -0.72, 160.05 0 M160.05 0 C169.89 -1.26, 174.78 4.62, 175.22 15.17 M160.05 0 C169.64 -0.73, 174.57 6.59, 175.22 15.17 M175.22 15.17 C176.23 23.59, 176.92 31.97, 175.22 45.5 M175.22 15.17 C175.27 23.04, 175.78 29.81, 175.22 45.5 M175.22 45.5 C176.2 53.99, 169.71 62.12, 160.05 60.67 M175.22 45.5 C177.36 54.19, 171.14 59.29, 160.05 60.67 M160.05 60.67 C110.74 61.05, 60.24 59.82, 15.17 60.67 M160.05 60.67 C119.33 60.68, 79.14 59.38, 15.17 60.67 M15.17 60.67 C6 61.44, 1 55.19, 0 45.5 M15.17 60.67 C5.3 58.64, -1.3 54.86, 0 45.5 M0 45.5 C-1.59 35.45, 0.28 24.94, 0 15.17 M0 45.5 C0.63 34.78, -0.47 24.02, 0 15.17 M0 15.17 C0.29 6.61, 5.84 -1.88, 15.17 0 M0 15.17 C1.96 6.7, 3.78 -1.14, 15.17 0" stroke="#1e1e1e" stroke-width="2" fill="none"></path></g><g transform="translate(480.24753622687393 228.66632447460825) rotate(0 70.32994842529297 12.5)"><text x="70.32994842529297" y="17.52" font-family="Virgil, Segoe UI Emoji" font-size="20px" fill="#1e1e1e" text-anchor="middle" style="white-space: pre;" direction="ltr" dominant-baseline="alphabetic">On-chain Vault</text></g><g mask="url(#mask-t823UiqN-WOacVyYDAG7z)" stroke-linecap="round"><g transform="translate(181.90055638162954 198.43471436948926) rotate(0 135.71694299030145 23.37187844076618)"><path d="M1.46 -0.24 C47.45 7.15, 228.71 38.16, 273.54 45.81" stroke="#1e1e1e" stroke-width="4.5" fill="none" stroke-dasharray="8 12"></path></g><g transform="translate(181.90055638162954 198.43471436948926) rotate(0 135.71694299030145 23.37187844076618)"><path d="M248.78 51.79 C253.53 48.49, 258.71 47.82, 271.62 44.63" stroke="#1e1e1e" stroke-width="4.5" fill="none"></path></g><g transform="translate(181.90055638162954 198.43471436948926) rotate(0 135.71694299030145 23.37187844076618)"><path d="M251.65 34.93 C255.88 35.26, 260.44 38.21, 271.62 44.63" stroke="#1e1e1e" stroke-width="4.5" fill="none"></path></g></g><mask id="mask-t823UiqN-WOacVyYDAG7z"><rect x="0" y="0" fill="#fff" width="553.3344423622325" height="345.1784712510216"></rect><rect x="242.90756132261458" y="209.30659281025532" fill="#000" width="149.4198760986328" height="25" opacity="1"></rect></mask><g transform="translate(242.90756132261458 209.30659281025544) rotate(0 76.49441761486233 11.913108466938127)"><text x="74.7099380493164" y="17.52" font-family="Virgil, Segoe UI Emoji" font-size="20px" fill="#1e1e1e" text-anchor="middle" style="white-space: pre;" direction="ltr" dominant-baseline="alphabetic">stake/withdraw</text></g><g mask="url(#mask-JgIez17SdN7nvePov_cuc)" stroke-linecap="round"><g transform="translate(177.26572057232949 382.3610066877279) rotate(0 138.10679726279398 -52.48098848446921)"><path d="M-1.3 -1.72 C45.02 -19.65, 229.8 -88.54, 275.92 -105.9" stroke="#1e1e1e" stroke-width="4.5" fill="none" stroke-dasharray="8 12"></path></g><g transform="translate(177.26572057232949 382.3610066877279) rotate(0 138.10679726279398 -52.48098848446921)"><path d="M255.69 -89.86 C260.51 -93.88, 264.91 -97, 277.27 -107.15" stroke="#1e1e1e" stroke-width="4.5" fill="none"></path></g><g transform="translate(177.26572057232949 382.3610066877279) rotate(0 138.10679726279398 -52.48098848446921)"><path d="M249.69 -105.88 C255.99 -106.18, 261.77 -105.63, 277.27 -107.15" stroke="#1e1e1e" stroke-width="4.5" fill="none"></path></g></g><mask id="mask-JgIez17SdN7nvePov_cuc"><rect x="0" y="0" fill="#fff" width="553.4793150979174" height="587.3229836566663"></rect><rect x="240.66257978580705" y="317.3800182032587" fill="#000" width="149.4198760986328" height="25" opacity="1"></rect></mask><g transform="translate(240.66257978580705 317.3800182032588) rotate(0 73.91337431184948 11.171828733757138)"><text x="74.7099380493164" y="17.52" font-family="Virgil, Segoe UI Emoji" font-size="20px" fill="#1e1e1e" text-anchor="middle" style="white-space: pre;" direction="ltr" dominant-baseline="alphabetic">stake/withdraw</text></g><g stroke-linecap="round"><g transform="translate(171.42447393658347 860.295813000894) rotate(0 140.6322209831356 75.8980822228583)"><path d="M2.09 0.59 C48.84 26.55, 232.05 127.35, 278.83 153" stroke="#1e1e1e" stroke-width="4.5" fill="none" stroke-dasharray="8 12"></path></g><g transform="translate(171.42447393658347 860.295813000894) rotate(0 140.6322209831356 75.8980822228583)"><path d="M254.54 147.44 C260.88 150.97, 267.9 151.11, 278.75 151.12" stroke="#1e1e1e" stroke-width="4.5" fill="none"></path></g><g transform="translate(171.42447393658347 860.295813000894) rotate(0 140.6322209831356 75.8980822228583)"><path d="M262.78 132.45 C266.99 139.64, 272.03 143.38, 278.75 151.12" stroke="#1e1e1e" stroke-width="4.5" fill="none"></path></g></g><mask></mask><g stroke-linecap="round"><g transform="translate(549.6357558926209 315.6124956000609) rotate(0 0.9408985942904877 -20.84219571931021)"><path d="M0.71 -0.41 C0.93 -7.31, 1.74 -34.59, 2.06 -41.43" stroke="#1e1e1e" stroke-width="4.5" fill="none" stroke-dasharray="8 12"></path></g><g transform="translate(549.6357558926209 315.6124956000609) rotate(0 0.9408985942904877 -20.84219571931021)"><path d="M7.78 -21.29 C6.56 -27.54, 4.22 -36.97, 1.25 -40.96" stroke="#1e1e1e" stroke-width="4.5" fill="none"></path></g><g transform="translate(549.6357558926209 315.6124956000609) rotate(0 0.9408985942904877 -20.84219571931021)"><path d="M-6.48 -21.81 C-2.5 -27.96, 0.35 -37.19, 1.25 -40.96" stroke="#1e1e1e" stroke-width="4.5" fill="none"></path></g></g><mask></mask><g transform="translate(465.79211463420756 121.47351050089696) rotate(0 97.57452392578125 24.652113383354106)"><text x="0" y="34.55240211810911" font-family="Virgil, Segoe UI Emoji" font-size="39.44338141336656px" fill="#1e1e1e" text-anchor="start" style="white-space: pre;" direction="ltr" dominant-baseline="alphabetic">EVM Chain</text></g><g stroke-linecap="round" transform="translate(468.1080289197892 322.98930028934274) rotate(0 87.60936753531905 30.33611209825756)"><path d="M15.17 0 C47 0.76, 80.4 0.86, 160.05 0 M15.17 0 C46.44 -0.61, 78.47 0.33, 160.05 0 M160.05 0 C168.7 -0.6, 176.65 6.29, 175.22 15.17 M160.05 0 C168.89 1.54, 175.42 5.45, 175.22 15.17 M175.22 15.17 C174.82 25.33, 176.39 33.55, 175.22 45.5 M175.22 15.17 C175.24 25.69, 175.68 35.42, 175.22 45.5 M175.22 45.5 C176.93 53.71, 170.94 59.19, 160.05 60.67 M175.22 45.5 C173.04 57.18, 172.05 60.66, 160.05 60.67 M160.05 60.67 C106.84 61.01, 51.95 60.68, 15.17 60.67 M160.05 60.67 C117.76 61.52, 74.41 60.44, 15.17 60.67 M15.17 60.67 C6.57 60.19, 0.3 56.51, 0 45.5 M15.17 60.67 C5.06 59.53, -0.55 54.2, 0 45.5 M0 45.5 C-0.79 37.54, 0.27 31.44, 0 15.17 M0 45.5 C-0.02 35.71, -0.08 26.37, 0 15.17 M0 15.17 C0.45 5.74, 4.79 1.85, 15.17 0 M0 15.17 C1.91 6.4, 3.03 -0.1, 15.17 0" stroke="#1e1e1e" stroke-width="2" fill="none"></path></g><g transform="translate(508.54744406253013 340.8254123876003) rotate(0 47.169952392578125 12.5)"><text x="47.169952392578125" y="17.52" font-family="Virgil, Segoe UI Emoji" font-size="20px" fill="#1e1e1e" text-anchor="middle" style="white-space: pre;" direction="ltr" dominant-baseline="alphabetic">Controller</text></g><g stroke-linecap="round" transform="translate(49.88794523959285 177.52976880586198) rotate(0 60.09375 22.134765625)"><path d="M11.07 0 C31.28 2.09, 54.51 0.33, 109.12 0 M11.07 0 C33.47 1.6, 55.62 -0.31, 109.12 0 M109.12 0 C116.41 0.51, 121.15 3.62, 120.19 11.07 M109.12 0 C115.08 -0.15, 118.19 2.02, 120.19 11.07 M120.19 11.07 C118.48 16.63, 120.29 23.19, 120.19 33.2 M120.19 11.07 C119.49 17.75, 119.46 23.6, 120.19 33.2 M120.19 33.2 C121.51 42.37, 117.38 44.94, 109.12 44.27 M120.19 33.2 C118.5 38.93, 118.68 42.03, 109.12 44.27 M109.12 44.27 C78.84 42.53, 51.34 44.77, 11.07 44.27 M109.12 44.27 C80.19 45.33, 53.89 46.1, 11.07 44.27 M11.07 44.27 C5.39 43.49, -0.23 42.12, 0 33.2 M11.07 44.27 C2.26 42.24, 2.03 41.09, 0 33.2 M0 33.2 C-1.32 25.34, 1 17.7, 0 11.07 M0 33.2 C-0.47 27.34, 0.35 23.2, 0 11.07 M0 11.07 C0.33 2.98, 3.53 -1.11, 11.07 0 M0 11.07 C-0.57 5.04, 4.5 0, 11.07 0" stroke="#1e1e1e" stroke-width="2" fill="none"></path></g><g transform="translate(69.23172575717098 187.16453443086198) rotate(0 40.749969482421875 12.5)"><text x="40.749969482421875" y="17.52" font-family="Virgil, Segoe UI Emoji" font-size="20px" fill="#1e1e1e" text-anchor="middle" style="white-space: pre;" direction="ltr" dominant-baseline="alphabetic">Staker 1</text></g><g stroke-linecap="round" transform="translate(49.88794523959285 381.14987722309957) rotate(0 60.09375 22.134765625)"><path d="M11.07 0 C41.14 -0.71, 74.84 1.09, 109.12 0 M11.07 0 C46.37 -0.22, 80.23 0.18, 109.12 0 M109.12 0 C115.06 -0.49, 119.64 4.11, 120.19 11.07 M109.12 0 C116.15 0.31, 122.26 4.36, 120.19 11.07 M120.19 11.07 C119.72 20.02, 118.4 24.76, 120.19 33.2 M120.19 11.07 C120.9 20.11, 119.31 28.64, 120.19 33.2 M120.19 33.2 C121.61 38.7, 115.64 43.3, 109.12 44.27 M120.19 33.2 C118.44 38.86, 118.3 44.17, 109.12 44.27 M109.12 44.27 C84.96 43.88, 57.34 43.38, 11.07 44.27 M109.12 44.27 C84.13 45.5, 59.09 45.37, 11.07 44.27 M11.07 44.27 C2.95 43.49, -1.96 39.07, 0 33.2 M11.07 44.27 C5.21 42.51, -1.09 39.68, 0 33.2 M0 33.2 C0.57 24.48, 0.58 17.55, 0 11.07 M0 33.2 C0.43 25.9, -0.47 17.64, 0 11.07 M0 11.07 C-0.36 4, 2.52 0.89, 11.07 0 M0 11.07 C-2.17 3.47, 5.28 -1.6, 11.07 0" stroke="#1e1e1e" stroke-width="2" fill="none"></path></g><g transform="translate(64.82172972445613 390.78464284809957) rotate(0 45.15996551513672 12.5)"><text x="45.15996551513672" y="17.52" font-family="Virgil, Segoe UI Emoji" font-size="20px" fill="#1e1e1e" text-anchor="middle" style="white-space: pre;" direction="ltr" dominant-baseline="alphabetic">Staker 2</text></g><g stroke-linecap="round" transform="translate(49.88794523959285 836.3499314020451) rotate(0 60.09375 22.134765625)"><path d="M11.07 0 C45.29 -1.32, 78.25 1.43, 109.12 0 M11.07 0 C46.32 0.72, 83.35 0.04, 109.12 0 M109.12 0 C117.3 1.32, 121.58 2.53, 120.19 11.07 M109.12 0 C115.36 -2.04, 120.98 2.28, 120.19 11.07 M120.19 11.07 C120.93 20.09, 121.26 28.17, 120.19 33.2 M120.19 11.07 C120.1 18.92, 120.37 26.42, 120.19 33.2 M120.19 33.2 C119.67 40.28, 117.29 44.84, 109.12 44.27 M120.19 33.2 C121.91 41.66, 118.27 46.15, 109.12 44.27 M109.12 44.27 C84.33 43.26, 55.31 44.98, 11.07 44.27 M109.12 44.27 C86.34 45.42, 65.92 44.5, 11.07 44.27 M11.07 44.27 C4.91 44.64, -1.4 42.44, 0 33.2 M11.07 44.27 C2.29 46.08, 0.95 39.1, 0 33.2 M0 33.2 C0.9 27.66, -1.17 20.33, 0 11.07 M0 33.2 C-0.35 25.08, 0.04 18.18, 0 11.07 M0 11.07 C1.86 3.57, 4.28 -1.95, 11.07 0 M0 11.07 C0.76 5.08, 4.17 1.99, 11.07 0" stroke="#1e1e1e" stroke-width="2" fill="none"></path></g><g transform="translate(63.72173125033504 845.9846970270451) rotate(0 46.25996398925781 12.5)"><text x="46.25996398925781" y="17.52" font-family="Virgil, Segoe UI Emoji" font-size="20px" fill="#1e1e1e" text-anchor="middle" style="white-space: pre;" direction="ltr" dominant-baseline="alphabetic">Staker ...</text></g><g mask="url(#mask-6gXKdyX9FPsRXHR0qDhBo)" stroke-linecap="round"><g transform="translate(703.3902224586129 244.76207587832585) rotate(0 160 56.00001525878912)"><path d="M-2.41 -2.22 C50.47 15.95, 265.24 92.1, 318.9 111.49" stroke="#1e1e1e" stroke-width="4.5" fill="none" stroke-dasharray="8 12"></path></g><g transform="translate(703.3902224586129 244.76207587832585) rotate(0 160 56.00001525878912)"><path d="M-3.27 -2.41 L14.44 -4.7 L6.53 8.03 L-0.81 -2.53" stroke="none" stroke-width="0" fill="#1e1e1e" fill-rule="evenodd"></path><path d="M-3.6 -2.81 C2.63 -2.86, 9.38 -1.83, 11.6 -5.1 M12.01 -2.98 C11.65 -0.34, 8.94 3.13, 7.1 8.5 M9.57 7.44 C5.36 4.18, 1.62 1.06, -2.39 -2.47 M-2.41 -2.22 C-2.41 -2.22, -2.41 -2.22, -2.41 -2.22" stroke="#1e1e1e" stroke-width="4.5" fill="none"></path></g><g transform="translate(703.3902224586129 244.76207587832585) rotate(0 160 56.00001525878912)"><path d="M318.04 111.3 L305.9 111.86 L306.47 100.7 L320.51 111.18" stroke="none" stroke-width="0" fill="#1e1e1e" fill-rule="evenodd"></path><path d="M317.71 110.91 C313.32 111.62, 309.43 113.66, 303.05 111.47 M303.46 113.59 C305.7 108.75, 305.63 104.77, 307.04 101.16 M309.51 100.11 C313.15 104.29, 317.18 108.83, 318.93 111.25 M318.9 111.49 C318.9 111.49, 318.9 111.49, 318.9 111.49" stroke="#1e1e1e" stroke-width="4.5" fill="none"></path></g></g><mask id="mask-6gXKdyX9FPsRXHR0qDhBo"><rect x="0" y="0" fill="#fff" width="1123.390222458613" height="456.7621063959041"></rect><rect x="764.5494021461129" y="284.662091137115" fill="#000" width="197.681640625" height="32.199999999999996" opacity="1"></rect></mask><g transform="translate(764.5494021461129 284.662091137115) rotate(0 97.08541931062936 14.738238702714455)"><text x="98.8408203125" y="25.760546874999996" font-family="Helvetica, Segoe UI Emoji" font-size="28px" fill="#1e1e1e" text-anchor="middle" style="white-space: pre;" direction="ltr" dominant-baseline="alphabetic"> Secured bridge</text></g><g stroke-linecap="round" transform="translate(417.2382323407624 95.1749952024179) rotate(0 142.66667683919275 151.33334477742505)"><path d="M32 0 C82.37 -3.11, 135.75 -3.19, 253.33 0 M32 0 C92.24 1.29, 152.38 1.55, 253.33 0 M253.33 0 C274.36 -1.34, 285.63 10.42, 285.33 32 M253.33 0 C273.15 -0.18, 283.4 11.16, 285.33 32 M285.33 32 C285.73 120.62, 287.8 208.54, 285.33 270.67 M285.33 32 C284.05 109.62, 284.74 185.86, 285.33 270.67 M285.33 270.67 C284.04 292.26, 273.2 302.34, 253.33 302.67 M285.33 270.67 C284.88 292.61, 276.74 301.49, 253.33 302.67 M253.33 302.67 C200.99 305.89, 152.35 305.02, 32 302.67 M253.33 302.67 C189.49 302.45, 125.38 302.36, 32 302.67 M32 302.67 C10.75 301.22, -1.84 292.64, 0 270.67 M32 302.67 C10.19 302.28, 0.32 292.91, 0 270.67 M0 270.67 C-2.76 191.59, -2.39 112.39, 0 32 M0 270.67 C1.44 205.28, 1.55 140.52, 0 32 M0 32 C0.35 9.72, 10.76 -1.65, 32 0 M0 32 C-0.23 12.11, 9.57 0.38, 32 0" stroke="#1e1e1e" stroke-width="2" fill="none"></path></g><g stroke-linecap="round" transform="translate(49.88794523959285 595.2823585853935) rotate(0 60.09375 22.134765625)"><path d="M11.07 0 C47.29 -0.27, 80.55 0.52, 109.12 0 M11.07 0 C40.95 0.65, 70.94 -0.52, 109.12 0 M109.12 0 C118.44 1.67, 122.14 2.84, 120.19 11.07 M109.12 0 C117.18 -0.39, 119.11 4.51, 120.19 11.07 M120.19 11.07 C122.19 16.86, 118.6 21.69, 120.19 33.2 M120.19 11.07 C119.58 19.16, 120.53 26.89, 120.19 33.2 M120.19 33.2 C120.21 42.55, 115.65 46.08, 109.12 44.27 M120.19 33.2 C122.4 39.42, 114.39 44.62, 109.12 44.27 M109.12 44.27 C73.63 45.15, 37.78 45.89, 11.07 44.27 M109.12 44.27 C80.43 44.94, 50.85 44.28, 11.07 44.27 M11.07 44.27 C2.17 44.41, -0.73 41.4, 0 33.2 M11.07 44.27 C3.4 45.9, 0.91 42.45, 0 33.2 M0 33.2 C-0.14 25.09, -0.66 14.93, 0 11.07 M0 33.2 C0.71 28.36, -0.46 23.73, 0 11.07 M0 11.07 C0.9 3.71, 1.75 -1.72, 11.07 0 M0 11.07 C0.18 2.73, 5.34 -1.25, 11.07 0" stroke="#1e1e1e" stroke-width="2" fill="none"></path></g><g transform="translate(65.13172728304988 604.9171242103935) rotate(0 44.84996795654297 12.5)"><text x="44.84996795654297" y="17.52" font-family="Virgil, Segoe UI Emoji" font-size="20px" fill="#1e1e1e" text-anchor="middle" style="white-space: pre;" direction="ltr" dominant-baseline="alphabetic">Staker 3</text></g><g mask="url(#mask-XV9NgsfUsHufiw-dJZRPc)" stroke-linecap="round"><g transform="translate(178.93727945743046 618.7583115039297) rotate(0 139.4692785877923 22.563968205227752)"><path d="M0.61 -1.34 C47.17 6.38, 231.17 36.78, 277.53 44.72" stroke="#1e1e1e" stroke-width="4.5" fill="none" stroke-dasharray="8 12"></path></g><g transform="translate(178.93727945743046 618.7583115039297) rotate(0 139.4692785877923 22.563968205227752)"><path d="M251.99 48.26 C258.49 48.01, 265.42 46.57, 278.73 43.4" stroke="#1e1e1e" stroke-width="4.5" fill="none"></path></g><g transform="translate(178.93727945743046 618.7583115039297) rotate(0 139.4692785877923 22.563968205227752)"><path d="M254.82 31.39 C260.56 35.14, 266.82 37.69, 278.73 43.4" stroke="#1e1e1e" stroke-width="4.5" fill="none"></path></g></g><mask id="mask-XV9NgsfUsHufiw-dJZRPc"><rect x="0" y="0" fill="#fff" width="557.8758366330151" height="763.8862479143852"></rect><rect x="243.69661999590636" y="628.8222797091576" fill="#000" width="149.4198760986328" height="25" opacity="1"></rect></mask><g transform="translate(243.69661999590636 628.8222797091576) rotate(0 74.3121158860624 11.626357565075068)"><text x="74.7099380493164" y="17.52" font-family="Virgil, Segoe UI Emoji" font-size="20px" fill="#1e1e1e" text-anchor="middle" style="white-space: pre;" direction="ltr" dominant-baseline="alphabetic">stake/withdraw</text></g><g stroke-linecap="round" transform="translate(466.96818832452976 620.1634147384116) rotate(0 87.60936753531905 30.33611209825756)"><path d="M15.17 0 C45.45 -0.49, 78.7 2.18, 160.05 0 M15.17 0 C64.39 1.05, 113.79 0.51, 160.05 0 M160.05 0 C170.24 0.4, 175.15 4.82, 175.22 15.17 M160.05 0 C171.18 -0.59, 174.39 5.55, 175.22 15.17 M175.22 15.17 C177.27 21.17, 173.66 29.89, 175.22 45.5 M175.22 15.17 C174.94 25.33, 175.71 36.98, 175.22 45.5 M175.22 45.5 C173.94 56.05, 171.56 62.4, 160.05 60.67 M175.22 45.5 C177.39 57.31, 168.09 61.61, 160.05 60.67 M160.05 60.67 C126.28 61.88, 91.29 61.6, 15.17 60.67 M160.05 60.67 C107.69 61.98, 56.71 61.26, 15.17 60.67 M15.17 60.67 C5 61.25, -0.13 56.49, 0 45.5 M15.17 60.67 C5.51 59.5, -0.53 55.54, 0 45.5 M0 45.5 C-0.35 33.52, -0.33 23.41, 0 15.17 M0 45.5 C-0.98 39.45, 0.29 32.1, 0 15.17 M0 15.17 C-0.73 5.24, 5.15 1.82, 15.17 0 M0 15.17 C0.52 7.07, 5.95 0.65, 15.17 0" stroke="#1e1e1e" stroke-width="2" fill="none"></path></g><g transform="translate(484.24760743455585 637.9995268366692) rotate(0 70.32994842529297 12.5)"><text x="70.32994842529297" y="17.52" font-family="Virgil, Segoe UI Emoji" font-size="20px" fill="#1e1e1e" text-anchor="middle" style="white-space: pre;" direction="ltr" dominant-baseline="alphabetic">On-chain Vault</text></g><g stroke-linecap="round"><g transform="translate(552.8148846340329 703.6123849738406) rotate(0 0.8065418589813333 -10.175539225169587)"><path d="M0.55 0.5 C0.87 -3.19, 0.74 -17.95, 0.85 -21.49" stroke="#1e1e1e" stroke-width="4.5" fill="none" stroke-dasharray="8 12"></path></g><g transform="translate(552.8148846340329 703.6123849738406) rotate(0 0.8065418589813333 -10.175539225169587)"><path d="M4.67 -12.52 C2.5 -14.23, 2.41 -16.42, -0.04 -21.45" stroke="#1e1e1e" stroke-width="4.5" fill="none"></path></g><g transform="translate(552.8148846340329 703.6123849738406) rotate(0 0.8065418589813333 -10.175539225169587)"><path d="M-2.31 -12.58 C-3 -14.31, -1.6 -16.49, -0.04 -21.45" stroke="#1e1e1e" stroke-width="4.5" fill="none"></path></g></g><mask></mask><g transform="translate(440.45879147339997 509.4733490120466) rotate(0 119.89755249023438 49.30422676670821)"><text x="0" y="34.55240211810911" font-family="Virgil, Segoe UI Emoji" font-size="39.44338141336656px" fill="#1e1e1e" text-anchor="start" style="white-space: pre;" direction="ltr" dominant-baseline="alphabetic">RUST/WASM</text><text x="0" y="83.8566288848173" font-family="Virgil, Segoe UI Emoji" font-size="39.44338141336656px" fill="#1e1e1e" text-anchor="start" style="white-space: pre;" direction="ltr" dominant-baseline="alphabetic"> Chain</text></g><g stroke-linecap="round" transform="translate(469.6319474349488 710.9891896631223) rotate(0 87.60936753531905 30.33611209825756)"><path d="M15.17 0 C48.75 -0.47, 81.9 0.54, 160.05 0 M15.17 0 C61.98 -0.09, 107.54 0.38, 160.05 0 M160.05 0 C169.07 1.79, 175.61 6.83, 175.22 15.17 M160.05 0 C168.51 -2.1, 175.04 6.22, 175.22 15.17 M175.22 15.17 C174.44 24.77, 176.46 30.9, 175.22 45.5 M175.22 15.17 C176.38 25.67, 174.53 35.1, 175.22 45.5 M175.22 45.5 C174.1 53.73, 170.65 62.28, 160.05 60.67 M175.22 45.5 C176.21 57.91, 170.82 61.93, 160.05 60.67 M160.05 60.67 C116.53 58.2, 69.59 59.22, 15.17 60.67 M160.05 60.67 C112.62 60.79, 64.57 61.27, 15.17 60.67 M15.17 60.67 C6.07 61.58, -0.37 55.4, 0 45.5 M15.17 60.67 C3.5 60.45, -0.96 53.54, 0 45.5 M0 45.5 C0.8 35.18, -1.2 22.06, 0 15.17 M0 45.5 C0.21 37, 0.38 27.02, 0 15.17 M0 15.17 C-1.68 6.89, 5.58 0.72, 15.17 0 M0 15.17 C-1.78 5.78, 5.15 2.1, 15.17 0" stroke="#1e1e1e" stroke-width="2" fill="none"></path></g><g transform="translate(510.07136257768974 728.8253017613797) rotate(0 47.169952392578125 12.5)"><text x="47.169952392578125" y="17.52" font-family="Virgil, Segoe UI Emoji" font-size="20px" fill="#1e1e1e" text-anchor="middle" style="white-space: pre;" direction="ltr" dominant-baseline="alphabetic">Controller</text></g><g stroke-linecap="round" transform="translate(421.2384052737048 483.1748845761974) rotate(0 142.66667683919275 151.33334477742505)"><path d="M32 0 C88.44 -0.13, 143.98 0.69, 253.33 0 M32 0 C92.29 0.36, 153.7 0.36, 253.33 0 M253.33 0 C273.23 -1.83, 285.18 11.68, 285.33 32 M253.33 0 C274.21 1.36, 284.82 9.56, 285.33 32 M285.33 32 C286.76 117.83, 287.84 202.9, 285.33 270.67 M285.33 32 C283.07 120.42, 283.74 211.09, 285.33 270.67 M285.33 270.67 C286.19 293.99, 275.24 303.76, 253.33 302.67 M285.33 270.67 C285.65 292.52, 272.46 304.93, 253.33 302.67 M253.33 302.67 C199.38 302.5, 145.18 302.96, 32 302.67 M253.33 302.67 C198.69 303, 143.01 302.52, 32 302.67 M32 302.67 C9.31 302.47, -0.83 290.19, 0 270.67 M32 302.67 C12.38 301.26, -1.73 292.7, 0 270.67 M0 270.67 C1.54 186.77, 2.9 103.11, 0 32 M0 270.67 C-1.48 178.91, -0.56 85.93, 0 32 M0 32 C-1.55 11.3, 10.75 1.83, 32 0 M0 32 C-0.28 8.42, 10.1 1.3, 32 0" stroke="#1e1e1e" stroke-width="2" fill="none"></path></g><g mask="url(#mask-zm_HYBYn4XHWWMj5XURR_)" stroke-linecap="round"><g transform="translate(182.67869509863885 410.3145066830896) rotate(0 136.59870046689508 117.65984044682102)"><path d="M-2.69 2.12 C42.74 41.45, 226.36 197.14, 272.43 236.03" stroke="#1e1e1e" stroke-width="4.5" fill="none" stroke-dasharray="8 12"></path></g><g transform="translate(182.67869509863885 410.3145066830896) rotate(0 136.59870046689508 117.65984044682102)"><path d="M250.49 226.83 C256.4 230.55, 262.91 231.72, 271.28 235.8" stroke="#1e1e1e" stroke-width="4.5" fill="none"></path></g><g transform="translate(182.67869509863885 410.3145066830896) rotate(0 136.59870046689508 117.65984044682102)"><path d="M261.54 213.78 C264.19 221.24, 267.45 226.26, 271.28 235.8" stroke="#1e1e1e" stroke-width="4.5" fill="none"></path></g></g><mask id="mask-zm_HYBYn4XHWWMj5XURR_"><rect x="0" y="0" fill="#fff" width="555.876096032429" height="745.6341875767316"></rect><rect x="244.56745751621753" y="515.4743471299107" fill="#000" width="149.4198760986328" height="25" opacity="1"></rect></mask><g transform="translate(244.56745751621753 515.4743471299108) rotate(0 72.97971108928323 13.91441223844879)"><text x="74.7099380493164" y="17.52" font-family="Virgil, Segoe UI Emoji" font-size="20px" fill="#1e1e1e" text-anchor="middle" style="white-space: pre;" direction="ltr" dominant-baseline="alphabetic">stake/withdraw</text></g><g stroke-linecap="round" transform="translate(466.3014809677591 987.4967887618493) rotate(0 87.60936753531905 30.33611209825756)"><path d="M15.17 0 C47.18 -0.06, 79.91 0.84, 160.05 0 M15.17 0 C49.72 -0.78, 84.6 -0.92, 160.05 0 M160.05 0 C172.01 -1.64, 177.02 3.13, 175.22 15.17 M160.05 0 C171.83 2.05, 176.7 3.82, 175.22 15.17 M175.22 15.17 C174.17 24.66, 173.88 30.94, 175.22 45.5 M175.22 15.17 C175.53 22.38, 176.09 28.22, 175.22 45.5 M175.22 45.5 C176.54 56.31, 168.68 62.33, 160.05 60.67 M175.22 45.5 C174.66 57.41, 172.43 59.1, 160.05 60.67 M160.05 60.67 C111.41 60.41, 63.65 59.6, 15.17 60.67 M160.05 60.67 C117.93 61.97, 78.45 61.72, 15.17 60.67 M15.17 60.67 C3.07 62.06, 0.69 57.23, 0 45.5 M15.17 60.67 C4.87 58.96, 0.73 54.12, 0 45.5 M0 45.5 C0.36 35.86, 1.37 26.1, 0 15.17 M0 45.5 C-0.75 39.65, -0.6 32.41, 0 15.17 M0 15.17 C0.76 5.84, 6.9 0.08, 15.17 0 M0 15.17 C-1.46 5.49, 3.34 0.42, 15.17 0" stroke="#1e1e1e" stroke-width="2" fill="none"></path></g><g transform="translate(483.5809000777852 1005.3329008601067) rotate(0 70.32994842529297 12.5)"><text x="70.32994842529297" y="17.52" font-family="Virgil, Segoe UI Emoji" font-size="20px" fill="#1e1e1e" text-anchor="middle" style="white-space: pre;" direction="ltr" dominant-baseline="alphabetic">On-chain Vault</text></g><g stroke-linecap="round"><g transform="translate(552.1481772772622 1070.9457589972787) rotate(0 0.8065418589813333 -10.175539225169587)"><path d="M0.14 -0.76 C0.43 -4.06, 1.02 -16.22, 1.32 -19.41" stroke="#1e1e1e" stroke-width="4.5" fill="none" stroke-dasharray="8 12"></path></g><g transform="translate(552.1481772772622 1070.9457589972787) rotate(0 0.8065418589813333 -10.175539225169587)"><path d="M3.5 -9.85 C4.16 -11.96, 2.97 -13.99, 1.55 -18.46" stroke="#1e1e1e" stroke-width="4.5" fill="none"></path></g><g transform="translate(552.1481772772622 1070.9457589972787) rotate(0 0.8065418589813333 -10.175539225169587)"><path d="M-3.47 -10.33 C-0.95 -12.31, -0.28 -14.22, 1.55 -18.46" stroke="#1e1e1e" stroke-width="4.5" fill="none"></path></g></g><mask></mask><g transform="translate(439.7920841166293 901.8067230354843) rotate(0 109.09100341796875 24.65211338335405)"><text x="0" y="34.55240211810911" font-family="Virgil, Segoe UI Emoji" font-size="39.44338141336656px" fill="#1e1e1e" text-anchor="start" style="white-space: pre;" direction="ltr" dominant-baseline="alphabetic">MOVE chain</text></g><g stroke-linecap="round" transform="translate(468.96524007817817 1078.3225636865602) rotate(0 87.60936753531905 30.33611209825756)"><path d="M15.17 0 C55.82 1.29, 95.48 1.48, 160.05 0 M15.17 0 C47.49 2.29, 79.01 0.86, 160.05 0 M160.05 0 C169.96 -1.22, 173.98 4.19, 175.22 15.17 M160.05 0 C170.97 -1.33, 173.14 3.37, 175.22 15.17 M175.22 15.17 C176.05 25.14, 173.97 32.5, 175.22 45.5 M175.22 15.17 C174.75 26.11, 175.98 34.81, 175.22 45.5 M175.22 45.5 C175.86 57.44, 170.87 60.11, 160.05 60.67 M175.22 45.5 C174.33 55.34, 168.34 60.31, 160.05 60.67 M160.05 60.67 C123.71 60.73, 86.21 57.3, 15.17 60.67 M160.05 60.67 C106.46 61.1, 53.35 61.19, 15.17 60.67 M15.17 60.67 C5.53 59.08, -1.65 55.73, 0 45.5 M15.17 60.67 C5.27 61.98, 0.29 53.62, 0 45.5 M0 45.5 C1.17 36.99, -0.37 32.56, 0 15.17 M0 45.5 C-0.91 35.4, -1.02 25.11, 0 15.17 M0 15.17 C-0.39 4.22, 6.22 1.04, 15.17 0 M0 15.17 C0.43 5.03, 7.25 0.34, 15.17 0" stroke="#1e1e1e" stroke-width="2" fill="none"></path></g><g transform="translate(509.4046552209191 1096.1586757848177) rotate(0 47.169952392578125 12.5)"><text x="47.169952392578125" y="17.52" font-family="Virgil, Segoe UI Emoji" font-size="20px" fill="#1e1e1e" text-anchor="middle" style="white-space: pre;" direction="ltr" dominant-baseline="alphabetic">Controller</text></g><g stroke-linecap="round" transform="translate(420.57169791693417 875.5082585996354) rotate(0 142.66667683919275 151.33334477742505)"><path d="M32 0 C115.35 -0.21, 199.87 -0.52, 253.33 0 M32 0 C118.04 0.5, 203.72 0.66, 253.33 0 M253.33 0 C275.37 -1.15, 283.52 9.2, 285.33 32 M253.33 0 C273.84 1.33, 286.3 11.42, 285.33 32 M285.33 32 C284.5 125.85, 285.3 221.78, 285.33 270.67 M285.33 32 C287.56 122.98, 287.6 212.2, 285.33 270.67 M285.33 270.67 C284.56 291.76, 273.08 302.35, 253.33 302.67 M285.33 270.67 C284.31 293.52, 272.46 303.44, 253.33 302.67 M253.33 302.67 C172.16 301.37, 89.98 300.62, 32 302.67 M253.33 302.67 C203.6 300.73, 152.75 301.47, 32 302.67 M32 302.67 C10.85 303.8, 0.25 290.27, 0 270.67 M32 302.67 C8.96 303.15, -2.25 293.42, 0 270.67 M0 270.67 C0.96 220.42, 0.37 166.03, 0 32 M0 270.67 C1.32 194.18, 1.97 118.82, 0 32 M0 32 C0.37 10.64, 12.58 0.3, 32 0 M0 32 C-0.82 12.2, 10.89 2.29, 32 0" stroke="#1e1e1e" stroke-width="2" fill="none"></path></g><g stroke-linecap="round" transform="translate(1016.2383035484443 306.5081873919527) rotate(0 303.99998982747417 318.66666793823225)"><path d="M32 0 C174.03 -0.95, 315.61 0.22, 576 0 M32 0 C197.48 -0.34, 363.25 -0.29, 576 0 M576 0 C598.3 0.33, 609.58 9.73, 608 32 M576 0 C596.14 -1.94, 606.23 12.89, 608 32 M608 32 C609.6 194.4, 608.13 356.44, 608 605.33 M608 32 C606.14 250.24, 605.84 468.21, 608 605.33 M608 605.33 C606.62 628.5, 597.97 637.21, 576 637.33 M608 605.33 C608.2 624.74, 599.06 638.71, 576 637.33 M576 637.33 C358.76 637.84, 141.45 638.9, 32 637.33 M576 637.33 C446.61 638.05, 317.38 638.47, 32 637.33 M32 637.33 C9.08 635.63, 0.64 625.15, 0 605.33 M32 637.33 C9.83 637.94, 1.29 625.47, 0 605.33 M0 605.33 C-2.33 405.72, -1.63 205.41, 0 32 M0 605.33 C1.96 479.24, 1.97 352.71, 0 32 M0 32 C-1.19 8.73, 9.58 -1.09, 32 0 M0 32 C0.38 9.22, 10.72 1.13, 32 0" stroke="#1e1e1e" stroke-width="2" fill="none"></path></g><g transform="translate(1191.2384154462309 333.17493671039324) rotate(0 132.31793212890625 22.5)"><text x="0" y="31.536" font-family="Virgil, Segoe UI Emoji" font-size="36px" fill="#1e1e1e" text-anchor="start" style="white-space: pre;" direction="ltr" dominant-baseline="alphabetic">Verisense Chain</text></g><g stroke-linecap="round" transform="translate(1074.6289461856516 443.17207656526057) rotate(0 87.60936753531905 30.33611209825756)"><path d="M15.17 0 C52.1 1.3, 89.06 1.88, 160.05 0 M15.17 0 C58.09 0.73, 100.87 0.68, 160.05 0 M160.05 0 C172.1 -0.13, 175.83 6.02, 175.22 15.17 M160.05 0 C168.3 1.02, 175.02 6.08, 175.22 15.17 M175.22 15.17 C174.03 26.09, 177 40.35, 175.22 45.5 M175.22 15.17 C175.71 23.55, 174.5 33.59, 175.22 45.5 M175.22 45.5 C174.09 56.72, 168.82 62.16, 160.05 60.67 M175.22 45.5 C172.94 57.82, 169.5 60.32, 160.05 60.67 M160.05 60.67 C111.3 59.59, 64.56 61.08, 15.17 60.67 M160.05 60.67 C117.56 58.67, 73.08 59.88, 15.17 60.67 M15.17 60.67 C3.85 61.08, 1.06 57.48, 0 45.5 M15.17 60.67 C5.25 59.64, -1.32 56.86, 0 45.5 M0 45.5 C0.46 39.89, -0.95 31.55, 0 15.17 M0 45.5 C-0.53 39.08, -0.42 34.19, 0 15.17 M0 15.17 C0.56 6.78, 3.16 1.03, 15.17 0 M0 15.17 C0.77 3.06, 6.96 1.89, 15.17 0" stroke="#1e1e1e" stroke-width="2" fill="none"></path></g><g transform="translate(1125.2283573611073 461.008188663518) rotate(0 37.00995635986328 12.5)"><text x="37.00995635986328" y="17.52" font-family="Virgil, Segoe UI Emoji" font-size="20px" fill="#1e1e1e" text-anchor="middle" style="white-space: pre;" direction="ltr" dominant-baseline="alphabetic">Deposit</text></g><g stroke-linecap="round" transform="translate(1078.9623405541408 539.5053895535418) rotate(0 87.60936753531905 30.33611209825756)"><path d="M15.17 0 C47.13 1.21, 74.46 0.36, 160.05 0 M15.17 0 C46.59 -1.14, 78.03 -1.03, 160.05 0 M160.05 0 C171.59 -0.8, 173.65 6.89, 175.22 15.17 M160.05 0 C168.13 -0.93, 173.21 3.85, 175.22 15.17 M175.22 15.17 C176.74 25.57, 175.7 33.27, 175.22 45.5 M175.22 15.17 C175.89 26, 176.02 36.86, 175.22 45.5 M175.22 45.5 C174.49 56.57, 168.59 58.73, 160.05 60.67 M175.22 45.5 C176.94 55.68, 171.95 58.4, 160.05 60.67 M160.05 60.67 C122.35 59.95, 87.46 59.2, 15.17 60.67 M160.05 60.67 C130.1 61.76, 98.79 61.28, 15.17 60.67 M15.17 60.67 C3.7 62.42, -0.13 55.53, 0 45.5 M15.17 60.67 C5.64 58.89, 1.06 53.55, 0 45.5 M0 45.5 C1.09 38.46, 2.06 26.91, 0 15.17 M0 45.5 C-0.61 38.13, 0.9 31.71, 0 15.17 M0 15.17 C0.04 6.57, 5.94 0.28, 15.17 0 M0 15.17 C-1.26 3.1, 6.62 0.67, 15.17 0" stroke="#1e1e1e" stroke-width="2" fill="none"></path></g><g transform="translate(1115.6517480674872 557.3415016517993) rotate(0 50.919960021972656 12.5)"><text x="50.919960021972656" y="17.52" font-family="Virgil, Segoe UI Emoji" font-size="20px" fill="#1e1e1e" text-anchor="middle" style="white-space: pre;" direction="ltr" dominant-baseline="alphabetic">withdrawal</text></g><g stroke-linecap="round" transform="translate(1078.9623405541408 644.505440416172) rotate(0 87.60936753531905 30.33611209825756)"><path d="M15.17 0 C66.73 -1.62, 123.6 -0.03, 160.05 0 M15.17 0 C47.8 2.24, 80.58 1.15, 160.05 0 M160.05 0 C169.51 0.16, 174.21 4.4, 175.22 15.17 M160.05 0 C171.6 -1.69, 175.89 6.7, 175.22 15.17 M175.22 15.17 C176.81 22.03, 174.21 29.9, 175.22 45.5 M175.22 15.17 C176.26 22.75, 176.28 30.19, 175.22 45.5 M175.22 45.5 C175.05 57.41, 169.11 59.25, 160.05 60.67 M175.22 45.5 C174.42 57.58, 168.6 61.44, 160.05 60.67 M160.05 60.67 C110 62.47, 59.57 61.07, 15.17 60.67 M160.05 60.67 C110.87 60.71, 64.03 61.09, 15.17 60.67 M15.17 60.67 C6.69 59.08, 0.14 55.57, 0 45.5 M15.17 60.67 C5.95 62.52, 0.22 56.77, 0 45.5 M0 45.5 C-0.94 38.07, 1.17 25.22, 0 15.17 M0 45.5 C0.29 39.29, 0.55 31.31, 0 15.17 M0 15.17 C-1.59 6.03, 5.55 -1.28, 15.17 0 M0 15.17 C-0.32 4.95, 4.24 0.79, 15.17 0" stroke="#1e1e1e" stroke-width="2" fill="none"></path></g><g transform="translate(1128.9517434898505 662.3415525144294) rotate(0 37.619964599609375 12.5)"><text x="37.619964599609375" y="17.52" font-family="Virgil, Segoe UI Emoji" font-size="20px" fill="#1e1e1e" text-anchor="middle" style="white-space: pre;" direction="ltr" dominant-baseline="alphabetic">Slashing</text></g><g stroke-linecap="round" transform="translate(1081.6289665307036 738.1721274278907) rotate(0 87.60936753531905 30.33611209825756)"><path d="M15.17 0 C50.02 0.86, 83.06 1.66, 160.05 0 M15.17 0 C58.91 -0.49, 104.25 -2.03, 160.05 0 M160.05 0 C169.62 0.69, 174.15 4.27, 175.22 15.17 M160.05 0 C170.87 -1.19, 176.91 5.65, 175.22 15.17 M175.22 15.17 C175.01 19.91, 176.19 26.68, 175.22 45.5 M175.22 15.17 C174.37 23.89, 174.75 34.6, 175.22 45.5 M175.22 45.5 C175.35 53.9, 168.44 60.63, 160.05 60.67 M175.22 45.5 C173.76 54.49, 170.41 58.6, 160.05 60.67 M160.05 60.67 C112.13 60.45, 65.05 61.12, 15.17 60.67 M160.05 60.67 C121.82 60.95, 82.22 62.25, 15.17 60.67 M15.17 60.67 C4.87 61.14, -0.97 55.84, 0 45.5 M15.17 60.67 C5.15 60.01, 2.11 53.97, 0 45.5 M0 45.5 C-0.03 34.11, -1.64 22.75, 0 15.17 M0 45.5 C-0.09 39.57, -0.34 33.58, 0 15.17 M0 15.17 C1.22 6.47, 5.28 -1.68, 15.17 0 M0 15.17 C-2.16 3.3, 5.42 -0.25, 15.17 0" stroke="#1e1e1e" stroke-width="2" fill="none"></path></g><g transform="translate(1136.7183603111398 756.0082395261481) rotate(0 32.51997375488281 12.5)"><text x="32.51997375488281" y="17.52" font-family="Virgil, Segoe UI Emoji" font-size="20px" fill="#1e1e1e" text-anchor="middle" style="white-space: pre;" direction="ltr" dominant-baseline="alphabetic">reward</text></g><g mask="url(#mask-vZgWyFYTGbltZXegBYdCk)" stroke-linecap="round"><g transform="translate(1077.1285202155061 767.2884149047277) rotate(0 -214.15903065289643 -9.573225041635851)"><path d="M0.58 -2.4 C-70.43 -5.15, -355.01 -14.23, -426.43 -17.08" stroke="#1e1e1e" stroke-width="4.5" fill="none" stroke-dasharray="8 12"></path></g><g transform="translate(1077.1285202155061 767.2884149047277) rotate(0 -214.15903065289643 -9.573225041635851)"><path d="M-404.37 -23.45 C-408.01 -22.27, -416.57 -22.23, -428.15 -16.75" stroke="#1e1e1e" stroke-width="4.5" fill="none"></path></g><g transform="translate(1077.1285202155061 767.2884149047277) rotate(0 -214.15903065289643 -9.573225041635851)"><path d="M-404.97 -6.36 C-408.41 -10.08, -416.79 -14.95, -428.15 -16.75" stroke="#1e1e1e" stroke-width="4.5" fill="none"></path></g></g><mask id="mask-vZgWyFYTGbltZXegBYdCk"><rect x="0" y="0" fill="#fff" width="1605.4465815212989" height="886.4348649879994"></rect><rect x="830.4495158077269" y="745.2151898630918" fill="#000" width="65.03994750976562" height="25" opacity="1"></rect></mask><g transform="translate(830.4495158077268 745.2151898630918) rotate(0 33.7514922879636 12.331110344082049)"><text x="32.51997375488281" y="17.52" font-family="Virgil, Segoe UI Emoji" font-size="20px" fill="#1e1e1e" text-anchor="middle" style="white-space: pre;" direction="ltr" dominant-baseline="alphabetic">reward</text></g><g mask="url(#mask-1-p7gY_945FdKTOocS-aJ)" stroke-linecap="round"><g transform="translate(1066.4993422795883 679.0812712897898) rotate(0 -204.15903065289643 29.0934619700829)"><path d="M0.42 -2.36 C-67.61 7.42, -337.85 48.81, -406.02 59.05" stroke="#1e1e1e" stroke-width="4.5" fill="none" stroke-dasharray="8 12"></path></g><g transform="translate(1066.4993422795883 679.0812712897898) rotate(0 -204.15903065289643 29.0934619700829)"><path d="M-385.76 48.72 C-391.72 51.47, -399.98 55.74, -406.8 60.45" stroke="#1e1e1e" stroke-width="4.5" fill="none"></path></g><g transform="translate(1066.4993422795883 679.0812712897898) rotate(0 -204.15903065289643 29.0934619700829)"><path d="M-383.19 65.63 C-390.15 62, -399.38 59.87, -406.8 60.45" stroke="#1e1e1e" stroke-width="4.5" fill="none"></path></g></g><mask id="mask-1-p7gY_945FdKTOocS-aJ"><rect x="0" y="0" fill="#fff" width="1574.8174035853813" height="837.2681952299556"></rect><rect x="837.2403360407543" y="695.6747332598727" fill="#000" width="50.199951171875" height="25" opacity="1"></rect></mask><g transform="translate(837.2403360407543 695.6747332598727) rotate(0 26.460313155502092 11.754820451885507)"><text x="25.0999755859375" y="17.52" font-family="Virgil, Segoe UI Emoji" font-size="20px" fill="#1e1e1e" text-anchor="middle" style="white-space: pre;" direction="ltr" dominant-baseline="alphabetic">slash</text></g><g mask="url(#mask-36QMa1ycg-n_1hFKN35FS)" stroke-linecap="round"><g transform="translate(1074.703653125917 563.826389802748) rotate(0 -211.49230295107367 83.09350266018703)"><path d="M-0.12 0.25 C-70.76 28.05, -353.89 136.49, -424.62 164.55" stroke="#1e1e1e" stroke-width="4.5" fill="none" stroke-dasharray="8 12"></path></g><g transform="translate(1074.703653125917 563.826389802748) rotate(0 -211.49230295107367 83.09350266018703)"><path d="M-405.65 146.89 C-412.24 151.44, -414.48 155.56, -426.36 165.78" stroke="#1e1e1e" stroke-width="4.5" fill="none"></path></g><g transform="translate(1074.703653125917 563.826389802748) rotate(0 -211.49230295107367 83.09350266018703)"><path d="M-399.45 162.83 C-407.6 163.04, -411.53 162.83, -426.36 165.78" stroke="#1e1e1e" stroke-width="4.5" fill="none"></path></g></g><mask id="mask-36QMa1ycg-n_1hFKN35FS"><rect x="0" y="0" fill="#fff" width="1597.6882590280643" height="830.0133951231221"></rect><rect x="834.8013770303121" y="634.419892462935" fill="#000" width="56.8199462890625" height="25" opacity="1"></rect></mask><g transform="translate(834.8013770303121 634.419892462935) rotate(0 27.53001010641458 11.804187069088243)"><text x="28.40997314453125" y="17.52" font-family="Virgil, Segoe UI Emoji" font-size="20px" fill="#1e1e1e" text-anchor="middle" style="white-space: pre;" direction="ltr" dominant-baseline="alphabetic">unlock</text></g><g mask="url(#mask-e6_LOP4l-qQM-pNGRjHlG)" stroke-linecap="round"><g transform="translate(1066.2772463768276 488.1106210045559) rotate(0 -214.82563628440704 117.76014898180176)"><path d="M-1.98 -0.99 C-73.25 38.4, -357.13 194.59, -428.81 233.76" stroke="#1e1e1e" stroke-width="4.5" fill="none" stroke-dasharray="8 12"></path></g><g transform="translate(1066.2772463768276 488.1106210045559) rotate(0 -214.82563628440704 117.76014898180176)"><path d="M-413.04 215.56 C-418.02 217.97, -422.09 225.06, -430.56 235.19" stroke="#1e1e1e" stroke-width="4.5" fill="none"></path></g><g transform="translate(1066.2772463768276 488.1106210045559) rotate(0 -214.82563628440704 117.76014898180176)"><path d="M-404.82 230.56 C-411.77 229.04, -417.97 232.26, -430.56 235.19" stroke="#1e1e1e" stroke-width="4.5" fill="none"></path></g></g><mask id="mask-e6_LOP4l-qQM-pNGRjHlG"><rect x="0" y="0" fill="#fff" width="1595.9285189456418" height="823.6309189681594"></rect><rect x="833.3916277926159" y="593.3707699863576" fill="#000" width="36.119964599609375" height="25" opacity="1"></rect></mask><g transform="translate(833.391627792616 593.3707699863576) rotate(0 17.489930393546814 11.124433026462953)"><text x="18.059982299804688" y="17.52" font-family="Virgil, Segoe UI Emoji" font-size="20px" fill="#1e1e1e" text-anchor="middle" style="white-space: pre;" direction="ltr" dominant-baseline="alphabetic">lock</text></g><g mask="url(#mask-CW0KL0V_iTRWWsLdY-zZu)" stroke-linecap="round"><g transform="translate(1071.300688923354 471.1236473453582) rotate(0 -214.15892892763617 88.42680547594239)"><path d="M1.07 -0.88 C-69.67 28.86, -353.76 146.09, -425.55 175.71" stroke="#1e1e1e" stroke-width="4.5" fill="none" stroke-dasharray="8 12"></path></g><g transform="translate(1071.300688923354 471.1236473453582) rotate(0 -214.15892892763617 88.42680547594239)"><path d="M-407.73 160.82 C-412.9 162.35, -416.91 168.3, -423.87 176.79" stroke="#1e1e1e" stroke-width="4.5" fill="none"></path></g><g transform="translate(1071.300688923354 471.1236473453582) rotate(0 -214.15892892763617 88.42680547594239)"><path d="M-401.2 176.62 C-407.93 174.05, -413.64 175.88, -423.87 176.79" stroke="#1e1e1e" stroke-width="4.5" fill="none"></path></g></g><mask id="mask-CW0KL0V_iTRWWsLdY-zZu"><rect x="0" y="0" fill="#fff" width="1599.6185467786263" height="747.977258297243"></rect><rect x="835.0117780010889" y="547.0504528213005" fill="#000" width="44.25996398925781" height="25" opacity="1"></rect></mask><g transform="translate(835.0117780010889 547.0504528213005) rotate(0 24.047750212997187 11.489668855816149)"><text x="22.129981994628906" y="17.52" font-family="Virgil, Segoe UI Emoji" font-size="20px" fill="#1e1e1e" text-anchor="middle" style="white-space: pre;" direction="ltr" dominant-baseline="alphabetic">read</text></g><g stroke-linecap="round" transform="translate(1396.0139136020393 443.70292395934985) rotate(0 87.60936753531905 30.33611209825756)"><path d="M15.17 0 C67.73 -0.59, 121.04 1.42, 160.05 0 M15.17 0 C55.48 0.09, 95 -0.45, 160.05 0 M160.05 0 C169.01 -1.41, 176.9 4.6, 175.22 15.17 M160.05 0 C170.89 2.08, 174.75 4.68, 175.22 15.17 M175.22 15.17 C177 25.82, 174.13 34.59, 175.22 45.5 M175.22 15.17 C175.37 21.55, 175.32 28.59, 175.22 45.5 M175.22 45.5 C175.06 57.38, 170.74 60.88, 160.05 60.67 M175.22 45.5 C174.46 55.47, 169.79 62.21, 160.05 60.67 M160.05 60.67 C104.83 59.01, 46.63 61.44, 15.17 60.67 M160.05 60.67 C124.58 60.41, 89.44 60.59, 15.17 60.67 M15.17 60.67 C5.73 62.65, 0.83 56.55, 0 45.5 M15.17 60.67 C6.16 60.99, -1.54 53.88, 0 45.5 M0 45.5 C0.63 38.39, -1.42 29, 0 15.17 M0 45.5 C-0.53 35.14, 0.22 24.8, 0 15.17 M0 15.17 C0.6 6.97, 5.91 -0.35, 15.17 0 M0 15.17 C1.4 5.14, 4.7 -0.9, 15.17 0" stroke="#1e1e1e" stroke-width="2" fill="none"></path></g><g transform="translate(1434.5033241671435 449.0390360576073) rotate(0 49.119956970214844 25)"><text x="49.119956970214844" y="17.52" font-family="Virgil, Segoe UI Emoji" font-size="20px" fill="#1e1e1e" text-anchor="middle" style="white-space: pre;" direction="ltr" dominant-baseline="alphabetic">Operator </text><text x="49.119956970214844" y="42.519999999999996" font-family="Virgil, Segoe UI Emoji" font-size="20px" fill="#1e1e1e" text-anchor="middle" style="white-space: pre;" direction="ltr" dominant-baseline="alphabetic">Manager</text></g><g stroke-linecap="round" transform="translate(1396.9832867577882 545.0116642443504) rotate(0 87.60936753531905 30.33611209825756)"><path d="M15.17 0 C65.69 -0.58, 117.32 -0.62, 160.05 0 M15.17 0 C49.94 -0.73, 84.77 -0.77, 160.05 0 M160.05 0 C168.9 1.18, 173.56 6.9, 175.22 15.17 M160.05 0 C168.43 -1.71, 175.18 5.49, 175.22 15.17 M175.22 15.17 C175.58 27.96, 173.79 37.37, 175.22 45.5 M175.22 15.17 C174.54 23.08, 175.32 32.31, 175.22 45.5 M175.22 45.5 C174.46 56.8, 169.54 62.1, 160.05 60.67 M175.22 45.5 C173.98 57.77, 169.93 61.25, 160.05 60.67 M160.05 60.67 C107.77 58.67, 60.44 62.25, 15.17 60.67 M160.05 60.67 C111.26 61.15, 61.57 61.71, 15.17 60.67 M15.17 60.67 C5.46 62.65, -0.44 57.2, 0 45.5 M15.17 60.67 C6.83 61.08, -0.24 56.4, 0 45.5 M0 45.5 C0.38 38.38, -1.19 27.82, 0 15.17 M0 45.5 C-0.69 39.58, 0.85 32.63, 0 15.17 M0 15.17 C-0.2 4.23, 6.2 -0.32, 15.17 0 M0 15.17 C-0.68 6.15, 7.29 1.62, 15.17 0" stroke="#1e1e1e" stroke-width="2" fill="none"></path></g><g transform="translate(1428.4927015953533 550.3477763426079) rotate(0 56.099952697753906 25)"><text x="56.099952697753906" y="17.52" font-family="Virgil, Segoe UI Emoji" font-size="20px" fill="#1e1e1e" text-anchor="middle" style="white-space: pre;" direction="ltr" dominant-baseline="alphabetic">Delegation </text><text x="56.099952697753906" y="42.519999999999996" font-family="Virgil, Segoe UI Emoji" font-size="20px" fill="#1e1e1e" text-anchor="middle" style="white-space: pre;" direction="ltr" dominant-baseline="alphabetic">Manager</text></g><g stroke-linecap="round" transform="translate(1407.6474269680612 656.9845447396242) rotate(0 87.60936753531905 30.33611209825756)"><path d="M15.17 0 C47.03 -0.73, 75.16 0.41, 160.05 0 M15.17 0 C47.2 0.19, 81.68 0.47, 160.05 0 M160.05 0 C168.99 -1.78, 175.59 3.97, 175.22 15.17 M160.05 0 C169.34 0.1, 174.12 6.2, 175.22 15.17 M175.22 15.17 C173.27 19.74, 175.39 29.89, 175.22 45.5 M175.22 15.17 C174.38 24.76, 174.58 34.69, 175.22 45.5 M175.22 45.5 C175.5 54.6, 168.38 61.52, 160.05 60.67 M175.22 45.5 C175.6 57.4, 170.14 62.41, 160.05 60.67 M160.05 60.67 C111.68 62.11, 65.56 61.01, 15.17 60.67 M160.05 60.67 C109.72 60.66, 60.25 61.85, 15.17 60.67 M15.17 60.67 C4.65 60.62, 0.08 55.6, 0 45.5 M15.17 60.67 C3.51 62.7, -2.03 57.04, 0 45.5 M0 45.5 C-0.35 36.8, 0.78 31.23, 0 15.17 M0 45.5 C0.62 38.75, -0.95 31.36, 0 15.17 M0 15.17 C-1.01 3.25, 3.09 -1.94, 15.17 0 M0 15.17 C0.14 6.51, 6.56 1.91, 15.17 0" stroke="#1e1e1e" stroke-width="2" fill="none"></path></g><g transform="translate(1431.9968305141224 674.8206568378816) rotate(0 63.25996398925781 12.5)"><text x="63.25996398925781" y="17.52" font-family="Virgil, Segoe UI Emoji" font-size="20px" fill="#1e1e1e" text-anchor="middle" style="white-space: pre;" direction="ltr" dominant-baseline="alphabetic">AVS Manager</text></g><g stroke-linecap="round" transform="translate(1879.6483836929344 279.4401913390709) rotate(0 59.137235842153586 50.1490419247541)"><path d="M33.91 3.97 C41.87 0.17, 53.28 -0.24, 63.22 0.53 C73.16 1.29, 85.33 3.95, 93.56 8.56 C101.79 13.17, 108.69 20.52, 112.62 28.18 C116.54 35.84, 117.78 46.24, 117.09 54.51 C116.4 62.79, 114.04 70.91, 108.48 77.84 C102.92 84.77, 92.67 92.51, 83.72 96.08 C74.78 99.65, 64.54 100.05, 54.82 99.27 C45.11 98.5, 33.73 96.05, 25.43 91.43 C17.13 86.81, 9.08 79.18, 5.03 71.58 C0.98 63.97, 0.27 53.98, 1.15 45.79 C2.03 37.61, 3.15 29.76, 10.3 22.47 C17.44 15.18, 36.41 5.72, 44.01 2.07 C51.61 -1.58, 55.55 -0.17, 55.9 0.57 M50.19 2.19 C59.12 0.3, 69.45 2.17, 78.48 4.59 C87.51 7.01, 98.1 10.62, 104.37 16.69 C110.64 22.75, 114.23 32.34, 116.12 40.98 C118.01 49.62, 118.93 60.33, 115.73 68.54 C112.52 76.74, 104.54 85.14, 96.87 90.2 C89.21 95.26, 79.26 97.67, 69.75 98.9 C60.24 100.14, 49.3 100.33, 39.82 97.63 C30.33 94.93, 19.52 89.14, 12.84 82.7 C6.15 76.27, 1.23 67.23, -0.28 59.04 C-1.8 50.85, 0.25 41.57, 3.75 33.56 C7.25 25.55, 13.15 16.33, 20.72 10.96 C28.29 5.59, 44.22 2.72, 49.16 1.33 C54.1 -0.06, 50 1.66, 50.37 2.63" stroke="#1e1e1e" stroke-width="2" fill="none"></path></g><g transform="translate(1905.0493037697113 309.62850564882297) rotate(0 33.91997528076172 20)"><text x="33.91997528076172" y="14.016" font-family="Virgil, Segoe UI Emoji" font-size="16px" fill="#1e1e1e" text-anchor="middle" style="white-space: pre;" direction="ltr" dominant-baseline="alphabetic">operator</text><text x="33.91997528076172" y="34.016" font-family="Virgil, Segoe UI Emoji" font-size="16px" fill="#1e1e1e" text-anchor="middle" style="white-space: pre;" direction="ltr" dominant-baseline="alphabetic">2</text></g><g mask="url(#mask-rzOsoUFJ8ngXb4i41NHxn)" stroke-linecap="round"><g transform="translate(1861.122383064669 199.99981536962923) rotate(0 -145.30947568703073 132.7803779532785)"><path d="M-0.13 -0.34 C-48.57 43.52, -241.01 218.28, -289.49 262.99" stroke="#1e1e1e" stroke-width="4.5" fill="none" stroke-dasharray="8 12"></path></g><g transform="translate(1861.122383064669 199.99981536962923) rotate(0 -145.30947568703073 132.7803779532785)"><path d="M-278.16 241.63 C-283.72 248.11, -284.15 256.89, -289.48 264.42" stroke="#1e1e1e" stroke-width="4.5" fill="none"></path></g><g transform="translate(1861.122383064669 199.99981536962923) rotate(0 -145.30947568703073 132.7803779532785)"><path d="M-266.62 254.26 C-276.12 256.42, -280.49 260.88, -289.48 264.42" stroke="#1e1e1e" stroke-width="4.5" fill="none"></path></g></g><mask id="mask-rzOsoUFJ8ngXb4i41NHxn"><rect x="0" y="0" fill="#fff" width="2251.7413344387305" height="565.5605712761862"></rect><rect x="1622.3430053390643" y="320.28019332290773" fill="#000" width="186.93980407714844" height="25" opacity="1"></rect></mask><g transform="translate(1622.343005339064 320.2801933229076) rotate(0 93.97098432555799 11.043074991554022)"><text x="93.46990203857422" y="17.52" font-family="Virgil, Segoe UI Emoji" font-size="20px" fill="#1e1e1e" text-anchor="middle" style="white-space: pre;" direction="ltr" dominant-baseline="alphabetic">Register/unregister</text></g><g mask="url(#mask-9hhrY3f2emb1x-2btmKN1)" stroke-linecap="round"><g transform="translate(1874.692687376324 354.59221480058386) rotate(0 -150.17445748636874 58.37348248597266)"><path d="M1.88 -0.09 C-47.82 19.9, -247.26 98.09, -298.09 117.81" stroke="#1e1e1e" stroke-width="4.5" fill="none" stroke-dasharray="8 12"></path></g><g transform="translate(1874.692687376324 354.59221480058386) rotate(0 -150.17445748636874 58.37348248597266)"><path d="M-279.38 102.91 C-284.4 104.46, -289.8 113.34, -298.15 117.19" stroke="#1e1e1e" stroke-width="4.5" fill="none"></path></g><g transform="translate(1874.692687376324 354.59221480058386) rotate(0 -150.17445748636874 58.37348248597266)"><path d="M-273.16 118.84 C-279.95 115.58, -287.25 119.61, -298.15 117.19" stroke="#1e1e1e" stroke-width="4.5" fill="none"></path></g></g><mask id="mask-9hhrY3f2emb1x-2btmKN1"><rect x="0" y="0" fill="#fff" width="2275.0416023490616" height="571.3391797725292"></rect><rect x="1631.0483278513811" y="400.4656972865564" fill="#000" width="186.93980407714844" height="25" opacity="1"></rect></mask><g transform="translate(1631.0483278513811 400.4656972865564) rotate(0 95.53753036037085 12.986721446365209)"><text x="93.46990203857422" y="17.52" font-family="Virgil, Segoe UI Emoji" font-size="20px" fill="#1e1e1e" text-anchor="middle" style="white-space: pre;" direction="ltr" dominant-baseline="alphabetic">Register/unregister</text></g><g stroke-linecap="round" transform="translate(1996.4795413162176 644.7716279683405) rotate(0 27.144963139482797 30.5)"><path d="M33.33 0.69 C38.88 1.76, 46.04 6.83, 49.67 12.22 C53.3 17.61, 55.43 26.62, 55.12 33.04 C54.8 39.45, 51.91 46.21, 47.78 50.74 C43.66 55.27, 36.19 59.25, 30.38 60.21 C24.58 61.17, 17.76 59.94, 12.96 56.5 C8.17 53.06, 3.3 46, 1.59 39.57 C-0.12 33.15, 0.47 23.93, 2.69 17.97 C4.92 12.02, 9.52 6.59, 14.95 3.85 C20.38 1.1, 31.8 1.68, 35.26 1.5 C38.72 1.32, 35.85 2.21, 35.72 2.74 M38.17 3.28 C43.16 5.48, 49.55 11.44, 51.98 17.53 C54.42 23.62, 54.16 33.54, 52.77 39.83 C51.39 46.13, 48.42 51.69, 43.68 55.28 C38.93 58.88, 30.36 62.07, 24.32 61.42 C18.28 60.76, 11.33 56.03, 7.45 51.36 C3.56 46.7, 1.32 40.06, 1 33.41 C0.69 26.76, 2.44 16.64, 5.53 11.46 C8.61 6.27, 14 3.92, 19.52 2.29 C25.04 0.66, 35.56 1.43, 38.64 1.69 C41.71 1.94, 37.85 3.17, 37.97 3.82" stroke="#1e1e1e" stroke-width="1" fill="none"></path></g><g transform="translate(2015.6439841322133 659.1048711421508) rotate(0 7.7861328125 16.100000000000023)"><text x="7.7861328125" y="25.760546874999996" font-family="Helvetica, Segoe UI Emoji" font-size="28px" fill="#1e1e1e" text-anchor="middle" style="white-space: pre;" direction="ltr" dominant-baseline="alphabetic">5</text></g><g stroke-linecap="round" transform="translate(1996.9835971284458 476.6016248146411) rotate(0 27.144963139482797 30.5)"><path d="M35.73 0.83 C41.14 2.34, 46.14 8.6, 49.27 14.14 C52.4 19.67, 55.09 27.67, 54.52 34.05 C53.96 40.43, 50.04 47.79, 45.86 52.42 C41.69 57.05, 35.42 61.23, 29.49 61.83 C23.56 62.43, 15.06 59.99, 10.28 56.02 C5.51 52.04, 2.18 44.47, 0.82 37.97 C-0.55 31.47, -0.44 22.8, 2.09 17.02 C4.62 11.23, 9.55 5.35, 16 3.26 C22.45 1.18, 35.86 3.42, 40.78 4.52 C45.69 5.61, 45.7 9.59, 45.48 9.84 M17.86 2.69 C23.45 0.43, 32.66 1.21, 38.4 3.28 C44.15 5.35, 49.97 9.44, 52.32 15.13 C54.68 20.82, 54.04 31.03, 52.53 37.43 C51.03 43.82, 47.67 49.67, 43.28 53.51 C38.88 57.35, 31.63 60.54, 26.16 60.45 C20.69 60.35, 14.69 57.22, 10.45 52.94 C6.22 48.66, 1.56 41.07, 0.74 34.76 C-0.07 28.45, 2.69 20.46, 5.58 15.09 C8.46 9.71, 15.7 4.78, 18.06 2.51 C20.41 0.25, 19.29 1.01, 19.73 1.48" stroke="#1e1e1e" stroke-width="1" fill="none"></path></g><g stroke-linecap="round" transform="translate(1996.072930393456 559.5087011265114) rotate(0 27.144963139482797 30.5)"><path d="M14.37 2.92 C19.11 -0.47, 26.96 -0.93, 32.76 0.65 C38.56 2.23, 45.67 7.16, 49.19 12.42 C52.71 17.68, 54.21 25.73, 53.89 32.2 C53.57 38.67, 50.94 46.48, 47.25 51.24 C43.56 56, 37.43 59.88, 31.76 60.76 C26.08 61.63, 18.2 60.08, 13.19 56.47 C8.18 52.86, 3.47 45.22, 1.69 39.09 C-0.08 32.95, -0.28 25.8, 2.53 19.65 C5.34 13.5, 14.97 5.43, 18.55 2.19 C22.12 -1.06, 23.89 -0.13, 23.97 0.17 M30.52 1.38 C35.91 1.43, 43.24 3.68, 47.01 8.06 C50.78 12.44, 52.89 20.74, 53.14 27.65 C53.38 34.56, 51.54 43.92, 48.49 49.53 C45.43 55.14, 40.33 60.02, 34.79 61.3 C29.26 62.57, 20.46 60.46, 15.29 57.19 C10.12 53.91, 6.32 47.71, 3.79 41.65 C1.26 35.6, -1.22 26.73, 0.11 20.87 C1.43 15, 6.75 9.94, 11.74 6.47 C16.73 3.01, 26.77 1.16, 30.05 0.06 C33.34 -1.04, 31.64 -0.73, 31.45 -0.15" stroke="#1e1e1e" stroke-width="1" fill="none"></path></g><g transform="translate(2015.2373732094518 573.8419443003218) rotate(0 7.7861328125 16.100000000000023)"><text x="7.7861328125" y="25.760546874999996" font-family="Helvetica, Segoe UI Emoji" font-size="28px" fill="#1e1e1e" text-anchor="middle" style="white-space: pre;" direction="ltr" dominant-baseline="alphabetic">4</text></g><g stroke-linecap="round" transform="translate(1996.8272076787182 733.3182950808284) rotate(0 32.14481055159217 32.82077326819035)"><path d="M33.23 -0.6 C39.19 -0.9, 46.62 3.01, 51.77 7.18 C56.92 11.35, 62.42 18.01, 64.13 24.42 C65.84 30.83, 64.56 39.75, 62.02 45.65 C59.48 51.55, 54.15 56.49, 48.9 59.83 C43.66 63.17, 36.72 65.95, 30.54 65.68 C24.36 65.42, 16.81 62.2, 11.83 58.24 C6.85 54.28, 2.32 48, 0.69 41.93 C-0.95 35.86, -0.34 27.91, 2.04 21.83 C4.42 15.75, 8.32 8.79, 14.96 5.46 C21.6 2.12, 35.98 1.75, 41.88 1.81 C47.78 1.87, 50.57 5.24, 50.36 5.81 M38.54 0.1 C44.55 1.41, 52.69 7.27, 56.98 12.38 C61.27 17.48, 63.96 24.69, 64.26 30.75 C64.57 36.81, 62.22 43.58, 58.82 48.74 C55.41 53.91, 49.62 59.05, 43.82 61.75 C38.03 64.45, 30.16 66.35, 24.05 64.93 C17.93 63.51, 10.94 58.28, 7.13 53.23 C3.32 48.18, 1.75 41.06, 1.18 34.66 C0.62 28.26, 0.76 20.39, 3.74 14.83 C6.73 9.27, 13.32 3.49, 19.1 1.29 C24.88 -0.91, 34.91 1.69, 38.41 1.63 C41.91 1.56, 40.04 0.66, 40.08 0.89" stroke="#1e1e1e" stroke-width="1" fill="none"></path></g><g stroke-linecap="round" transform="translate(1904.4762012268163 941.6055716257908) rotate(0 27.144963139482797 30.5)"><path d="M24.02 -0.25 C29.4 -1.43, 37.19 1.85, 42.01 5.45 C46.82 9.06, 51.06 15.32, 52.9 21.38 C54.75 27.44, 55.36 35.81, 53.08 41.8 C50.79 47.8, 44.59 54.33, 39.19 57.35 C33.79 60.37, 26.27 61.42, 20.66 59.9 C15.06 58.38, 9.13 53.4, 5.57 48.22 C2.01 43.04, -1.08 35.22, -0.7 28.81 C-0.32 22.4, 3.18 14.48, 7.85 9.74 C12.53 5, 23.31 1.89, 27.34 0.36 C31.37 -1.17, 31.86 -0.02, 32.04 0.56 M27.62 1.54 C33.08 1.77, 41.66 5.1, 45.86 9.13 C50.05 13.16, 51.9 19.5, 52.77 25.72 C53.65 31.93, 54.06 40.71, 51.11 46.43 C48.16 52.15, 40.79 58.2, 35.08 60.02 C29.36 61.83, 22.23 59.99, 16.83 57.32 C11.43 54.64, 5.24 49.66, 2.68 43.98 C0.13 38.29, 0.24 29.59, 1.49 23.2 C2.74 16.8, 5.64 9.51, 10.21 5.6 C14.78 1.68, 25.86 0.4, 28.91 -0.3 C31.96 -1.01, 28.34 0.9, 28.49 1.37" stroke="#1e1e1e" stroke-width="1" fill="none"></path></g><g transform="translate(1923.640644042812 955.9388147996012) rotate(0 7.7861328125 16.100000000000023)"><text x="7.7861328125" y="25.760546874999996" font-family="Helvetica, Segoe UI Emoji" font-size="28px" fill="#1e1e1e" text-anchor="middle" style="white-space: pre;" direction="ltr" dominant-baseline="alphabetic">8</text></g><g stroke-linecap="round" transform="translate(2095.0598693271736 941.3761305667899) rotate(0 30.144993657060922 33)"><path d="M41.32 2.83 C47.11 4.96, 53.25 11.06, 56.47 17.09 C59.69 23.12, 61.94 32.11, 60.63 39.02 C59.32 45.93, 53.89 54.1, 48.6 58.54 C43.32 62.99, 35.33 65.93, 28.93 65.69 C22.53 65.44, 15.12 61.72, 10.23 57.06 C5.34 52.4, 0.44 44.62, -0.42 37.74 C-1.29 30.85, 1.6 21.7, 5.02 15.74 C8.44 9.79, 13.28 3.92, 20.1 2.01 C26.92 0.09, 40.96 3.04, 45.92 4.24 C50.88 5.44, 50.14 8.61, 49.87 9.21 M24.3 1.26 C30.24 -0.94, 37.48 -0.5, 43.38 2.64 C49.28 5.79, 57.08 13.23, 59.69 20.12 C62.29 27, 61.23 37.27, 59.01 43.95 C56.78 50.63, 51.94 56.57, 46.33 60.18 C40.72 63.79, 31.71 66.52, 25.34 65.6 C18.98 64.68, 12.49 60.02, 8.12 54.63 C3.74 49.25, -0.65 40.43, -0.9 33.31 C-1.14 26.18, 2.53 17.22, 6.67 11.88 C10.82 6.55, 20.82 3.18, 23.96 1.3 C27.1 -0.57, 25.41 0.08, 25.53 0.64" stroke="#1e1e1e" stroke-width="1" fill="none"></path></g><g transform="translate(2114.2660866755014 963.0416067876338) rotate(0 11.123046875 11.5)"><text x="11.123046875" y="18.400390625" font-family="Helvetica, Segoe UI Emoji" font-size="20px" fill="#1e1e1e" text-anchor="middle" style="white-space: pre;" direction="ltr" dominant-baseline="alphabetic">10</text></g><g stroke-linecap="round" transform="translate(1863.3846729257727 825.7958301469853) rotate(0 27.144963139482797 30.5)"><path d="M20.59 0.56 C26.04 -1.46, 35.03 -0.39, 40.24 2.52 C45.44 5.42, 49.73 11.92, 51.83 17.98 C53.94 24.04, 54.46 32.64, 52.87 38.87 C51.27 45.1, 47.19 51.72, 42.27 55.37 C37.35 59.02, 29.05 61.42, 23.33 60.79 C17.61 60.16, 11.94 56.27, 7.96 51.59 C3.98 46.91, -0.14 39.32, -0.55 32.7 C-0.96 26.07, 0.99 17.15, 5.51 11.83 C10.03 6.52, 22.26 2.56, 26.57 0.79 C30.89 -0.97, 31.54 1, 31.41 1.23 M38.59 2.12 C43.87 4.43, 51.29 11.76, 53.74 18.11 C56.19 24.46, 55.23 34.03, 53.29 40.22 C51.36 46.42, 47.13 51.9, 42.11 55.31 C37.09 58.72, 28.94 61.44, 23.19 60.7 C17.45 59.95, 11.65 55.74, 7.64 50.82 C3.62 45.9, -0.57 37.78, -0.89 31.2 C-1.2 24.61, 2.09 16.27, 5.77 11.3 C9.44 6.32, 15.28 2.73, 21.15 1.34 C27.02 -0.04, 37.94 2.39, 40.99 2.99 C44.03 3.59, 40 4.61, 39.42 4.94" stroke="#1e1e1e" stroke-width="1" fill="none"></path></g><g transform="translate(1882.5491157417684 840.1290733207957) rotate(0 7.7861328125 16.100000000000023)"><text x="7.7861328125" y="25.760546874999996" font-family="Helvetica, Segoe UI Emoji" font-size="28px" fill="#1e1e1e" text-anchor="middle" style="white-space: pre;" direction="ltr" dominant-baseline="alphabetic">7</text></g><g stroke-linecap="round" transform="translate(2152.391913574475 838.6091053483069) rotate(0 27.144963139482797 23.5)"><path d="M34.65 0 C40.1 0.84, 45.66 5.16, 48.87 9.3 C52.08 13.43, 54.26 19.82, 53.92 24.81 C53.59 29.8, 50.95 35.56, 46.85 39.23 C42.74 42.91, 35.01 46.21, 29.28 46.86 C23.56 47.5, 17.31 45.85, 12.51 43.1 C7.7 40.35, 2.13 35.29, 0.46 30.35 C-1.2 25.41, -0.03 17.99, 2.51 13.45 C5.06 8.92, 10 5.11, 15.72 3.16 C21.43 1.21, 32.95 1.93, 36.82 1.76 C40.69 1.59, 38.95 1.83, 38.93 2.14 M34.36 -0.49 C40.11 0.53, 45.57 5.4, 48.99 9.38 C52.42 13.35, 55.22 18.38, 54.9 23.37 C54.59 28.36, 51 35.44, 47.1 39.33 C43.19 43.23, 37.36 46.14, 31.47 46.76 C25.57 47.38, 16.76 45.81, 11.72 43.06 C6.68 40.31, 2.93 34.89, 1.25 30.26 C-0.43 25.62, -0.76 19.95, 1.63 15.25 C4.02 10.55, 10.42 4.38, 15.59 2.06 C20.77 -0.25, 30.01 1.74, 32.68 1.35 C35.35 0.95, 31.58 -0.64, 31.64 -0.33" stroke="#1e1e1e" stroke-width="1" fill="none"></path></g><g transform="translate(2168.9616298279707 850.492095990423) rotate(0 10.380859375 11.5)"><text x="10.380859375" y="18.400390625" font-family="Helvetica, Segoe UI Emoji" font-size="20px" fill="#1e1e1e" text-anchor="middle" style="white-space: pre;" direction="ltr" dominant-baseline="alphabetic">11</text></g><g stroke-linecap="round" transform="translate(1701.4017716714213 834.5481215082202) rotate(0 27.144963139482797 32.50004577636719)"><path d="M23.12 -0.04 C28.33 -1.32, 36.2 0.97, 41.2 4.62 C46.19 8.27, 51.37 15.18, 53.1 21.85 C54.83 28.52, 53.7 38.06, 51.59 44.63 C49.48 51.2, 45.54 57.94, 40.43 61.28 C35.32 64.61, 26.68 66.18, 20.94 64.64 C15.19 63.1, 9.36 57.43, 5.96 52.02 C2.55 46.61, 0.33 39, 0.52 32.17 C0.71 25.34, 2.73 16.55, 7.08 11.04 C11.43 5.53, 22.54 0.81, 26.63 -0.88 C30.71 -2.57, 31.46 0.34, 31.6 0.88 M14.62 4.12 C19.19 0.61, 27.65 -1.79, 33.27 -0.42 C38.89 0.95, 44.71 6.71, 48.33 12.35 C51.95 17.98, 55.29 26.5, 54.99 33.41 C54.69 40.32, 50.51 48.66, 46.52 53.81 C42.53 58.96, 36.72 63.12, 31.05 64.29 C25.38 65.46, 17.25 64.55, 12.48 60.85 C7.71 57.15, 4.23 48.7, 2.42 42.1 C0.61 35.51, -0.13 27.89, 1.65 21.3 C3.42 14.71, 10.81 5.31, 13.07 2.56 C15.32 -0.18, 14.54 3.97, 15.18 4.83" stroke="#1e1e1e" stroke-width="1" fill="none"></path></g><g stroke-linecap="round" transform="translate(1997.1169635107142 944.8152716830241) rotate(0 27.144963139482797 30.5)"><path d="M34.94 2.24 C40.14 3.86, 46.3 8.3, 49.37 13.86 C52.43 19.43, 54.2 28.99, 53.33 35.63 C52.47 42.26, 48.26 49.28, 44.19 53.66 C40.12 58.04, 34.53 61.71, 28.9 61.92 C23.27 62.13, 15.2 59.23, 10.43 54.91 C5.66 50.59, 1.54 42.37, 0.29 36.01 C-0.96 29.65, -0.01 22.49, 2.96 16.77 C5.93 11.06, 12.53 4.03, 18.11 1.7 C23.68 -0.63, 33.22 2.45, 36.42 2.78 C39.62 3.1, 37.56 3.49, 37.31 3.67 M23.36 -0.91 C28.66 -2.2, 35.23 1.22, 40.25 4.54 C45.27 7.86, 51.49 12.97, 53.49 19.02 C55.48 25.06, 54.48 34.45, 52.21 40.81 C49.93 47.17, 44.69 53.75, 39.83 57.18 C34.98 60.61, 28.5 62.47, 23.07 61.38 C17.64 60.29, 11.19 55.82, 7.25 50.64 C3.32 45.45, -0.33 36.73, -0.57 30.27 C-0.81 23.82, 1.97 16.86, 5.82 11.91 C9.68 6.97, 19.71 2.63, 22.57 0.6 C25.44 -1.44, 22.87 -0.62, 23.03 -0.28" stroke="#1e1e1e" stroke-width="1" fill="none"></path></g><g transform="translate(2016.2814063267099 959.1485148568345) rotate(0 7.7861328125 16.100000000000023)"><text x="7.7861328125" y="25.760546874999996" font-family="Helvetica, Segoe UI Emoji" font-size="28px" fill="#1e1e1e" text-anchor="middle" style="white-space: pre;" direction="ltr" dominant-baseline="alphabetic">9</text></g><g mask="url(#mask-H0VtrShzB5eNVLASlYWyu)" stroke-linecap="round"><g transform="translate(1955.625009407252 605.3712548162134) rotate(0 -181.18837964643103 30.333512124833646)"><path d="M-1.17 -1.19 C-61.63 8.99, -302.47 51.63, -362.45 62.02" stroke="#1e1e1e" stroke-width="4.5" fill="none" stroke-dasharray="8 12"></path></g><g transform="translate(1955.625009407252 605.3712548162134) rotate(0 -181.18837964643103 30.333512124833646)"><path d="M-341.64 49.49 C-346.51 54.27, -353.89 55.23, -363.32 63.18" stroke="#1e1e1e" stroke-width="4.5" fill="none"></path></g><g transform="translate(1955.625009407252 605.3712548162134) rotate(0 -181.18837964643103 30.333512124833646)"><path d="M-338.69 66.33 C-344.54 65.87, -352.83 61.59, -363.32 63.18" stroke="#1e1e1e" stroke-width="4.5" fill="none"></path></g></g><mask id="mask-H0VtrShzB5eNVLASlYWyu"><rect x="0" y="0" fill="#fff" width="2418.001768700114" height="766.0382790658807"></rect><rect x="1726.2666849976376" y="598.2047669410472" fill="#000" width="96.33988952636719" height="75" opacity="1"></rect></mask><g transform="translate(1726.2666849976376 598.2047669410472) rotate(0 47.54533957019453 37.5827292226254)"><text x="48.169944763183594" y="17.52" font-family="Virgil, Segoe UI Emoji" font-size="20px" fill="#1e1e1e" text-anchor="middle" style="white-space: pre;" direction="ltr" dominant-baseline="alphabetic">Register</text><text x="48.169944763183594" y="42.519999999999996" font-family="Virgil, Segoe UI Emoji" font-size="20px" fill="#1e1e1e" text-anchor="middle" style="white-space: pre;" direction="ltr" dominant-baseline="alphabetic">unregister</text><text x="48.169944763183594" y="67.52" font-family="Virgil, Segoe UI Emoji" font-size="20px" fill="#1e1e1e" text-anchor="middle" style="white-space: pre;" direction="ltr" dominant-baseline="alphabetic">update</text></g><g mask="url(#mask-8BVrtjPfkgusdsQC41grs)" stroke-linecap="round"><g transform="translate(1979.6592640955698 505.70359054327696) rotate(0 -364.9645330147538 86.06416292102779)"><path d="M1.32 1.36 C-120.23 29.83, -608.64 141.32, -730.34 169.5" stroke="#1e1e1e" stroke-width="4.5" fill="none" stroke-dasharray="8 12"></path></g><g transform="translate(1979.6592640955698 505.70359054327696) rotate(0 -364.9645330147538 86.06416292102779)"><path d="M-708.39 155.62 C-716.81 160.34, -721.63 164.28, -730.97 168.53" stroke="#1e1e1e" stroke-width="4.5" fill="none"></path></g><g transform="translate(1979.6592640955698 505.70359054327696) rotate(0 -364.9645330147538 86.06416292102779)"><path d="M-704.56 172.28 C-713.91 172.64, -719.74 172.19, -730.97 168.53" stroke="#1e1e1e" stroke-width="4.5" fill="none"></path></g></g><mask id="mask-8BVrtjPfkgusdsQC41grs"><rect x="0" y="0" fill="#fff" width="2809.5883301250774" height="777.8319163853325"></rect><rect x="1559.4247878435115" y="579.2677534643049" fill="#000" width="110.53988647460938" height="25" opacity="1"></rect></mask><g transform="translate(1559.4247878435112 579.2677534643049) rotate(0 55.726900150627046 11.867162976413852)"><text x="55.26994323730469" y="17.52" font-family="Virgil, Segoe UI Emoji" font-size="20px" fill="#1e1e1e" text-anchor="middle" style="white-space: pre;" direction="ltr" dominant-baseline="alphabetic">slash proof</text></g><g mask="url(#mask-F9hiHU9Pk_R2gNygf-2zG)" stroke-linecap="round"><g transform="translate(1996.1506032014445 771.1175588103154) rotate(0 -367.4190027385735 2.5327080572465093)"><path d="M-0.63 -2.77 C-123.41 -1.88, -612.52 1.49, -734.84 3.03" stroke="#1e1e1e" stroke-width="4.5" fill="none" stroke-dasharray="8 12"></path></g><g transform="translate(1996.1506032014445 771.1175588103154) rotate(0 -367.4190027385735 2.5327080572465093)"><path d="M-713.41 -5.74 C-721.55 -2.38, -727.66 -0.24, -736.59 4.9" stroke="#1e1e1e" stroke-width="4.5" fill="none"></path></g><g transform="translate(1996.1506032014445 771.1175588103154) rotate(0 -367.4190027385735 2.5327080572465093)"><path d="M-713.25 11.36 C-721.31 8.44, -727.48 4.3, -736.59 4.9" stroke="#1e1e1e" stroke-width="4.5" fill="none"></path></g></g><mask id="mask-F9hiHU9Pk_R2gNygf-2zG"><rect x="0" y="0" fill="#fff" width="2830.9886086785914" height="876.1829749248084"></rect><rect x="1566.041659056621" y="761.1502668675619" fill="#000" width="125.3798828125" height="25" opacity="1"></rect></mask><g transform="translate(1566.041659056621 761.1502668675621) rotate(0 62.3737598277628 10.099024846404745)"><text x="62.68994140625" y="17.52" font-family="Virgil, Segoe UI Emoji" font-size="20px" fill="#1e1e1e" text-anchor="middle" style="white-space: pre;" direction="ltr" dominant-baseline="alphabetic">reward proof</text></g><g stroke-linecap="round" transform="translate(1956.7736751379975 466.2869896373895) rotate(0 71.79084411550843 182.74918189481468)"><path d="M32 0 C49.33 -2.19, 72.02 -1.27, 111.58 0 M32 0 C59.56 -0.91, 86.02 0.58, 111.58 0 M111.58 0 C134.37 -1.27, 142.28 11.42, 143.58 32 M111.58 0 C130.67 -1.95, 141.88 10.65, 143.58 32 M143.58 32 C142.85 133.88, 145.19 234.72, 143.58 333.5 M143.58 32 C142.23 115.14, 143.35 199.31, 143.58 333.5 M143.58 333.5 C142.15 355.38, 132.79 366.72, 111.58 365.5 M143.58 333.5 C141.74 357.06, 130.84 363.45, 111.58 365.5 M111.58 365.5 C89.35 365.49, 63.69 365.6, 32 365.5 M111.58 365.5 C83.41 366.65, 54.26 366.34, 32 365.5 M32 365.5 C11.19 366.1, 0.3 354.81, 0 333.5 M32 365.5 C10.2 363.26, 2.12 355.83, 0 333.5 M0 333.5 C2.77 267.08, 3 203.05, 0 32 M0 333.5 C0.1 226.65, 1.1 119.05, 0 32 M0 32 C0.36 9.75, 9.24 0.1, 32 0 M0 32 C-0.12 11.2, 12.45 0.46, 32 0" stroke="#1e1e1e" stroke-width="1" fill="none"></path></g><g stroke-linecap="round" transform="translate(1864.8620140197002 144.58135608864382) rotate(0 57.576588614158936 50.1490419247541)"><path d="M51.23 1.02 C60.42 -0.5, 73.34 1.08, 82.22 4.33 C91.09 7.59, 98.95 13.82, 104.47 20.54 C109.99 27.26, 114.4 36.25, 115.33 44.66 C116.26 53.06, 114.06 63.22, 110.04 70.95 C106.02 78.68, 99.02 86.19, 91.19 91.03 C83.36 95.86, 72.77 99.13, 63.06 99.97 C53.34 100.81, 41.47 99.43, 32.91 96.08 C24.36 92.72, 17.09 86.53, 11.73 79.86 C6.38 73.18, 1.97 64.56, 0.78 56.02 C-0.41 47.48, 0.56 36.36, 4.59 28.62 C8.63 20.89, 16.6 14.53, 24.98 9.62 C33.37 4.71, 49.31 0.44, 54.87 -0.84 C60.44 -2.12, 58.33 1.05, 58.4 1.92 M56.03 0.05 C64.96 -1.04, 76.03 1.57, 84.34 5.51 C92.64 9.44, 100.61 16.72, 105.87 23.66 C111.13 30.6, 115.59 38.92, 115.9 47.14 C116.2 55.36, 112.24 65.26, 107.71 72.97 C103.19 80.68, 96.77 89.11, 88.75 93.41 C80.73 97.71, 69.22 98.53, 59.6 98.77 C49.98 99.01, 39.24 98.39, 31.04 94.84 C22.85 91.29, 15.59 84.74, 10.44 77.47 C5.29 70.19, 0.99 59.77, 0.15 51.2 C-0.69 42.64, 1.24 33.3, 5.41 26.06 C9.57 18.82, 16.73 12.11, 25.14 7.77 C33.56 3.42, 50.81 0.89, 55.92 -0.01 C61.02 -0.91, 55.73 1.72, 55.79 2.37" stroke="#1e1e1e" stroke-width="2" fill="none"></path></g><g transform="translate(1888.3058311064374 174.76967039839587) rotate(0 33.91997528076172 20)"><text x="33.91997528076172" y="14.016" font-family="Virgil, Segoe UI Emoji" font-size="16px" fill="#1e1e1e" text-anchor="middle" style="white-space: pre;" direction="ltr" dominant-baseline="alphabetic">operator</text><text x="33.91997528076172" y="34.016" font-family="Virgil, Segoe UI Emoji" font-size="16px" fill="#1e1e1e" text-anchor="middle" style="white-space: pre;" direction="ltr" dominant-baseline="alphabetic">1</text></g><g transform="translate(2074.6039101537217 500.23175149733925) rotate(0 36.935997009277344 22.5)"><text x="0" y="31.536" font-family="Virgil, Segoe UI Emoji" font-size="36px" fill="#1e1e1e" text-anchor="start" style="white-space: pre;" direction="ltr" dominant-baseline="alphabetic">AVS1</text></g><g mask="url(#mask-wNfbYe3HIzUgGAHpSg8RW)" stroke-linecap="round"><g transform="translate(707.5455563218117 1037.7238966848884) rotate(0 153.59997558593753 -98.40000915527332)"><path d="M2.34 -0.38 C53.62 -33.25, 259.39 -164.57, 309.84 -197.48" stroke="#1e1e1e" stroke-width="4.5" fill="none" stroke-dasharray="8 12"></path></g><g transform="translate(707.5455563218117 1037.7238966848884) rotate(0 153.59997558593753 -98.40000915527332)"><path d="M2.95 1.28 L9.98 -11.3 L18.31 -1.28 L3.52 -1.21" stroke="none" stroke-width="0" fill="#1e1e1e" fill-rule="evenodd"></path><path d="M2.13 1.03 C5.01 -6.39, 7.86 -9.27, 9.32 -12.53 M9.28 -12.16 C13.09 -9.31, 14.01 -5.61, 16.82 -3.47 M18.39 -3.82 C11.07 -1.07, 7.88 -0.13, 3.49 0.21 M2.34 -0.38 C2.34 -0.38, 2.34 -0.38, 2.34 -0.38" stroke="#1e1e1e" stroke-width="4.5" fill="none"></path></g><g transform="translate(707.5455563218117 1037.7238966848884) rotate(0 153.59997558593753 -98.40000915527332)"><path d="M310.45 -195.82 L301.45 -183.04 L296.08 -194.36 L311.02 -198.31" stroke="none" stroke-width="0" fill="#1e1e1e" fill-rule="evenodd"></path><path d="M309.64 -196.06 C306.45 -193.79, 303.25 -187.12, 300.79 -184.27 M300.76 -183.9 C300.34 -187.95, 296.9 -191.04, 294.6 -196.55 M296.16 -196.9 C298.34 -195.37, 304.67 -195.72, 311 -196.89 M309.84 -197.48 C309.84 -197.48, 309.84 -197.48, 309.84 -197.48" stroke="#1e1e1e" stroke-width="4.5" fill="none"></path></g></g><mask id="mask-wNfbYe3HIzUgGAHpSg8RW"><rect x="0" y="0" fill="#fff" width="1114.7455074936868" height="1334.523914995435"></rect><rect x="766.1943600327493" y="923.223887529615" fill="#000" width="189.90234375" height="32.199999999999996" opacity="1"></rect></mask><g transform="translate(766.1943600327493 923.2238875296152) rotate(0 97.43845142275092 15.571049486100492)"><text x="94.951171875" y="25.760546874999996" font-family="Helvetica, Segoe UI Emoji" font-size="28px" fill="#1e1e1e" text-anchor="middle" style="white-space: pre;" direction="ltr" dominant-baseline="alphabetic">Secured bridge</text></g><g mask="url(#mask-8vhx8_s78VJnImLSpsbnA)" stroke-linecap="round"><g transform="translate(702.745599046421 511.3238875296156) rotate(0 155.20001220703128 -23.999984741210938)"><path d="M0.95 1.59 C52.91 -6.79, 260.48 -40.39, 312.27 -48.48" stroke="#1e1e1e" stroke-width="4.5" fill="none" stroke-dasharray="8 12"></path></g><g transform="translate(702.745599046421 511.3238875296156) rotate(0 155.20001220703128 -23.999984741210938)"><path d="M1.95 0.73 L14.16 -6.12 L14.03 5.47 L0.4 2.76" stroke="none" stroke-width="0" fill="#1e1e1e" fill-rule="evenodd"></path><path d="M1.8 2.59 C4.6 -0.46, 9.38 -3.01, 11.94 -7.63 M12.23 -6.08 C14.33 -4.8, 14.32 0.37, 16.32 4.58 M13.91 4.22 C10.06 5.82, 8.04 1.89, 0 2.76 M0.95 1.59 C0.95 1.59, 0.95 1.59, 0.95 1.59" stroke="#1e1e1e" stroke-width="4.5" fill="none"></path></g><g transform="translate(702.745599046421 511.3238875296156) rotate(0 155.20001220703128 -23.999984741210938)"><path d="M313.27 -49.34 L300.64 -39.36 L296.49 -52.81 L311.71 -47.3" stroke="none" stroke-width="0" fill="#1e1e1e" fill-rule="evenodd"></path><path d="M313.12 -47.48 C308.11 -45.08, 304.97 -42.27, 298.41 -40.88 M298.71 -39.32 C299.95 -44.1, 298.96 -44.99, 298.78 -53.7 M296.37 -54.06 C300.61 -49.88, 306.73 -51.49, 311.31 -47.31 M312.27 -48.48 C312.27 -48.48, 312.27 -48.48, 312.27 -48.48" stroke="#1e1e1e" stroke-width="4.5" fill="none"></path></g></g><mask id="mask-8vhx8_s78VJnImLSpsbnA"><rect x="0" y="0" fill="#fff" width="1113.1456234604836" height="659.3238570120375"></rect><rect x="762.9944393784524" y="471.22390278840476" fill="#000" width="189.90234375" height="32.199999999999996" opacity="1"></rect></mask><g transform="translate(762.9944393784524 471.22390278840476) rotate(0 96.36113137155772 16.654858337342716)"><text x="94.951171875" y="25.760546874999996" font-family="Helvetica, Segoe UI Emoji" font-size="28px" fill="#1e1e1e" text-anchor="middle" style="white-space: pre;" direction="ltr" dominant-baseline="alphabetic">Secured bridge</text></g><g transform="translate(2021.9901980445502 502.4621872674852) rotate(0 7.7861328125 16.100000000000023)"><text x="0" y="25.760546874999996" font-family="Helvetica, Segoe UI Emoji" font-size="28px" fill="#1e1e1e" text-anchor="start" style="white-space: pre;" direction="ltr" dominant-baseline="alphabetic">3</text></g><g transform="translate(2021.9901980445502 759.9621872674852) rotate(0 7.7861328125 16.100000000000023)"><text x="0" y="25.760546874999996" font-family="Helvetica, Segoe UI Emoji" font-size="28px" fill="#1e1e1e" text-anchor="start" style="white-space: pre;" direction="ltr" dominant-baseline="alphabetic">6</text></g><g stroke-linecap="round" transform="translate(1696.1310058662837 1040.8907259986513) rotate(0 27.144963139482797 32.50004577636719)"><path d="M35.21 2.16 C40.46 4.22, 47.25 10.67, 50.49 16.55 C53.74 22.43, 55.64 30.54, 54.66 37.44 C53.68 44.34, 49.09 53.4, 44.61 57.93 C40.13 62.47, 33.42 64.66, 27.78 64.66 C22.15 64.65, 15.21 62.32, 10.8 57.89 C6.38 53.47, 2.63 45.06, 1.3 38.09 C-0.03 31.13, -0.02 22.16, 2.82 16.12 C5.65 10.09, 12.7 4.28, 18.3 1.9 C23.89 -0.49, 33.29 1.51, 36.39 1.83 C39.49 2.15, 36.88 3.14, 36.88 3.82 M14.06 3.92 C18.74 0.66, 25.38 0.91, 31.11 2.12 C36.84 3.32, 44.33 5.85, 48.43 11.15 C52.53 16.45, 55.81 26.59, 55.71 33.93 C55.61 41.27, 52.04 49.99, 47.81 55.19 C43.58 60.39, 36.32 64.26, 30.32 65.12 C24.33 65.99, 16.62 64.34, 11.85 60.38 C7.08 56.43, 3.23 48.15, 1.7 41.39 C0.17 34.64, 0.82 26.1, 2.66 19.86 C4.5 13.63, 10.52 6.31, 12.73 3.97 C14.94 1.64, 15.24 5.17, 15.91 5.86" stroke="#1e1e1e" stroke-width="1" fill="none"></path></g><g stroke-linecap="round" transform="translate(1787.8452654226455 1090.9621589297342) rotate(0 27.144963139482797 32.50004577636719)"><path d="M26.29 -0.17 C31.84 -0.75, 40.45 3.08, 44.98 7.65 C49.5 12.22, 52.42 20.32, 53.45 27.24 C54.49 34.15, 54 43.31, 51.18 49.13 C48.35 54.95, 42.05 59.7, 36.5 62.16 C30.96 64.62, 23.36 66.17, 17.9 63.89 C12.43 61.61, 6.69 54.73, 3.69 48.5 C0.7 42.26, -1.13 33.18, -0.1 26.47 C0.93 19.77, 4.82 12.8, 9.86 8.24 C14.91 3.68, 26.59 0.31, 30.16 -0.87 C33.74 -2.05, 31.46 0.46, 31.3 1.16 M13.65 5.02 C18.26 1.67, 27.72 -0.03, 33.77 1.13 C39.82 2.29, 46.45 6.7, 49.95 12 C53.44 17.31, 55.2 25.82, 54.74 32.97 C54.28 40.12, 51.49 49.46, 47.21 54.88 C42.94 60.31, 35.01 64.94, 29.09 65.52 C23.17 66.11, 16.32 62.03, 11.68 58.37 C7.04 54.71, 2.6 49.78, 1.23 43.57 C-0.14 37.37, 0.99 27.77, 3.47 21.15 C5.94 14.53, 13.95 6.55, 16.09 3.85 C18.24 1.15, 16.23 4.72, 16.33 4.96" stroke="#1e1e1e" stroke-width="1" fill="none"></path></g><g stroke-linecap="round" transform="translate(2171.8453351771095 555.962137131464) rotate(0 27.144963139482797 32.50004577636719)"><path d="M37.73 2.44 C43.09 4.41, 49.14 10.37, 51.7 16.34 C54.27 22.31, 54.23 31.38, 53.11 38.25 C51.98 45.11, 49.46 53.16, 44.94 57.55 C40.43 61.93, 32.09 64.55, 26.01 64.56 C19.93 64.57, 12.7 61.96, 8.47 57.58 C4.24 53.2, 1.57 45.41, 0.63 38.3 C-0.3 31.19, -0.07 21.01, 2.85 14.91 C5.78 8.81, 12.09 3.78, 18.18 1.72 C24.27 -0.34, 35.32 1.88, 39.38 2.55 C43.44 3.22, 42.85 4.96, 42.53 5.76 M31.72 1.14 C36.96 1.89, 43.46 7.31, 47.27 12.44 C51.08 17.58, 54.41 25.12, 54.57 31.93 C54.73 38.74, 52.39 47.84, 48.24 53.3 C44.1 58.76, 35.33 63.29, 29.7 64.67 C24.06 66.04, 18.93 64.96, 14.42 61.54 C9.91 58.12, 4.69 50.74, 2.65 44.14 C0.6 37.53, 0.1 28.48, 2.16 21.91 C4.22 15.33, 10.13 8.28, 15 4.68 C19.87 1.08, 28.44 0.92, 31.38 0.31 C34.33 -0.3, 32.64 0.31, 32.69 1.01" stroke="#1e1e1e" stroke-width="1" fill="none"></path></g><g stroke-linecap="round" transform="translate(1759.6308925152796 953.6763705299015) rotate(0 27.144963139482797 32.50004577636719)"><path d="M37.9 3.53 C43.11 5.86, 48.9 11.64, 51.42 17.65 C53.94 23.66, 54.34 32.66, 53.02 39.58 C51.71 46.49, 48.06 55.1, 43.52 59.16 C38.99 63.21, 31.83 64.49, 25.79 63.92 C19.76 63.34, 11.59 60.41, 7.3 55.72 C3.01 51.02, 0.65 42.51, 0.06 35.75 C-0.53 29, 0.46 21.08, 3.75 15.2 C7.04 9.32, 12.99 1.84, 19.8 0.49 C26.62 -0.85, 39.95 5.03, 44.66 7.15 C49.36 9.27, 48.55 12.8, 48.02 13.22 M15.73 3.05 C20.59 -0.05, 29.22 -2.09, 34.98 0.23 C40.74 2.55, 46.9 10.58, 50.3 16.97 C53.69 23.35, 55.97 31.84, 55.34 38.52 C54.7 45.21, 50.85 52.54, 46.5 57.08 C42.15 61.62, 35.13 65.83, 29.22 65.78 C23.31 65.73, 15.86 61.19, 11.02 56.76 C6.18 52.34, 1.54 45.91, 0.21 39.23 C-1.13 32.55, 0.05 22.88, 2.99 16.67 C5.94 10.45, 15.24 4.48, 17.88 1.96 C20.52 -0.56, 18.9 0.84, 18.85 1.56" stroke="#1e1e1e" stroke-width="1" fill="none"></path></g><g stroke-linecap="round" transform="translate(1857.9167201519983 1048.1763182140533) rotate(0 27.144963139482797 32.50004577636719)"><path d="M23.95 0.62 C29.59 -0.17, 38.33 2.8, 43.07 6.58 C47.81 10.35, 50.96 16.66, 52.39 23.27 C53.82 29.88, 53.95 39.95, 51.64 46.24 C49.33 52.54, 43.63 58.1, 38.53 61.05 C33.43 63.99, 26.76 65.41, 21.02 63.91 C15.29 62.4, 7.55 57.7, 4.13 52.02 C0.72 46.33, -0.26 36.98, 0.51 29.79 C1.29 22.6, 3.88 13.95, 8.79 8.88 C13.69 3.81, 25.7 0.53, 29.95 -0.62 C34.2 -1.77, 34.54 1.23, 34.28 1.98 M21.89 2.36 C27.6 0.53, 35.1 1.53, 40.14 4.55 C45.18 7.56, 49.81 14.19, 52.14 20.43 C54.46 26.68, 55.89 35.59, 54.08 42.02 C52.27 48.44, 46.17 55.23, 41.27 58.98 C36.38 62.74, 30.34 65.07, 24.69 64.56 C19.05 64.05, 11.54 60.62, 7.38 55.93 C3.23 51.25, 0.37 43.6, -0.23 36.45 C-0.84 29.29, 0.16 18.81, 3.77 12.99 C7.37 7.17, 18.81 3.31, 21.39 1.54 C23.96 -0.23, 19.28 2.11, 19.23 2.39" stroke="#1e1e1e" stroke-width="1" fill="none"></path></g><g stroke-linecap="round" transform="translate(10 10) rotate(0 359.8094213576543 617.7143750871929)"><path d="M32 0 C174.53 -2.76, 316.15 -3.04, 687.62 0 M687.62 0 C710.08 -0.39, 720.19 12.08, 719.62 32 M719.62 32 C718.51 396.22, 718.03 760.4, 719.62 1203.43 M719.62 1203.43 C716.9 1222.38, 705.48 1238.2, 687.62 1235.43 M687.62 1235.43 C508.11 1237.29, 331.11 1235.96, 32 1235.43 M32 1235.43 C7.59 1234.54, 2.02 1222.83, 0 1203.43 M0 1203.43 C-4.2 862.07, -3.94 524.52, 0 32 M0 32 C2.75 12.09, 8.81 1.93, 32 0" stroke="#e03131" stroke-width="4.5" fill="none" stroke-dasharray="1.5 10"></path></g><g transform="translate(30.82463271696838 49.99998546781978) rotate(0 96.064453125 20.69999999999999)"><text x="0" y="33.120703125" font-family="Helvetica, Segoe UI Emoji" font-size="36px" fill="#e03131" text-anchor="start" style="white-space: pre;" direction="ltr" dominant-baseline="alphabetic">Supply Side</text></g><g stroke-linecap="round" transform="translate(1616.7047889346168 16.819006057012757) rotate(0 339.1999511718748 610.4000142415362)"><path d="M32 0 C266.32 3.34, 501.6 2.97, 646.4 0 M646.4 0 C667.38 -1.85, 682.12 7.21, 678.4 32 M678.4 32 C683.68 324.94, 681.37 615.05, 678.4 1188.8 M678.4 1188.8 C675.59 1207.73, 670.54 1222.4, 646.4 1220.8 M646.4 1220.8 C511.24 1220.06, 379.33 1218.63, 32 1220.8 M32 1220.8 C11.63 1223.4, 0.44 1208.26, 0 1188.8 M0 1188.8 C0.84 773.84, 1 354.92, 0 32 M0 32 C-2.47 10.42, 9.12 -2.64, 32 0" stroke="#2f9e44" stroke-width="4.5" fill="none" stroke-dasharray="1.5 10"></path></g><g transform="translate(2031.8747439083352 20.019058954148136) rotate(0 117.48555755615234 22.29997558593749)"><text x="0" y="35.6807184094968" font-family="Helvetica, Segoe UI Emoji" font-size="38.78256623641304px" fill="#2f9e44" text-anchor="start" style="white-space: pre;" direction="ltr" dominant-baseline="alphabetic">Demand Side</text></g><g transform="translate(1655.033810398829 44.584427729175786) rotate(0 96.02996826171875 22.5)"><text x="0" y="31.536" font-family="Virgil, Segoe UI Emoji" font-size="36px" fill="#1e1e1e" text-anchor="start" style="white-space: pre;" direction="ltr" dominant-baseline="alphabetic">VaaS layer</text></g></svg>