<svg version="1.1" xmlns="http://www.w3.org/2000/svg" viewBox="0 0 1079.0907796223958 731.9696553548174" width="2158.1815592447915" height="1463.9393107096348">
  <!-- svg-source:excalidraw -->
  
  <defs>
    <style class="style-fonts">
      @font-face {
        font-family: "Virgil";
        src: url("https://excalidraw.com/Virgil.woff2");
      }
      @font-face {
        font-family: "Cascadia";
        src: url("https://excalidraw.com/Cascadia.woff2");
      }
      @font-face {
        font-family: "Assistant";
        src: url("https://excalidraw.com/Assistant-Regular.woff2");
      }
    </style>
    
  </defs>
  <rect x="0" y="0" width="1079.0907796223958" height="731.9696553548174" fill="#ffffff"></rect><g stroke-linecap="round" transform="translate(30.575785319009583 338.34850565593024) rotate(0 77.65146891276038 31.060612996418968)"><path d="M0 0 C40.35 -2.91, 84.7 -2.43, 155.3 0 M0 0 C46.43 -0.9, 95.24 -1.52, 155.3 0 M155.3 0 C153.13 20.96, 154.46 38.59, 155.3 62.12 M155.3 0 C155.08 14.13, 154.53 28.83, 155.3 62.12 M155.3 62.12 C109.82 61.74, 63.11 64.3, 0 62.12 M155.3 62.12 C95.27 62.78, 35.4 64.01, 0 62.12 M0 62.12 C-0.8 41.17, 1.77 15.19, 0 0 M0 62.12 C-0.5 47.87, -0.55 32.52, 0 0" stroke="#1e1e1e" stroke-width="1" fill="none"></path></g><g transform="translate(60.38729604085199 356.9091186523492) rotate(0 47.83995819091797 12.5)"><text x="47.83995819091797" y="17.52" font-family="Virgil, Segoe UI Emoji" font-size="20px" fill="#1e1e1e" text-anchor="middle" style="white-space: pre;" direction="ltr" dominant-baseline="alphabetic">Eigenlayer</text></g><g stroke-linecap="round" transform="translate(280.1060791015616 335.31818644206305) rotate(0 77.65146891276038 31.060612996418968)"><path d="M0 0 C49.17 1.14, 99.41 -1.74, 155.3 0 M0 0 C33.27 -0.75, 66.17 -0.85, 155.3 0 M155.3 0 C156.9 21.57, 154.64 45.41, 155.3 62.12 M155.3 0 C156.69 25.38, 156.66 49.24, 155.3 62.12 M155.3 62.12 C117.8 62.28, 78.94 61.18, 0 62.12 M155.3 62.12 C101.98 61.48, 46.51 62.9, 0 62.12 M0 62.12 C0.65 47.4, -1.76 31.73, 0 0 M0 62.12 C-1.13 38.69, -0.93 18.04, 0 0" stroke="#1e1e1e" stroke-width="1" fill="none"></path></g><g transform="translate(329.1175638834627 353.878799438482) rotate(0 28.639984130859375 12.5)"><text x="28.639984130859375" y="17.52" font-family="Virgil, Segoe UI Emoji" font-size="20px" fill="#1e1e1e" text-anchor="middle" style="white-space: pre;" direction="ltr" dominant-baseline="alphabetic">Karak</text></g><g stroke-linecap="round" transform="translate(528.5909830729161 335.3182373046948) rotate(0 77.65146891276038 31.060612996418968)"><path d="M0 0 C48.85 1.98, 100.06 1.69, 155.3 0 M0 0 C36.36 0.71, 71.05 0.75, 155.3 0 M155.3 0 C155.8 20.77, 154.4 42.74, 155.3 62.12 M155.3 0 C153.97 16.49, 153.81 33.52, 155.3 62.12 M155.3 62.12 C106.41 60.3, 52.61 61.71, 0 62.12 M155.3 62.12 C100.89 60.61, 45.65 61.32, 0 62.12 M0 62.12 C-0.58 46.22, 0.3 32.99, 0 0 M0 62.12 C0.37 42.69, 0.18 22.06, 0 0" stroke="#1e1e1e" stroke-width="1" fill="none"></path></g><g transform="translate(563.4725011189773 353.87885030111374) rotate(0 42.76995086669922 12.5)"><text x="42.76995086669922" y="17.52" font-family="Virgil, Segoe UI Emoji" font-size="20px" fill="#1e1e1e" text-anchor="middle" style="white-space: pre;" direction="ltr" dominant-baseline="alphabetic">Symbiotic</text></g><g stroke-linecap="round" transform="translate(765.6818644205723 337.5908813476599) rotate(0 138.63637288411462 30)"><path d="M0 0 C94.92 -1.92, 187.7 0.68, 277.27 0 M0 0 C98.82 -2.03, 196.92 -2.15, 277.27 0 M277.27 0 C278.76 15.23, 279.44 30.07, 277.27 60 M277.27 0 C277.08 20.85, 276.67 40.25, 277.27 60 M277.27 60 C195.81 60.01, 116.83 60.51, 0 60 M277.27 60 C218.56 57.83, 161.2 58.98, 0 60 M0 60 C0.81 46.18, -1.18 30.38, 0 0 M0 60 C0.82 47.35, 0.68 34.9, 0 0" stroke="#1e1e1e" stroke-width="1" fill="none"></path></g><g transform="translate(795.1083297729488 355.0908813476599) rotate(0 109.20990753173828 12.5)"><text x="109.20990753173828" y="17.52" font-family="Virgil, Segoe UI Emoji" font-size="20px" fill="#1e1e1e" text-anchor="middle" style="white-space: pre;" direction="ltr" dominant-baseline="alphabetic">More restaking layer...</text></g><g stroke-linecap="round" transform="translate(25.530293782551098 209.46965535482013) rotate(0 509.0908304850261 31.060612996418968)"><path d="M0 0 C260.1 -3.66, 520.69 -4.81, 1018.18 0 M0 0 C247.73 3.56, 494.34 4.18, 1018.18 0 M1018.18 0 C1016.7 14.89, 1017.38 32.48, 1018.18 62.12 M1018.18 0 C1017.85 22.61, 1017.54 45.53, 1018.18 62.12 M1018.18 62.12 C765.01 59.2, 512.72 60.26, 0 62.12 M1018.18 62.12 C772.21 62.42, 526.76 61.85, 0 62.12 M0 62.12 C-1.3 45.98, -1.81 33.08, 0 0 M0 62.12 C-0.3 45.97, -0.22 27.57, 0 0" stroke="#1e1e1e" stroke-width="1" fill="none"></path></g><g transform="translate(357.09124755859284 228.0302683512391) rotate(0 177.52987670898438 12.5)"><text x="177.52987670898438" y="17.52" font-family="Virgil, Segoe UI Emoji" font-size="20px" fill="#1e1e1e" text-anchor="middle" style="white-space: pre;" direction="ltr" dominant-baseline="alphabetic">Verisense VaaS &amp; AVS Marketplace </text></g><g stroke-linecap="round" transform="translate(36.13637288411428 77.65141805013263) rotate(0 77.65146891276038 31.060612996418968)"><path d="M0 0 C30.86 -1.44, 65.52 -0.42, 155.3 0 M0 0 C40.12 -1.7, 82.16 0.03, 155.3 0 M155.3 0 C156.09 16.79, 153.78 35.04, 155.3 62.12 M155.3 0 C155.43 23.55, 155.04 48.57, 155.3 62.12 M155.3 62.12 C117.95 63.42, 81.35 62.4, 0 62.12 M155.3 62.12 C111.19 61.62, 66.64 62.42, 0 62.12 M0 62.12 C-0.47 42.63, -1.78 21.25, 0 0 M0 62.12 C1.24 40.85, 0.78 18.5, 0 0" stroke="#1e1e1e" stroke-width="1" fill="none"></path></g><g transform="translate(73.89987182617153 98.7120310465516) rotate(0 39.887969970703125 10)"><text x="39.887969970703125" y="14.016" font-family="Virgil, Segoe UI Emoji" font-size="16px" fill="#1e1e1e" text-anchor="middle" style="white-space: pre;" direction="ltr" dominant-baseline="alphabetic">AVS Client</text></g><g stroke-linecap="round" transform="translate(243.5227457682288 77.65141805013263) rotate(0 77.65146891276038 31.060612996418968)"><path d="M0 0 C60.13 0.22, 116.03 -0.77, 155.3 0 M0 0 C55.64 0.58, 112.08 1.84, 155.3 0 M155.3 0 C156.34 23.06, 154.53 45.87, 155.3 62.12 M155.3 0 C155.4 21.39, 155.39 41.82, 155.3 62.12 M155.3 62.12 C95.3 62.24, 38.63 63.52, 0 62.12 M155.3 62.12 C108.02 63.25, 59.97 63.42, 0 62.12 M0 62.12 C-0.17 41.94, 0.05 20.36, 0 0 M0 62.12 C-1.07 44.78, -0.94 26.55, 0 0" stroke="#1e1e1e" stroke-width="1" fill="none"></path></g><g transform="translate(281.28624471028616 98.7120310465516) rotate(0 39.887969970703125 10)"><text x="39.887969970703125" y="14.016" font-family="Virgil, Segoe UI Emoji" font-size="16px" fill="#1e1e1e" text-anchor="middle" style="white-space: pre;" direction="ltr" dominant-baseline="alphabetic">AVS Client</text></g><g stroke-linecap="round" transform="translate(450.9091186523433 77.65141805013263) rotate(0 77.65146891276038 31.060612996418968)"><path d="M0 0 C46.83 2.59, 94.52 -0.15, 155.3 0 M0 0 C54.08 -0.63, 109.09 0.2, 155.3 0 M155.3 0 C156.34 12.88, 153.3 28.14, 155.3 62.12 M155.3 0 C154.68 21.15, 153.92 42.5, 155.3 62.12 M155.3 62.12 C95.83 59.19, 36.24 59.97, 0 62.12 M155.3 62.12 C101.52 61.59, 47.88 61.48, 0 62.12 M0 62.12 C-1.56 39.27, 1.18 19.46, 0 0 M0 62.12 C-0.89 48.75, 0.37 36.24, 0 0" stroke="#1e1e1e" stroke-width="1" fill="none"></path></g><g transform="translate(488.67261759440066 98.7120310465516) rotate(0 39.887969970703125 10)"><text x="39.887969970703125" y="14.016" font-family="Virgil, Segoe UI Emoji" font-size="16px" fill="#1e1e1e" text-anchor="middle" style="white-space: pre;" direction="ltr" dominant-baseline="alphabetic">AVS Client</text></g><g stroke-linecap="round" transform="translate(658.2954915364578 77.65141805013263) rotate(0 77.65146891276038 31.060612996418968)"><path d="M0 0 C54.86 0.89, 113.16 -1.26, 155.3 0 M0 0 C47.19 -0.61, 93.75 -1.14, 155.3 0 M155.3 0 C156.52 20.9, 153.49 37.38, 155.3 62.12 M155.3 0 C155.46 18.27, 155.55 36.7, 155.3 62.12 M155.3 62.12 C117.62 61.06, 79.73 61.99, 0 62.12 M155.3 62.12 C120.91 63.44, 85.56 63.09, 0 62.12 M0 62.12 C-1.5 38.47, 1.12 16.46, 0 0 M0 62.12 C-1.41 44.85, -0.45 27.38, 0 0" stroke="#1e1e1e" stroke-width="1" fill="none"></path></g><g transform="translate(696.0589904785152 98.7120310465516) rotate(0 39.887969970703125 10)"><text x="39.887969970703125" y="14.016" font-family="Virgil, Segoe UI Emoji" font-size="16px" fill="#1e1e1e" text-anchor="middle" style="white-space: pre;" direction="ltr" dominant-baseline="alphabetic">AVS Client</text></g><g stroke-linecap="round" transform="translate(865.6818644205723 77.65141805013263) rotate(0 77.65146891276038 31.060612996418968)"><path d="M0 0 C33.77 -0.97, 66.19 -1.58, 155.3 0 M0 0 C51.99 0.96, 103.55 0.99, 155.3 0 M155.3 0 C154.66 19.53, 154.33 41.8, 155.3 62.12 M155.3 0 C155.74 15.02, 155.34 32.63, 155.3 62.12 M155.3 62.12 C115.77 62.47, 74.43 61.05, 0 62.12 M155.3 62.12 C109.28 63.22, 64.83 63.14, 0 62.12 M0 62.12 C-0.83 42.23, 1.03 22.11, 0 0 M0 62.12 C0.03 40.08, 0.56 18.92, 0 0" stroke="#1e1e1e" stroke-width="1" fill="none"></path></g><g transform="translate(903.4453633626297 98.7120310465516) rotate(0 39.887969970703125 10)"><text x="39.887969970703125" y="14.016" font-family="Virgil, Segoe UI Emoji" font-size="16px" fill="#1e1e1e" text-anchor="middle" style="white-space: pre;" direction="ltr" dominant-baseline="alphabetic">AVS Client</text></g><g stroke-linecap="round"><g transform="translate(109.99994913736964 148.10600280761628) rotate(0 0 25.378799438476562)"><path d="M0 0 C0.29 17.86, -0.45 33.59, 0 50.76 M0 0 C-0.38 18.9, 0.53 38.91, 0 50.76" stroke="#1e1e1e" stroke-width="1" fill="none"></path></g><g transform="translate(109.99994913736964 148.10600280761628) rotate(0 0 25.378799438476562)"><path d="M-8.25 27.16 C-5.24 36.33, -3.36 43.42, 0 50.76 M-8.25 27.16 C-5.57 35.83, -1.58 45.68, 0 50.76" stroke="#1e1e1e" stroke-width="1" fill="none"></path></g><g transform="translate(109.99994913736964 148.10600280761628) rotate(0 0 25.378799438476562)"><path d="M8.85 27.38 C6.42 36.57, 2.85 43.58, 0 50.76 M8.85 27.38 C5.13 36.12, 2.73 45.89, 0 50.76" stroke="#1e1e1e" stroke-width="1" fill="none"></path></g></g><mask></mask><g stroke-linecap="round"><g transform="translate(314.53530104783385 151.89384460449128) rotate(0 0 21.590906778971657)"><path d="M0 0 C-0.96 14.3, -1 30.57, 0 43.18 M0 0 C0.54 11.5, -0.38 23.76, 0 43.18" stroke="#1e1e1e" stroke-width="1" fill="none"></path></g><g transform="translate(314.53530104783385 151.89384460449128) rotate(0 0 21.590906778971657)"><path d="M-7.47 22.92 C-5.76 29.21, -3.18 37.44, 0 43.18 M-7.47 22.92 C-4.97 28.23, -3.87 34.29, 0 43.18" stroke="#1e1e1e" stroke-width="1" fill="none"></path></g><g transform="translate(314.53530104783385 151.89384460449128) rotate(0 0 21.590906778971657)"><path d="M7.3 22.86 C3.83 29.12, 1.23 37.38, 0 43.18 M7.3 22.86 C5.8 28.16, 2.91 34.24, 0 43.18" stroke="#1e1e1e" stroke-width="1" fill="none"></path></g></g><mask></mask><g stroke-linecap="round"><g transform="translate(521.3534366272609 149.24235026041606) rotate(0 0 25.378799438476562)"><path d="M0 0 C1.99 14.8, 0.27 28.44, 0 50.76 M0 0 C-0.35 18.72, -0.25 35.85, 0 50.76" stroke="#1e1e1e" stroke-width="1" fill="none"></path></g><g transform="translate(521.3534366272609 149.24235026041606) rotate(0 0 25.378799438476562)"><path d="M-8.85 27.38 C-4.35 34.43, -3.56 40.31, 0 50.76 M-8.85 27.38 C-6.17 36.44, -2.97 43.96, 0 50.76" stroke="#1e1e1e" stroke-width="1" fill="none"></path></g><g transform="translate(521.3534366272609 149.24235026041606) rotate(0 0 25.378799438476562)"><path d="M8.25 27.16 C7.9 34.26, 3.85 40.19, 0 50.76 M8.25 27.16 C4.93 36.38, 2.12 43.98, 0 50.76" stroke="#1e1e1e" stroke-width="1" fill="none"></path></g></g><mask></mask><g stroke-linecap="round"><g transform="translate(735.3965275033217 149.24235026041788) rotate(0 0 25.378799438476562)"><path d="M0 0 C1.15 13.03, -0.14 22.03, 0 50.76 M0 0 C0.23 17.3, -1.2 34.1, 0 50.76" stroke="#1e1e1e" stroke-width="1" fill="none"></path></g><g transform="translate(735.3965275033217 149.24235026041788) rotate(0 0 25.378799438476562)"><path d="M-9.31 27.55 C-6.31 34.27, -5.5 37.05, 0 50.76 M-9.31 27.55 C-5.84 35.83, -4.23 43.6, 0 50.76" stroke="#1e1e1e" stroke-width="1" fill="none"></path></g><g transform="translate(735.3965275033217 149.24235026041788) rotate(0 0 25.378799438476562)"><path d="M7.79 27 C6.93 34.01, 3.88 36.91, 0 50.76 M7.79 27 C5.64 35.44, 1.65 43.39, 0 50.76" stroke="#1e1e1e" stroke-width="1" fill="none"></path></g></g><mask></mask><g stroke-linecap="round"><g transform="translate(942.5778593370919 151.51509602864553) rotate(0 0 25.378799438476562)"><path d="M0 0 C-0.33 18.86, -1.65 36.73, 0 50.76 M0 0 C-0.42 16.57, 0.75 31.47, 0 50.76" stroke="#1e1e1e" stroke-width="1" fill="none"></path></g><g transform="translate(942.5778593370919 151.51509602864553) rotate(0 0 25.378799438476562)"><path d="M-8.19 27.14 C-5.48 36.42, -3.94 44.79, 0 50.76 M-8.19 27.14 C-6.28 35.39, -2.58 41.91, 0 50.76" stroke="#1e1e1e" stroke-width="1" fill="none"></path></g><g transform="translate(942.5778593370919 151.51509602864553) rotate(0 0 25.378799438476562)"><path d="M8.91 27.4 C5.63 36.75, 1.18 45.02, 0 50.76 M8.91 27.4 C5.53 35.43, 3.95 41.87, 0 50.76" stroke="#1e1e1e" stroke-width="1" fill="none"></path></g></g><mask></mask><g stroke-linecap="round"><g transform="translate(106.21423222120598 278.7877909342433) rotate(0 0 25.378799438476562)"><path d="M0 0 C-0.5 12.85, 2.32 24.9, 0 50.76 M0 0 C0.5 15.19, -0.51 28.88, 0 50.76" stroke="#1e1e1e" stroke-width="1" fill="none"></path></g><g transform="translate(106.21423222120598 278.7877909342433) rotate(0 0 25.378799438476562)"><path d="M-8.72 27.33 C-7.41 33.83, -2.53 39.44, 0 50.76 M-8.72 27.33 C-5.92 34.82, -4.49 40.84, 0 50.76" stroke="#1e1e1e" stroke-width="1" fill="none"></path></g><g transform="translate(106.21423222120598 278.7877909342433) rotate(0 0 25.378799438476562)"><path d="M8.38 27.2 C5.67 33.57, 6.52 39.21, 0 50.76 M8.38 27.2 C6.38 34.77, 3.01 40.82, 0 50.76" stroke="#1e1e1e" stroke-width="1" fill="none"></path></g></g><mask></mask><g stroke-linecap="round"><g transform="translate(354.6990344673004 278.03019205729015) rotate(0 0 25.378799438476562)"><path d="M0 0 C0.34 20.76, 1.34 41.96, 0 50.76 M0 0 C0.18 15.88, 1.07 30.71, 0 50.76" stroke="#1e1e1e" stroke-width="1" fill="none"></path></g><g transform="translate(354.6990344673004 278.03019205729015) rotate(0 0 25.378799438476562)"><path d="M-7.84 27.02 C-4.63 37.08, -0.53 47.6, 0 50.76 M-7.84 27.02 C-5.4 34.82, -2.15 41.52, 0 50.76" stroke="#1e1e1e" stroke-width="1" fill="none"></path></g><g transform="translate(354.6990344673004 278.03019205729015) rotate(0 0 25.378799438476562)"><path d="M9.26 27.53 C5.7 37.41, 3.04 47.72, 0 50.76 M9.26 27.53 C6.55 35.08, 4.66 41.63, 0 50.76" stroke="#1e1e1e" stroke-width="1" fill="none"></path></g></g><mask></mask><g stroke-linecap="round"><g transform="translate(607.7293282498522 279.5453898111973) rotate(0 0 25.378799438476562)"><path d="M0 0 C-1.6 19.3, 1.04 36.49, 0 50.76 M0 0 C0.09 10.92, -0.82 22.14, 0 50.76" stroke="#1e1e1e" stroke-width="1" fill="none"></path></g><g transform="translate(607.7293282498522 279.5453898111973) rotate(0 0 25.378799438476562)"><path d="M-8.92 27.4 C-7.35 36.8, -1.47 44.03, 0 50.76 M-8.92 27.4 C-6.78 32.34, -5.72 37.52, 0 50.76" stroke="#1e1e1e" stroke-width="1" fill="none"></path></g><g transform="translate(607.7293282498522 279.5453898111973) rotate(0 0 25.378799438476562)"><path d="M8.17 27.13 C3.53 36.52, 3.2 43.85, 0 50.76 M8.17 27.13 C6.54 31.98, 3.82 37.21, 0 50.76" stroke="#1e1e1e" stroke-width="1" fill="none"></path></g></g><mask></mask><g stroke-linecap="round"><g transform="translate(895.6082548449044 278.03024291992097) rotate(0 0 25.378799438476562)"><path d="M0 0 C-0.68 20.67, 0.49 38.57, 0 50.76 M0 0 C-0.1 16.51, 1.09 31.48, 0 50.76" stroke="#1e1e1e" stroke-width="1" fill="none"></path></g><g transform="translate(895.6082548449044 278.03024291992097) rotate(0 0 25.378799438476562)"><path d="M-7.88 27.03 C-5.52 37.26, -1.33 44.77, 0 50.76 M-7.88 27.03 C-5.65 35.31, -2.04 42.01, 0 50.76" stroke="#1e1e1e" stroke-width="1" fill="none"></path></g><g transform="translate(895.6082548449044 278.03024291992097) rotate(0 0 25.378799438476562)"><path d="M9.21 27.52 C5.01 37.68, 2.63 45, 0 50.76 M9.21 27.52 C6.22 35.56, 4.59 42.11, 0 50.76" stroke="#1e1e1e" stroke-width="1" fill="none"></path></g></g><mask></mask><g stroke-linecap="round" transform="translate(38.409067789712935 524.7573954264335) rotate(0 48.86362711588538 26.893946329752453)"><path d="M0 0 C31.06 -1.52, 59.78 -0.11, 97.73 0 M0 0 C28.56 0.24, 56.41 1.32, 97.73 0 M97.73 0 C96.14 17.14, 96.55 33.01, 97.73 53.79 M97.73 0 C97.92 15.44, 98.06 30.01, 97.73 53.79 M97.73 53.79 C61.72 53.34, 23.72 52.06, 0 53.79 M97.73 53.79 C65.9 53.61, 34.9 53.05, 0 53.79 M0 53.79 C-1.2 37.67, -0.04 22.19, 0 0 M0 53.79 C0.08 41.43, 0.84 27.73, 0 0" stroke="#1e1e1e" stroke-width="1" fill="none"></path></g><g transform="translate(71.04070027669206 541.6513417561855) rotate(0 16.23199462890625 10)"><text x="16.23199462890625" y="14.016" font-family="Virgil, Segoe UI Emoji" font-size="16px" fill="#1e1e1e" text-anchor="middle" style="white-space: pre;" direction="ltr" dominant-baseline="alphabetic">ETH</text></g><g stroke-linecap="round" transform="translate(149.0152486165357 524.7573954264335) rotate(0 48.86362711588538 26.893946329752453)"><path d="M0 0 C20.13 -1.52, 39.46 -2.05, 97.73 0 M0 0 C25.26 1.55, 50.94 1.43, 97.73 0 M97.73 0 C96.5 16.67, 96.34 35.93, 97.73 53.79 M97.73 0 C97.8 16.53, 97.6 32.62, 97.73 53.79 M97.73 53.79 C61.15 54.72, 28.19 52.99, 0 53.79 M97.73 53.79 C63.42 52.22, 28.23 53.29, 0 53.79 M0 53.79 C-0.16 33.99, -1.26 15.51, 0 0 M0 53.79 C-0.21 39.82, 0.3 24.6, 0 0" stroke="#1e1e1e" stroke-width="1" fill="none"></path></g><g transform="translate(181.3908920288078 541.6513417561855) rotate(0 16.48798370361328 10)"><text x="16.48798370361328" y="14.016" font-family="Virgil, Segoe UI Emoji" font-size="16px" fill="#1e1e1e" text-anchor="middle" style="white-space: pre;" direction="ltr" dominant-baseline="alphabetic">ARB</text></g><g stroke-linecap="round" transform="translate(259.62142944335847 524.7573954264335) rotate(0 48.86362711588538 26.893946329752453)"><path d="M0 0 C32.75 0.09, 62.76 0.05, 97.73 0 M0 0 C21.1 -0.8, 42.2 -1.24, 97.73 0 M97.73 0 C98.85 12.05, 99.1 25.69, 97.73 53.79 M97.73 0 C97.65 11.67, 97.28 24.34, 97.73 53.79 M97.73 53.79 C76 51.34, 59.1 51.56, 0 53.79 M97.73 53.79 C78.78 52.85, 57.66 52.03, 0 53.79 M0 53.79 C-0.1 32.68, -0.47 11.25, 0 0 M0 53.79 C1.02 40.41, 0.58 25.23, 0 0" stroke="#1e1e1e" stroke-width="1" fill="none"></path></g><g transform="translate(297.38906351725154 541.6513417561855) rotate(0 11.095993041992188 10)"><text x="11.095993041992188" y="14.016" font-family="Virgil, Segoe UI Emoji" font-size="16px" fill="#1e1e1e" text-anchor="middle" style="white-space: pre;" direction="ltr" dominant-baseline="alphabetic">OP</text></g><g stroke-linecap="round" transform="translate(38.40906778971282 591.4240112304697) rotate(0 48.86362711588538 26.893946329752453)"><path d="M0 0 C34.86 -1.4, 70.38 0.36, 97.73 0 M0 0 C32.92 -0.53, 66.05 -0.05, 97.73 0 M97.73 0 C98 14.57, 98.69 31.25, 97.73 53.79 M97.73 0 C98.76 21.69, 97.91 40.76, 97.73 53.79 M97.73 53.79 C73.79 53.34, 53.7 51.72, 0 53.79 M97.73 53.79 C75.19 55.41, 50.98 55.16, 0 53.79 M0 53.79 C0.32 44.33, -0.83 29.82, 0 0 M0 53.79 C-1.16 35.48, -1.23 18.07, 0 0" stroke="#1e1e1e" stroke-width="1" fill="none"></path></g><g transform="translate(58.00871022542242 598.3179575602217) rotate(0 29.26398468017578 20)"><text x="29.26398468017578" y="14.016" font-family="Virgil, Segoe UI Emoji" font-size="16px" fill="#1e1e1e" text-anchor="middle" style="white-space: pre;" direction="ltr" dominant-baseline="alphabetic">Stable </text><text x="29.26398468017578" y="34.016" font-family="Virgil, Segoe UI Emoji" font-size="16px" fill="#1e1e1e" text-anchor="middle" style="white-space: pre;" direction="ltr" dominant-baseline="alphabetic">Coins</text></g><g stroke-linecap="round" transform="translate(149.0152486165356 591.4240112304697) rotate(0 48.86362711588538 26.893946329752453)"><path d="M0 0 C27.26 0.29, 54.49 -1.54, 97.73 0 M0 0 C31.93 -1.6, 64.7 -0.36, 97.73 0 M97.73 0 C99.86 12.9, 96.49 26.98, 97.73 53.79 M97.73 0 C97.09 21.05, 97.56 40.84, 97.73 53.79 M97.73 53.79 C68.38 52.31, 42.88 54.57, 0 53.79 M97.73 53.79 C58.45 54.6, 21.06 54.65, 0 53.79 M0 53.79 C0.79 33.7, 0.91 9.97, 0 0 M0 53.79 C-0.39 40.21, 1.48 27.39, 0 0" stroke="#1e1e1e" stroke-width="1" fill="none"></path></g><g transform="translate(177.44688415527253 608.3179575602217) rotate(0 20.431991577148438 10)"><text x="20.431991577148438" y="14.016" font-family="Virgil, Segoe UI Emoji" font-size="16px" fill="#1e1e1e" text-anchor="middle" style="white-space: pre;" direction="ltr" dominant-baseline="alphabetic">LSTs</text></g><g stroke-linecap="round" transform="translate(259.62142944335835 591.4240112304697) rotate(0 48.863627115885436 26.893946329752453)"><path d="M0 0 C34.09 -1.04, 68.58 0.39, 97.73 0 M0 0 C20.11 0.36, 41.28 0.51, 97.73 0 M97.73 0 C99 17.23, 95.47 32.77, 97.73 53.79 M97.73 0 C97.49 18.5, 96.68 35.06, 97.73 53.79 M97.73 53.79 C73.07 54.64, 46.07 52.8, 0 53.79 M97.73 53.79 C67.9 53.61, 35.55 54.28, 0 53.79 M0 53.79 C-1.37 33.25, -0.74 14.82, 0 0 M0 53.79 C0.4 40.41, -0.79 28.05, 0 0" stroke="#1e1e1e" stroke-width="1" fill="none"></path></g><g transform="translate(290.10906473795467 608.3179575602217) rotate(0 18.375991821289062 10)"><text x="18.375991821289062" y="14.016" font-family="Virgil, Segoe UI Emoji" font-size="16px" fill="#1e1e1e" text-anchor="middle" style="white-space: pre;" direction="ltr" dominant-baseline="alphabetic">More</text></g><g stroke-linecap="round" transform="translate(447.1362711588538 527.0303192138708) rotate(0 48.86362711588538 26.893946329752453)"><path d="M0 0 C18.56 2.69, 40.95 1.34, 97.73 0 M0 0 C28.45 -0.48, 57.25 -1.59, 97.73 0 M97.73 0 C98.96 18.6, 100.18 40.32, 97.73 53.79 M97.73 0 C98.59 13.97, 98.32 28.24, 97.73 53.79 M97.73 53.79 C60.57 51.22, 26.35 52.85, 0 53.79 M97.73 53.79 C64.81 53.91, 33.85 54.06, 0 53.79 M0 53.79 C1.04 37.23, -1.18 17.13, 0 0 M0 53.79 C1 39.54, 0.51 27.11, 0 0" stroke="#1e1e1e" stroke-width="1" fill="none"></path></g><g transform="translate(480.53590138753225 543.9242655436228) rotate(0 15.463996887207031 10)"><text x="15.463996887207031" y="14.016" font-family="Virgil, Segoe UI Emoji" font-size="16px" fill="#1e1e1e" text-anchor="middle" style="white-space: pre;" direction="ltr" dominant-baseline="alphabetic">SOL</text></g><g stroke-linecap="round" transform="translate(557.7424519856768 527.0303192138708) rotate(0 48.86362711588538 26.893946329752453)"><path d="M0 0 C38.49 -2.21, 79.37 -0.11, 97.73 0 M0 0 C34.95 1.51, 68.33 0.98, 97.73 0 M97.73 0 C97.5 10.85, 99.62 24.06, 97.73 53.79 M97.73 0 C98.71 16.36, 97.34 29.99, 97.73 53.79 M97.73 53.79 C77.98 53.62, 57.86 52.11, 0 53.79 M97.73 53.79 C71.12 53.63, 44.82 54.19, 0 53.79 M0 53.79 C-0.62 34.52, 1.7 17.86, 0 0 M0 53.79 C0.3 40.59, 0.77 28.11, 0 0" stroke="#1e1e1e" stroke-width="1" fill="none"></path></g><g transform="translate(588.1260833740232 543.9242655436228) rotate(0 18.479995727539062 10)"><text x="18.479995727539062" y="14.016" font-family="Virgil, Segoe UI Emoji" font-size="16px" fill="#1e1e1e" text-anchor="middle" style="white-space: pre;" direction="ltr" dominant-baseline="alphabetic">DOT</text></g><g stroke-linecap="round" transform="translate(447.13627115885356 593.6969350179061) rotate(0 48.86362711588538 26.893946329752453)"><path d="M0 0 C20.89 0.94, 38.56 1.53, 97.73 0 M0 0 C37.23 0.62, 76.01 -0.74, 97.73 0 M97.73 0 C97.83 16.8, 98.14 32.19, 97.73 53.79 M97.73 0 C96.41 20.96, 97.22 42.67, 97.73 53.79 M97.73 53.79 C68.23 53.79, 39.52 53.55, 0 53.79 M97.73 53.79 C69.4 53.68, 39.29 53.81, 0 53.79 M0 53.79 C-1.66 39.56, 0.67 24.78, 0 0 M0 53.79 C-0.29 40.93, 0.11 26.14, 0 0" stroke="#1e1e1e" stroke-width="1" fill="none"></path></g><g transform="translate(479.26391347249296 610.5908813476581) rotate(0 16.735984802246094 10)"><text x="16.735984802246094" y="14.016" font-family="Virgil, Segoe UI Emoji" font-size="16px" fill="#1e1e1e" text-anchor="middle" style="white-space: pre;" direction="ltr" dominant-baseline="alphabetic">ADA</text></g><g stroke-linecap="round" transform="translate(557.7424519856763 593.6969350179061) rotate(0 48.86362711588538 26.893946329752453)"><path d="M0 0 C36.12 -0.71, 69.37 -2.66, 97.73 0 M0 0 C38.82 1.05, 78.82 0.23, 97.73 0 M97.73 0 C99.62 18.22, 96.05 37.57, 97.73 53.79 M97.73 0 C97.64 15.29, 96.88 29.57, 97.73 53.79 M97.73 53.79 C64.53 55.73, 32.53 55.06, 0 53.79 M97.73 53.79 C74.1 54.02, 51.77 52.68, 0 53.79 M0 53.79 C-1.32 37.5, -0.92 17.77, 0 0 M0 53.79 C-0.74 35.08, 0.51 15.87, 0 0" stroke="#1e1e1e" stroke-width="1" fill="none"></path></g><g transform="translate(585.3900985717767 610.5908813476581) rotate(0 21.215980529785156 10)"><text x="21.215980529785156" y="14.016" font-family="Virgil, Segoe UI Emoji" font-size="16px" fill="#1e1e1e" text-anchor="middle" style="white-space: pre;" direction="ltr" dominant-baseline="alphabetic">NEAR</text></g><g stroke-linecap="round" transform="translate(759.4695536295569 527.5453643798855) rotate(0 48.86362711588538 26.893946329752453)"><path d="M0 0 C27.05 -0.52, 52.64 -0.66, 97.73 0 M0 0 C38.56 -1.3, 77.26 -0.44, 97.73 0 M97.73 0 C97.73 19.2, 98.95 34.55, 97.73 53.79 M97.73 0 C96.87 13.64, 96.86 27.29, 97.73 53.79 M97.73 53.79 C70.53 53.73, 44.13 53.17, 0 53.79 M97.73 53.79 C77.65 52.03, 56.47 53.14, 0 53.79 M0 53.79 C-0.54 37.6, 1.07 20.08, 0 0 M0 53.79 C0.68 38.77, 0.78 22.61, 0 0" stroke="#1e1e1e" stroke-width="1" fill="none"></path></g><g transform="translate(793.3971913655596 544.4393107096375) rotate(0 14.935989379882812 10)"><text x="14.935989379882812" y="14.016" font-family="Virgil, Segoe UI Emoji" font-size="16px" fill="#1e1e1e" text-anchor="middle" style="white-space: pre;" direction="ltr" dominant-baseline="alphabetic">SUI</text></g><g stroke-linecap="round" transform="translate(759.4695536295565 594.2119801839208) rotate(0 48.86362711588538 26.893946329752453)"><path d="M0 0 C31.61 1.93, 61.25 -0.16, 97.73 0 M0 0 C25.67 -0.62, 50.54 -0.41, 97.73 0 M97.73 0 C97.32 20.57, 99.03 40.23, 97.73 53.79 M97.73 0 C97.04 14.27, 96.51 27.14, 97.73 53.79 M97.73 53.79 C63.05 52.24, 30.33 54.35, 0 53.79 M97.73 53.79 C77.51 53.2, 56.22 53.51, 0 53.79 M0 53.79 C-0.4 34.77, 1.14 18.24, 0 0 M0 53.79 C-0.45 35.92, -0.18 15.11, 0 0" stroke="#1e1e1e" stroke-width="1" fill="none"></path></g><g transform="translate(791.3651936848951 611.1059265136728) rotate(0 16.967987060546875 10)"><text x="16.967987060546875" y="14.016" font-family="Virgil, Segoe UI Emoji" font-size="16px" fill="#1e1e1e" text-anchor="middle" style="white-space: pre;" direction="ltr" dominant-baseline="alphabetic">APT</text></g><g stroke-linecap="round" transform="translate(932.3485819498696 527.2726186116552) rotate(0 48.86362711588538 26.893946329752453)"><path d="M0 0 C28.79 -0.04, 56.94 -0.68, 97.73 0 M0 0 C21.25 0.33, 42.41 1.11, 97.73 0 M97.73 0 C97.02 15.55, 99.54 33.67, 97.73 53.79 M97.73 0 C97.26 12.21, 97.13 22.48, 97.73 53.79 M97.73 53.79 C68.64 54.32, 41.84 55.14, 0 53.79 M97.73 53.79 C61.67 52.09, 24.81 52.27, 0 53.79 M0 53.79 C1.46 36.05, 2.14 15.77, 0 0 M0 53.79 C0.21 38.8, 0.89 23.66, 0 0" stroke="#1e1e1e" stroke-width="1" fill="none"></path></g><g transform="translate(961.7962315877278 544.1665649414072) rotate(0 19.415977478027344 10)"><text x="19.415977478027344" y="14.016" font-family="Virgil, Segoe UI Emoji" font-size="16px" fill="#1e1e1e" text-anchor="middle" style="white-space: pre;" direction="ltr" dominant-baseline="alphabetic">AVAX</text></g><g stroke-linecap="round" transform="translate(932.3485819498687 593.9392344156904) rotate(0 48.86362711588538 26.893946329752453)"><path d="M0 0 C29.27 0.64, 61.41 -0.4, 97.73 0 M0 0 C31.18 -0.24, 62.18 -1.48, 97.73 0 M97.73 0 C96.35 14.48, 98.76 24.67, 97.73 53.79 M97.73 0 C96.99 20.94, 97.51 39.96, 97.73 53.79 M97.73 53.79 C68.66 53.87, 34.88 54.83, 0 53.79 M97.73 53.79 C76.58 52.22, 54.92 53.66, 0 53.79 M0 53.79 C-0.97 35.34, -1.87 18.14, 0 0 M0 53.79 C0.56 39.24, -0.46 24.33, 0 0" stroke="#1e1e1e" stroke-width="1" fill="none"></path></g><g transform="translate(964.5722173055003 610.8331807454424) rotate(0 16.639991760253906 10)"><text x="16.639991760253906" y="14.016" font-family="Virgil, Segoe UI Emoji" font-size="16px" fill="#1e1e1e" text-anchor="middle" style="white-space: pre;" direction="ltr" dominant-baseline="alphabetic">TRX</text></g><g stroke-linecap="round" transform="translate(25.151621500650435 471.348403930665) rotate(0 173.1060791015625 95.45455932617233)"><path d="M0 0 C71.21 0.59, 140.84 -0.38, 346.21 0 M0 0 C80.12 0.15, 158.86 -0.72, 346.21 0 M346.21 0 C346.64 74.97, 348.58 146.4, 346.21 190.91 M346.21 0 C343.89 46.54, 343.83 93.16, 346.21 190.91 M346.21 190.91 C272.86 189.89, 197.63 191.86, 0 190.91 M346.21 190.91 C223.57 190.64, 99.43 190.59, 0 190.91 M0 190.91 C0.38 144.55, 2.37 97.74, 0 0 M0 190.91 C2.62 123.75, 1.03 55.21, 0 0" stroke="#1e1e1e" stroke-width="1" fill="none"></path></g><g stroke-linecap="round" transform="translate(430.8484802246087 474.37869771321766) rotate(0 121.96970621744799 94.31818644205714)"><path d="M0 0 C60.22 1.7, 120.68 1.44, 243.94 0 M0 0 C97.07 1.3, 192.84 2.41, 243.94 0 M243.94 0 C244.52 72.35, 242.92 147.48, 243.94 188.64 M243.94 0 C242.98 43.07, 242.98 87.47, 243.94 188.64 M243.94 188.64 C177.94 186.34, 113.17 186.06, 0 188.64 M243.94 188.64 C148.4 187.48, 52.39 186.55, 0 188.64 M0 188.64 C-1.84 144.55, 1.12 96.64, 0 0 M0 188.64 C0.19 129.23, -0.29 71.19, 0 0" stroke="#1e1e1e" stroke-width="1" fill="none"></path></g><g stroke-linecap="round" transform="translate(731.8181864420567 474.8938446044931) rotate(0 76.13632202148438 93.93938700358103)"><path d="M0 0 C57.16 0.1, 114.58 -0.85, 152.27 0 M0 0 C57.51 0.1, 113.19 -1.68, 152.27 0 M152.27 0 C154.21 65.89, 151.25 130.24, 152.27 187.88 M152.27 0 C153.12 57.1, 152.94 114.72, 152.27 187.88 M152.27 187.88 C99.22 187.54, 44.64 189.6, 0 187.88 M152.27 187.88 C111.39 188.24, 71.92 188.79, 0 187.88 M0 187.88 C1.02 120.92, 1.7 57.76, 0 0 M0 187.88 C1.46 118.26, 1 49.48, 0 0" stroke="#1e1e1e" stroke-width="1" fill="none"></path></g><g stroke-linecap="round" transform="translate(909.2424011230462 475.4392344156922) rotate(0 72.34842936197924 93.56063842773392)"><path d="M0 0 C31.48 0.52, 61.48 -2.45, 144.7 0 M0 0 C50.48 -0.29, 100.39 0.28, 144.7 0 M144.7 0 C142.81 49.3, 145.6 103.58, 144.7 187.12 M144.7 0 C145.62 73.05, 145.57 144.7, 144.7 187.12 M144.7 187.12 C90.26 186.66, 38.11 188.14, 0 187.12 M144.7 187.12 C97 186.76, 46.5 187.35, 0 187.12 M0 187.12 C-1.96 138.33, -0.98 87.73, 0 0 M0 187.12 C2.19 144.98, 2.18 100.29, 0 0" stroke="#1e1e1e" stroke-width="1" fill="none"></path></g><g transform="translate(152.96970621744697 485.7423248291034) rotate(0 47.39997863769531 10)"><text x="0" y="14.016" font-family="Virgil, Segoe UI Emoji" font-size="16px" fill="#1e1e1e" text-anchor="start" style="white-space: pre;" direction="ltr" dominant-baseline="alphabetic">ETH/ERC20</text></g><g transform="translate(480.418055216471 486.3484547932949) rotate(0 69.2719497680664 10)"><text x="0" y="14.016" font-family="Virgil, Segoe UI Emoji" font-size="16px" fill="#1e1e1e" text-anchor="start" style="white-space: pre;" direction="ltr" dominant-baseline="alphabetic">Non-ERC20-WASM</text></g><g transform="translate(740.0572331746412 486.2878163655605) rotate(0 66.1839599609375 10)"><text x="0" y="14.016" font-family="Virgil, Segoe UI Emoji" font-size="16px" fill="#1e1e1e" text-anchor="start" style="white-space: pre;" direction="ltr" dominant-baseline="alphabetic">Non-ERC20-Move</text></g><g transform="translate(916.5088500976558 487.106002807619) rotate(0 62.71995544433594 10)"><text x="0" y="14.016" font-family="Virgil, Segoe UI Emoji" font-size="16px" fill="#1e1e1e" text-anchor="start" style="white-space: pre;" direction="ltr" dominant-baseline="alphabetic">Non-ERC20-EVM</text></g><g stroke-linecap="round"><g transform="translate(106.58015388579872 409.09088134765807) rotate(0 0 25.378799438476562)"><path d="M0 0 C-1.49 19.69, 1.66 40.11, 0 50.76 M0 0 C0.54 14.05, 0.33 28, 0 50.76" stroke="#1e1e1e" stroke-width="1" fill="none"></path></g><g transform="translate(106.58015388579872 409.09088134765807) rotate(0 0 25.378799438476562)"><path d="M-8.24 27.15 C-6.39 36.27, -0.05 46.16, 0 50.76 M-8.24 27.15 C-5.38 33.51, -3.26 39.79, 0 50.76" stroke="#1e1e1e" stroke-width="1" fill="none"></path></g><g transform="translate(106.58015388579872 409.09088134765807) rotate(0 0 25.378799438476562)"><path d="M8.86 27.38 C4.08 36.5, 3.79 46.3, 0 50.76 M8.86 27.38 C6.89 33.7, 4.17 39.91, 0 50.76" stroke="#1e1e1e" stroke-width="1" fill="none"></path></g></g><mask></mask><g stroke-linecap="round"><g transform="translate(606.9272643431741 412.12122599283884) rotate(0 0 25.378799438476562)"><path d="M0 0 C0.91 16.11, 1.95 30.78, 0 50.76 M0 0 C0.64 18.83, 0.1 36.02, 0 50.76" stroke="#1e1e1e" stroke-width="1" fill="none"></path></g><g transform="translate(606.9272643431741 412.12122599283884) rotate(0 0 25.378799438476562)"><path d="M-8.27 27.17 C-4.96 34.51, -1.25 40.41, 0 50.76 M-8.27 27.17 C-4.87 36.04, -2.39 43.32, 0 50.76" stroke="#1e1e1e" stroke-width="1" fill="none"></path></g><g transform="translate(606.9272643431741 412.12122599283884) rotate(0 0 25.378799438476562)"><path d="M8.83 27.37 C6.62 34.66, 4.82 40.5, 0 50.76 M8.83 27.37 C6 36.29, 2.24 43.51, 0 50.76" stroke="#1e1e1e" stroke-width="1" fill="none"></path></g></g><mask></mask><g stroke-linecap="round"><g transform="translate(807.1738867267786 413.6363728841152) rotate(0 0 25.378799438476562)"><path d="M0 0 C1.56 18.4, 0.63 37.54, 0 50.76 M0 0 C1.27 11.57, 0.26 21.93, 0 50.76" stroke="#1e1e1e" stroke-width="1" fill="none"></path></g><g transform="translate(807.1738867267786 413.6363728841152) rotate(0 0 25.378799438476562)"><path d="M-8.16 27.13 C-3.84 35.79, -1.81 45.13, 0 50.76 M-8.16 27.13 C-5.39 32.83, -4.65 37.36, 0 50.76" stroke="#1e1e1e" stroke-width="1" fill="none"></path></g><g transform="translate(807.1738867267786 413.6363728841152) rotate(0 0 25.378799438476562)"><path d="M8.94 27.41 C7.08 35.84, 2.93 45.08, 0 50.76 M8.94 27.41 C8.03 33.12, 5.09 37.59, 0 50.76" stroke="#1e1e1e" stroke-width="1" fill="none"></path></g></g><mask></mask><g stroke-linecap="round"><g transform="translate(975.4815074133617 415.15151977539153) rotate(0 0 25.378799438476562)"><path d="M0 0 C-0.93 10.84, 1.21 23.95, 0 50.76 M0 0 C0.01 14.97, 0.07 30.6, 0 50.76" stroke="#1e1e1e" stroke-width="1" fill="none"></path></g><g transform="translate(975.4815074133617 415.15151977539153) rotate(0 0 25.378799438476562)"><path d="M-8.5 27.25 C-7.36 32.05, -3.36 39.2, 0 50.76 M-8.5 27.25 C-6.08 33.79, -3.38 40.98, 0 50.76" stroke="#1e1e1e" stroke-width="1" fill="none"></path></g><g transform="translate(975.4815074133617 415.15151977539153) rotate(0 0 25.378799438476562)"><path d="M8.6 27.28 C6 32.23, 6.26 39.38, 0 50.76 M8.6 27.28 C5.73 33.81, 3.13 40.99, 0 50.76" stroke="#1e1e1e" stroke-width="1" fill="none"></path></g></g><mask></mask><g stroke-linecap="round" transform="translate(10 45.07578531900981) rotate(0 524.6211751302084 123.1060663859048)"><path d="M0 0 C354.5 1.28, 710.8 1.29, 1049.24 0 M1049.24 0 C1048.87 92.39, 1049.2 186.18, 1049.24 246.21 M1049.24 246.21 C648.28 245.17, 249.37 245.77, 0 246.21 M0 246.21 C-1.1 177.45, 1.57 107.64, 0 0" stroke="#1e1e1e" stroke-width="1.5" fill="none" stroke-dasharray="1.5 7"></path></g><g stroke-linecap="round" transform="translate(11.515146891275435 445.8333587646475) rotate(0 528.7878163655602 115.9090932210288)"><path d="M0 0 C273.73 2.86, 545.36 3.26, 1057.58 0 M1057.58 0 C1055.26 85.92, 1055.22 170.53, 1057.58 231.82 M1057.58 231.82 C701.24 234.4, 343.81 234.8, 0 231.82 M0 231.82 C1.83 160.19, 0.02 86.34, 0 0" stroke="#1e1e1e" stroke-width="1.5" fill="none" stroke-dasharray="1.5 7"></path></g><g transform="translate(15.30303955078125 10) rotate(0 61.05995178222656 12.5)"><text x="0" y="17.52" font-family="Virgil, Segoe UI Emoji" font-size="20px" fill="#1e1e1e" text-anchor="start" style="white-space: pre;" direction="ltr" dominant-baseline="alphabetic">Demand Side</text></g><g transform="translate(14.09151713053393 696.9696553548174) rotate(0 53.36994171142578 12.5)"><text x="0" y="17.52" font-family="Virgil, Segoe UI Emoji" font-size="20px" fill="#1e1e1e" text-anchor="start" style="white-space: pre;" direction="ltr" dominant-baseline="alphabetic">Supply Side</text></g></svg>