<svg version="1.1" xmlns="http://www.w3.org/2000/svg" viewBox="0 0 2693.3178364106598 1103.795326919148" width="2693.3178364106598" height="1103.795326919148">
  <!-- svg-source:excalidraw -->
  
  <defs>
    <style class="style-fonts">
      @font-face {
        font-family: "Virgil";
        src: url("https://excalidraw.com/Virgil.woff2");
      }
      @font-face {
        font-family: "Cascadia";
        src: url("https://excalidraw.com/Cascadia.woff2");
      }
      @font-face {
        font-family: "Assistant";
        src: url("https://app.excalidraw.com//dist/excalidraw-assets/Assistant-Regular.woff2");
      }
    </style>
    
  </defs>
  <rect x="0" y="0" width="2693.3178364106598" height="1103.795326919148" fill="#ffffff"></rect><g mask="url(#mask-gM6wpspkTvfcFS9wJM7Yt)" stroke-linecap="round"><g transform="translate(692.4954738052757 1075.49073013224) rotate(0 616.0557683140182 -1.4982038067666963)"><path d="M-1.38 -1.89 C204.1 -2.22, 1027.8 -1.68, 1233.49 -2.49 M3.07 3.25 C208.06 2.22, 1026.37 -4.92, 1230.89 -6.25" stroke="#1e1e1e" stroke-width="2" fill="none"></path></g><g transform="translate(692.4954738052757 1075.49073013224) rotate(0 616.0557683140182 -1.4982038067666963)"><path d="M-2.57 -2.53 L12.67 -7.82 L13.53 2.79 L-3.11 0.01" stroke="none" stroke-width="0" fill="#1e1e1e" fill-rule="evenodd"></path><path d="M-2.39 -2.25 C4.25 -4.61, 6.35 -4.53, 13.42 -7.96 M-1.9 -2.34 C3.42 -4.85, 9.28 -5.95, 12.24 -8.04 M11.27 -7.75 C13.14 -2.57, 13.25 0.13, 11.71 4.24 M11.8 -8.56 C11.95 -6.01, 12.41 -3.55, 11.77 4.65 M13.11 3.24 C8.54 3.1, 4.45 -0.23, -0.08 -3.26 M11.7 4.13 C8.03 2.46, 4.48 0.55, -0.8 -2.63 M-1.38 -1.89 C-1.38 -1.89, -1.38 -1.89, -1.38 -1.89 M-1.38 -1.89 C-1.38 -1.89, -1.38 -1.89, -1.38 -1.89" stroke="#1e1e1e" stroke-width="2" fill="none"></path></g></g><mask id="mask-gM6wpspkTvfcFS9wJM7Yt"><rect x="0" y="0" fill="#fff" width="2026.6482275093451" height="1180.2815365584252"></rect><rect x="1212.5406006573103" y="1052.395326919148" fill="#000" width="194.0625" height="41.4" opacity="1"></rect></mask><g transform="translate(1212.54060065731 1052.395326919148) rotate(0 96.01064146198348 21.597199406325444)"><text x="97.03125" y="33.120703125" font-family="Helvetica, Segoe UI Emoji" font-size="36px" fill="#1e1e1e" text-anchor="middle" style="white-space: pre;" direction="ltr" dominant-baseline="alphabetic">Money Flow</text></g><g stroke-linecap="round" transform="translate(1922.247244166193 320.4284529872625) rotate(0 201.99994405110704 318.6666679382322)"><path d="M7.86 8.16 C7.86 8.16, 7.86 8.16, 7.86 8.16 M7.86 8.16 C7.86 8.16, 7.86 8.16, 7.86 8.16 M0.26 41.3 C12.85 26.71, 25.02 14.13, 36.34 -0.21 M0.26 41.3 C8.23 32.76, 14.53 25.68, 36.34 -0.21 M0.52 65.38 C17.27 48.12, 32.1 29.21, 57.6 -0.28 M0.52 65.38 C17.58 44.88, 35.09 23.91, 57.6 -0.28 M0.13 90.22 C23.9 66.47, 45.1 37.21, 78.2 0.41 M0.13 90.22 C19.61 67.73, 39.58 46.03, 78.2 0.41 M0.4 114.3 C22.18 91.99, 39.84 67.15, 99.46 0.34 M0.4 114.3 C37.07 71.05, 75.44 27.31, 99.46 0.34 M0.01 139.13 C36.64 95.36, 76.36 50.86, 120.72 0.27 M0.01 139.13 C42.54 92.09, 82.76 45.32, 120.72 0.27 M0.27 163.22 C44.59 110.41, 92.52 59.36, 141.98 0.2 M0.27 163.22 C57.65 100.74, 113.07 35.47, 141.98 0.2 M0.54 187.3 C53.78 126.17, 106.29 66.23, 163.24 0.13 M0.54 187.3 C62.13 119.12, 122.31 50.38, 163.24 0.13 M0.15 212.13 C49.65 157.63, 101.24 99.96, 184.5 0.06 M0.15 212.13 C38.2 168.28, 74.58 126.59, 184.5 0.06 M0.42 236.22 C63.29 165.58, 123.68 96.28, 205.76 -0.01 M0.42 236.22 C63.21 165.86, 124.85 94.11, 205.76 -0.01 M0.03 261.05 C49.24 203.73, 98.06 146.56, 227.02 -0.08 M0.03 261.05 C60.78 190.73, 122.43 119.18, 227.02 -0.08 M0.29 285.13 C58.24 220.41, 113.24 156.31, 248.28 -0.15 M0.29 285.13 C73.02 201.28, 146.54 117.59, 248.28 -0.15 M-0.1 309.97 C103.38 188.53, 205.42 69.29, 269.54 -0.22 M-0.1 309.97 C58.78 240.17, 118.71 169.81, 269.54 -0.22 M0.17 334.05 C109.93 210.67, 216.81 86.63, 290.8 -0.28 M0.17 334.05 C113.47 204.23, 227.45 72.61, 290.8 -0.28 M0.44 358.13 C100.11 242.73, 199.23 128.39, 311.41 0.4 M0.44 358.13 C95.01 251.85, 189.09 143.9, 311.41 0.4 M0.05 382.97 C130.1 234.27, 261.22 83.63, 332.67 0.33 M0.05 382.97 C75.5 297.85, 149.42 213.01, 332.67 0.33 M0.31 407.05 C74.26 321.44, 150.42 235.54, 353.93 0.26 M0.31 407.05 C102.06 288.54, 204.64 170.07, 353.93 0.26 M-0.08 431.89 C90.37 329.75, 178.23 226.78, 374.53 0.95 M-0.08 431.89 C113.46 302.39, 225.96 172.49, 374.53 0.95 M0.19 455.97 C154.05 277.72, 307.55 99.81, 391.86 5.41 M0.19 455.97 C81.25 359.85, 162.88 264.84, 391.86 5.41 M0.46 480.05 C95.57 368.06, 194.12 255.88, 401.96 18.17 M0.46 480.05 C130.61 329.42, 262.43 178.2, 401.96 18.17 M0.07 504.89 C92.3 397.39, 184.48 291.46, 404.2 39.99 M0.07 504.89 C87.11 402.71, 175.35 300.95, 404.2 39.99 M0.33 528.97 C94.31 420.23, 188.89 311.14, 404.46 64.07 M0.33 528.97 C118.08 393.94, 235.82 258.4, 404.46 64.07 M-0.06 553.81 C92.16 447.07, 183.51 342.21, 404.08 88.9 M-0.06 553.81 C122.66 411.39, 245.64 268.69, 404.08 88.9 M0.21 577.89 C89.31 474.61, 180.8 369.41, 404.34 112.99 M0.21 577.89 C147.25 410.9, 292.86 242.45, 404.34 112.99 M0.48 601.97 C134.81 444.23, 270.7 288.06, 404.61 137.07 M0.48 601.97 C81.1 509.65, 162.06 416.42, 404.61 137.07 M4.02 622.28 C133.24 475.39, 262.34 328.17, 404.22 161.9 M4.02 622.28 C163.14 439.32, 322.94 254.84, 404.22 161.9 M14.79 634.28 C108.63 526.65, 201.13 419.03, 404.48 185.99 M14.79 634.28 C118.08 513.09, 223.24 393.16, 404.48 185.99 M33.42 637.23 C111.83 547.09, 190.75 457.31, 404.09 210.82 M33.42 637.23 C125.14 532.22, 217.07 426.52, 404.09 210.82 M54.68 637.16 C146.81 531.86, 239.26 426.34, 404.36 234.9 M54.68 637.16 C126.69 554.29, 199.28 470.61, 404.36 234.9 M75.94 637.1 C167.03 532.76, 259.3 426.86, 403.97 259.74 M75.94 637.1 C155.9 548.02, 233.73 458.41, 403.97 259.74 M97.2 637.03 C180.34 543.68, 262.12 447.79, 404.24 283.82 M97.2 637.03 C205.11 512.65, 313.68 386.92, 404.24 283.82 M117.81 637.71 C204.44 538.97, 289.76 440.63, 404.5 307.9 M117.81 637.71 C199.07 541.8, 281.97 446.91, 404.5 307.9 M139.07 637.64 C235.93 527.78, 331.58 417.02, 404.11 332.74 M139.07 637.64 C239.51 521.55, 340.14 405.35, 404.11 332.74 M160.33 637.57 C240.1 545.25, 321.01 453.74, 404.38 356.82 M160.33 637.57 C257.63 526.26, 354.49 414.5, 404.38 356.82 M181.59 637.51 C267.2 539.27, 351.51 441.97, 403.99 381.66 M181.59 637.51 C270.34 536.55, 357.69 434.46, 403.99 381.66 M202.85 637.44 C245.97 589.79, 287.64 540.43, 404.26 405.74 M202.85 637.44 C274.63 555.64, 345.5 473.16, 404.26 405.74 M224.11 637.37 C263.07 594.52, 302.91 549.88, 404.52 429.82 M224.11 637.37 C267.71 586.8, 311 535.61, 404.52 429.82 M245.37 637.3 C291.23 586.14, 337.44 531.25, 404.13 454.66 M245.37 637.3 C283.07 595.89, 319.67 553.46, 404.13 454.66 M266.63 637.23 C301.7 596.06, 339.05 551.04, 404.4 478.74 M266.63 637.23 C320.13 573.81, 376.36 510.95, 404.4 478.74 M287.89 637.16 C321.48 598.25, 356.63 557.58, 404.01 503.58 M287.89 637.16 C322.35 597.61, 356.79 559.09, 404.01 503.58 M309.15 637.09 C331.86 612.88, 349.53 591.31, 404.28 527.66 M309.15 637.09 C335.05 606.84, 362.42 576.76, 404.28 527.66 M330.41 637.02 C346.99 619.52, 362.74 598.7, 404.54 551.74 M330.41 637.02 C351.76 612.8, 372.04 589.14, 404.54 551.74 M351.01 637.71 C365.26 624.01, 376.43 606.99, 404.15 576.58 M351.01 637.71 C369.27 617.08, 387.59 595.56, 404.15 576.58 M372.27 637.64 C381.04 627.15, 392.92 615.71, 404.42 600.66 M372.27 637.64 C384.23 624.16, 394.45 613.08, 404.42 600.66" stroke="#a5d8ff" stroke-width="2" fill="none"></path><path d="M32 0 C167.65 1.34, 302.78 -0.25, 372 0 M372 0 C393.03 1.24, 405.86 11.58, 404 32 M404 32 C403.81 249.3, 404.44 465.21, 404 605.33 M404 605.33 C402.38 626, 394.67 636.16, 372 637.33 M372 637.33 C288.02 634.66, 205.41 635.43, 32 637.33 M32 637.33 C11.38 638.52, 0.8 625.04, 0 605.33 M0 605.33 C-1.67 482.7, -1.88 362.06, 0 32 M0 32 C-1.21 8.69, 12.39 1.05, 32 0" stroke="#1971c2" stroke-width="4.5" fill="none" stroke-dasharray="1.5 10"></path></g><g stroke-linecap="round" transform="translate(59.24510573551504 542.7126375267335) rotate(0 60.09375 22.134765625)"><path d="M11.07 0 C35.65 1.19, 60.91 -0.27, 109.12 0 M11.07 0 C34.42 -0.5, 58.05 -0.49, 109.12 0 M109.12 0 C114.9 0.96, 121.23 5.56, 120.19 11.07 M109.12 0 C115.61 -0.78, 119.96 5.87, 120.19 11.07 M120.19 11.07 C120.59 17.76, 122.34 20.99, 120.19 33.2 M120.19 11.07 C120.09 17, 120.06 23.88, 120.19 33.2 M120.19 33.2 C122.12 39.48, 115.06 42.68, 109.12 44.27 M120.19 33.2 C118.36 39.7, 115.07 43.86, 109.12 44.27 M109.12 44.27 C77.08 45.29, 50.49 45.61, 11.07 44.27 M109.12 44.27 C87.49 44.22, 64.17 44.61, 11.07 44.27 M11.07 44.27 C4.39 43.98, -1.56 39.63, 0 33.2 M11.07 44.27 C3.86 42.1, -0.46 40.39, 0 33.2 M0 33.2 C1 23.21, 1.15 17.42, 0 11.07 M0 33.2 C-0.88 25.59, 0.92 19.64, 0 11.07 M0 11.07 C-0.18 4.37, 4.62 -1.13, 11.07 0 M0 11.07 C0.55 2.72, 4.63 -2.19, 11.07 0" stroke="#1e1e1e" stroke-width="2" fill="none"></path></g><g transform="translate(78.58888625309316 552.3474031517335) rotate(0 40.749969482421875 12.5)"><text x="40.749969482421875" y="17.52" font-family="Virgil, Segoe UI Emoji" font-size="20px" fill="#1e1e1e" text-anchor="middle" style="white-space: pre;" direction="ltr" dominant-baseline="alphabetic">Staker 1</text></g><g stroke-linecap="round" transform="translate(57.653167698338166 719.7540620652967) rotate(0 60.09375 22.134765625)"><path d="M11.07 0 C34.52 -1.29, 53.56 -0.71, 109.12 0 M11.07 0 C49.46 -0.66, 89.26 0.22, 109.12 0 M109.12 0 C116.06 -0.25, 119.39 3.27, 120.19 11.07 M109.12 0 C116.49 -0.98, 120.09 3.9, 120.19 11.07 M120.19 11.07 C118.48 18.25, 119.3 27.39, 120.19 33.2 M120.19 11.07 C119.63 16.34, 120.99 24.35, 120.19 33.2 M120.19 33.2 C122.09 39.16, 115.4 45.23, 109.12 44.27 M120.19 33.2 C122.13 39.39, 116.48 43.97, 109.12 44.27 M109.12 44.27 C75.34 43.66, 41.56 43.1, 11.07 44.27 M109.12 44.27 C79.74 43.81, 51.3 43.88, 11.07 44.27 M11.07 44.27 C5.57 44.73, 0.11 42.47, 0 33.2 M11.07 44.27 C1.69 43.19, 2.15 42.26, 0 33.2 M0 33.2 C-1.2 27.24, -0.92 21.14, 0 11.07 M0 33.2 C0.68 29.62, -0.52 23.6, 0 11.07 M0 11.07 C-1.21 5.52, 3.72 -1.18, 11.07 0 M0 11.07 C-0.55 3.92, 4.44 0.84, 11.07 0" stroke="#1e1e1e" stroke-width="2" fill="none"></path></g><g transform="translate(72.58695218320145 729.3888276902967) rotate(0 45.15996551513672 12.5)"><text x="45.15996551513672" y="17.52" font-family="Virgil, Segoe UI Emoji" font-size="20px" fill="#1e1e1e" text-anchor="middle" style="white-space: pre;" direction="ltr" dominant-baseline="alphabetic">Staker 2</text></g><g mask="url(#mask-0HrQribHW1eXFrrXhQGjd)" stroke-linecap="round"><g transform="translate(183.2406463360336 738.6974933892261) rotate(0 104.24462826886234 -67.94970433846538)"><path d="M-0.27 2.66 C34.7 -20.28, 173.77 -114.7, 208.76 -138.56" stroke="#1e1e1e" stroke-width="2.5" fill="none" stroke-dasharray="8 10"></path></g><g transform="translate(183.2406463360336 738.6974933892261) rotate(0 104.24462826886234 -67.94970433846538)"><path d="M16.32 -18.88 C12.1 -12.94, 6.9 -5.5, 1.71 2.22" stroke="#1e1e1e" stroke-width="2.5" fill="none"></path></g><g transform="translate(183.2406463360336 738.6974933892261) rotate(0 104.24462826886234 -67.94970433846538)"><path d="M25.88 -4.7 C19.21 -2.47, 11.51 1.26, 1.71 2.22" stroke="#1e1e1e" stroke-width="2.5" fill="none"></path></g><g transform="translate(183.2406463360336 738.6974933892261) rotate(0 104.24462826886234 -67.94970433846538)"><path d="M196.04 -119.6 C199.61 -124.2, 202.07 -127.34, 210.75 -138.99" stroke="#1e1e1e" stroke-width="2.5" fill="none"></path></g><g transform="translate(183.2406463360336 738.6974933892261) rotate(0 104.24462826886234 -67.94970433846538)"><path d="M186.42 -133.74 C192.46 -134.64, 197.43 -134.09, 210.75 -138.99" stroke="#1e1e1e" stroke-width="2.5" fill="none"></path></g></g><mask id="mask-0HrQribHW1eXFrrXhQGjd"><rect x="0" y="0" fill="#fff" width="493.85119170901555" height="979.4635353614249"></rect><rect x="222.40822371002457" y="656.8144724031267" fill="#000" width="132.275390625" height="23" opacity="1"></rect></mask><g transform="translate(222.40822371002457 656.8144724031267) rotate(0 65.07705089487136 13.933316647634001)"><text x="66.1376953125" y="18.400390625" font-family="Helvetica, Segoe UI Emoji" font-size="20px" fill="#1e1e1e" text-anchor="middle" style="white-space: pre;" direction="ltr" dominant-baseline="alphabetic">stake/withdraw</text></g><g stroke-linecap="round" transform="translate(404.5435495040458 562.1443040093304) rotate(0 87.60936753531907 30.336112098257445)"><path d="M15.17 0 C49.3 1.98, 84.96 0.03, 160.05 0 M15.17 0 C56.78 -0.12, 98.37 0.4, 160.05 0 M160.05 0 C172.1 -1.1, 173.78 3.47, 175.22 15.17 M160.05 0 C168.33 -0.88, 173.79 4.65, 175.22 15.17 M175.22 15.17 C173 26.06, 176.51 35.7, 175.22 45.5 M175.22 15.17 C175.9 21.6, 175.05 28.94, 175.22 45.5 M175.22 45.5 C175.92 55.33, 168.61 59.72, 160.05 60.67 M175.22 45.5 C175.39 53.44, 169.7 60.49, 160.05 60.67 M160.05 60.67 C103.03 58.42, 45.34 61.46, 15.17 60.67 M160.05 60.67 C112.41 61.57, 67.44 62.77, 15.17 60.67 M15.17 60.67 C4.88 61.36, 0.93 54.49, 0 45.5 M15.17 60.67 C5.61 59.7, 0.94 53.43, 0 45.5 M0 45.5 C1.89 32.92, -1.08 20.39, 0 15.17 M0 45.5 C-0.25 33.73, 0.32 22.12, 0 15.17 M0 15.17 C-1.62 5.17, 6.8 1.41, 15.17 0 M0 15.17 C-1.74 4.45, 6.84 -0.7, 15.17 0" stroke="#1e1e1e" stroke-width="2" fill="none"></path></g><g transform="translate(421.8229686140719 579.9804161075881) rotate(0 70.32994842529297 12.5)"><text x="70.32994842529297" y="17.52" font-family="Virgil, Segoe UI Emoji" font-size="20px" fill="#1e1e1e" text-anchor="middle" style="white-space: pre;" direction="ltr" dominant-baseline="alphabetic">On-chain Vault</text></g><g stroke-linecap="round"><g transform="translate(488.61721655367325 674.3943787996691) rotate(359.581824153506 0.3350785145751729 -24.78157473894862)"><path d="M-0.26 -0.15 C-0.26 -8.59, 0.65 -41.16, 0.93 -49.41" stroke="#1e1e1e" stroke-width="2.5" fill="none" stroke-dasharray="8 10"></path></g><g transform="translate(488.61721655367325 674.3943787996691) rotate(359.581824153506 0.3350785145751729 -24.78157473894862)"><path d="M8.39 -26.86 C5.09 -34.87, 1.76 -43.72, 1.12 -47.48" stroke="#1e1e1e" stroke-width="2.5" fill="none"></path></g><g transform="translate(488.61721655367325 674.3943787996691) rotate(359.581824153506 0.3350785145751729 -24.78157473894862)"><path d="M-8.42 -27.37 C-5.4 -35.14, -2.4 -43.81, 1.12 -47.48" stroke="#1e1e1e" stroke-width="2.5" fill="none"></path></g></g><mask></mask><g transform="translate(381.4728740147001 254.85452972583607) rotate(0 102.42395782470703 20.652021830619788)"><text x="0" y="28.945873797796615" font-family="Virgil, Segoe UI Emoji" font-size="33.043234928991566px" fill="#1e1e1e" text-anchor="start" style="white-space: pre;" direction="ltr" dominant-baseline="alphabetic">Source Chain</text></g><g stroke-linecap="round" transform="translate(400.80728420040236 675.3701033481038) rotate(0 87.60936753531907 30.336112098257445)"><path d="M15.17 0 C51.99 -0.08, 90.7 1.94, 160.05 0 M15.17 0 C49.83 0.77, 85.47 0.97, 160.05 0 M160.05 0 C170.3 -1.81, 174.07 3.11, 175.22 15.17 M160.05 0 C171.98 1.8, 177.41 3.43, 175.22 15.17 M175.22 15.17 C174.33 22.59, 175.1 30.74, 175.22 45.5 M175.22 15.17 C175.06 22.88, 174.78 32.41, 175.22 45.5 M175.22 45.5 C177.2 53.86, 168.65 61.48, 160.05 60.67 M175.22 45.5 C173.89 56.71, 172.33 61.2, 160.05 60.67 M160.05 60.67 C114.85 61.28, 72.98 59.23, 15.17 60.67 M160.05 60.67 C111.88 59.43, 63.63 58.9, 15.17 60.67 M15.17 60.67 C6.93 60.78, 1.78 57.52, 0 45.5 M15.17 60.67 C4.33 59.45, -1.4 57.72, 0 45.5 M0 45.5 C0.38 37.01, 0.91 25.59, 0 15.17 M0 45.5 C-1.02 35.96, 0.51 26.64, 0 15.17 M0 15.17 C1.69 5.98, 3.06 0.97, 15.17 0 M0 15.17 C-1.68 7.28, 3.66 -2.02, 15.17 0" stroke="#1e1e1e" stroke-width="2" fill="none"></path></g><g transform="translate(441.2466993431433 693.2062154463615) rotate(0 47.169952392578125 12.5)"><text x="47.169952392578125" y="17.52" font-family="Virgil, Segoe UI Emoji" font-size="20px" fill="#1e1e1e" text-anchor="middle" style="white-space: pre;" direction="ltr" dominant-baseline="alphabetic">Controller</text></g><g stroke-linecap="round" transform="translate(344.41386410947086 324.5558402228485) rotate(0 142.66667683919275 326.33346875508664)"><path d="M32 0 C96.49 -3.1, 161.51 -3.23, 253.33 0 M32 0 C89.97 -0.45, 147.32 -0.5, 253.33 0 M253.33 0 C276.25 1.57, 287.24 9.25, 285.33 32 M253.33 0 C273.4 1.1, 287.27 9.48, 285.33 32 M285.33 32 C284.91 207.62, 284.65 384.54, 285.33 620.67 M285.33 32 C285.26 152.63, 284.56 274.12, 285.33 620.67 M285.33 620.67 C284.18 642.95, 276.55 653.12, 253.33 652.67 M285.33 620.67 C285.46 644.17, 272.67 651.59, 253.33 652.67 M253.33 652.67 C166.85 653.3, 78.22 652.91, 32 652.67 M253.33 652.67 C197.06 650.89, 139.93 651.67, 32 652.67 M32 652.67 C10.04 651.6, -1.21 643.83, 0 620.67 M32 652.67 C10.7 651.31, -0.55 642.23, 0 620.67 M0 620.67 C-0.81 425.58, -0.3 228.5, 0 32 M0 620.67 C-1.49 459.82, -2.22 298.8, 0 32 M0 32 C-1.46 12.6, 9.45 -1.76, 32 0 M0 32 C-1.94 11.5, 9.84 -1.05, 32 0" stroke="#1e1e1e" stroke-width="2" fill="none"></path></g><g mask="url(#mask-53z3ttM_a3CzJICH_qosp)" stroke-linecap="round"><g transform="translate(190.0357335242485 560.2260772139493) rotate(0 104.63022196870479 18.774597280499393)"><path d="M-2.02 -2.22 C32.75 4.66, 175.65 32.68, 211.28 39.77" stroke="#1e1e1e" stroke-width="2.5" fill="none" stroke-dasharray="8 10"></path></g><g transform="translate(190.0357335242485 560.2260772139493) rotate(0 104.63022196870479 18.774597280499393)"><path d="M21.1 -7.67 C12.1 -5.97, 2.71 -3.06, -3.83 -3.37" stroke="#1e1e1e" stroke-width="2.5" fill="none"></path></g><g transform="translate(190.0357335242485 560.2260772139493) rotate(0 104.63022196870479 18.774597280499393)"><path d="M17.8 9.11 C10.2 4.18, 2.12 0.43, -3.83 -3.37" stroke="#1e1e1e" stroke-width="2.5" fill="none"></path></g><g transform="translate(190.0357335242485 560.2260772139493) rotate(0 104.63022196870479 18.774597280499393)"><path d="M184.99 42.02 C195.63 41.03, 205.84 40.88, 209.46 38.63" stroke="#1e1e1e" stroke-width="2.5" fill="none"></path></g><g transform="translate(190.0357335242485 560.2260772139493) rotate(0 104.63022196870479 18.774597280499393)"><path d="M188.3 25.24 C197.53 30.88, 206.43 37.39, 209.46 38.63" stroke="#1e1e1e" stroke-width="2.5" fill="none"></path></g></g><mask id="mask-53z3ttM_a3CzJICH_qosp"><rect x="0" y="0" fill="#fff" width="503.5435495040458" height="701.0711298727697"></rect><rect x="230.65194620164715" y="569.1486035433595" fill="#000" width="132.275390625" height="23" opacity="1"></rect></mask><g transform="translate(230.65194620164715 569.1486035433595) rotate(0 64.01400929130615 9.852070951089217)"><text x="66.1376953125" y="18.400390625" font-family="Helvetica, Segoe UI Emoji" font-size="20px" fill="#1e1e1e" text-anchor="middle" style="white-space: pre;" direction="ltr" dominant-baseline="alphabetic">stake/withdraw</text></g><g stroke-linecap="round" transform="translate(916.4136403138979 331.8891010769339) rotate(0 178.0000050862633 318.6666679382322)"><path d="M32 0 C144.04 0.53, 256.26 -1.15, 324 0 M32 0 C105.62 2, 180.28 1.4, 324 0 M324 0 C343.82 0.81, 354.85 11.62, 356 32 M324 0 C347.5 0.52, 356.13 12.84, 356 32 M356 32 C355.51 154.08, 355.2 276.67, 356 605.33 M356 32 C356.71 171.28, 356.93 311.33, 356 605.33 M356 605.33 C357.78 628.57, 344.7 636.27, 324 637.33 M356 605.33 C354.6 628.77, 345.37 635.98, 324 637.33 M324 637.33 C243.99 636.83, 162.97 639.35, 32 637.33 M324 637.33 C216.37 636.53, 108.22 637.1, 32 637.33 M32 637.33 C8.67 638.3, -1.46 628.6, 0 605.33 M32 637.33 C9.27 635.31, -1.94 627.5, 0 605.33 M0 605.33 C0.37 454.25, 1.51 303.25, 0 32 M0 605.33 C0.29 419.52, 0.27 233.87, 0 32 M0 32 C-0.6 12.32, 10.92 -0.15, 32 0 M0 32 C0.16 8.53, 10.96 1.05, 32 0" stroke="#1e1e1e" stroke-width="2" fill="none"></path></g><g transform="translate(954.4137216941062 260.5558580247689) rotate(0 141.94793701171875 22.5)"><text x="0" y="31.536" font-family="Virgil, Segoe UI Emoji" font-size="36px" fill="#1e1e1e" text-anchor="start" style="white-space: pre;" direction="ltr" dominant-baseline="alphabetic">Restaking Layer</text></g><g stroke-linecap="round" transform="translate(974.804282951105 444.55299025024215) rotate(0 87.60936753531905 30.336112098257445)"><path d="M15.17 0 C62.74 1.28, 110.32 0.72, 160.05 0 M15.17 0 C56.7 1.68, 99.17 1.75, 160.05 0 M160.05 0 C172.05 0.46, 175.33 6.94, 175.22 15.17 M160.05 0 C168.16 -1.08, 177.37 6.74, 175.22 15.17 M175.22 15.17 C174.19 24.48, 174.48 33.64, 175.22 45.5 M175.22 15.17 C176.39 22.34, 175.19 27.07, 175.22 45.5 M175.22 45.5 C174 57.44, 170.19 59.49, 160.05 60.67 M175.22 45.5 C174.66 55.84, 170.91 61.51, 160.05 60.67 M160.05 60.67 C129.75 60.43, 96.1 63.49, 15.17 60.67 M160.05 60.67 C120.02 61.83, 81.26 62.31, 15.17 60.67 M15.17 60.67 C3.84 58.92, -1.69 56.34, 0 45.5 M15.17 60.67 C4.23 59.62, -1.13 53.67, 0 45.5 M0 45.5 C0.31 35.05, 1.67 24.29, 0 15.17 M0 45.5 C-0.1 37.52, 0.33 27.81, 0 15.17 M0 15.17 C0.14 3.2, 5.31 0.91, 15.17 0 M0 15.17 C0.65 2.99, 3.21 0.2, 15.17 0" stroke="#1e1e1e" stroke-width="2" fill="none"></path></g><g transform="translate(1025.4036941265608 462.3891023484998) rotate(0 37.00995635986328 12.5)"><text x="37.00995635986328" y="17.52" font-family="Virgil, Segoe UI Emoji" font-size="20px" fill="#1e1e1e" text-anchor="middle" style="white-space: pre;" direction="ltr" dominant-baseline="alphabetic">Deposit</text></g><g stroke-linecap="round" transform="translate(979.1376773195943 540.8863032385234) rotate(0 87.60936753531905 30.336112098257445)"><path d="M15.17 0 C59.57 2.27, 102.53 -1.22, 160.05 0 M15.17 0 C65.42 -0.46, 113.85 0.25, 160.05 0 M160.05 0 C168.42 -0.94, 177.09 6.52, 175.22 15.17 M160.05 0 C169.96 0.79, 176.28 3.76, 175.22 15.17 M175.22 15.17 C173.19 26.87, 175.2 36.61, 175.22 45.5 M175.22 15.17 C174.52 28.07, 175.14 38.55, 175.22 45.5 M175.22 45.5 C174.74 55.81, 170.81 61.4, 160.05 60.67 M175.22 45.5 C173.35 55.75, 172.17 62.3, 160.05 60.67 M160.05 60.67 C126.93 63.48, 95.96 59.8, 15.17 60.67 M160.05 60.67 C108.96 61.2, 58.23 62.44, 15.17 60.67 M15.17 60.67 C4.33 59.76, -0.99 53.93, 0 45.5 M15.17 60.67 C5.73 61.98, 1.56 56.17, 0 45.5 M0 45.5 C-0.47 35.78, 0.14 28.12, 0 15.17 M0 45.5 C0.03 32.97, 0.09 22.75, 0 15.17 M0 15.17 C0.57 3.26, 3.45 0.17, 15.17 0 M0 15.17 C1.13 6.82, 5.14 -0.04, 15.17 0" stroke="#1e1e1e" stroke-width="2" fill="none"></path></g><g transform="translate(1015.8270848329407 558.7224153367811) rotate(0 50.919960021972656 12.5)"><text x="50.919960021972656" y="17.52" font-family="Virgil, Segoe UI Emoji" font-size="20px" fill="#1e1e1e" text-anchor="middle" style="white-space: pre;" direction="ltr" dominant-baseline="alphabetic">withdrawal</text></g><g stroke-linecap="round" transform="translate(979.1376773195943 645.8863541011533) rotate(0 87.60936753531905 30.336112098257445)"><path d="M15.17 0 C73.81 -0.06, 131.79 2.98, 160.05 0 M15.17 0 C61.07 -1.84, 109.65 -0.64, 160.05 0 M160.05 0 C169.98 0.68, 176.15 3.93, 175.22 15.17 M160.05 0 C170.71 -0.97, 176.16 2.87, 175.22 15.17 M175.22 15.17 C177.14 26.49, 174.17 37.85, 175.22 45.5 M175.22 15.17 C174.98 27.14, 175.55 39.28, 175.22 45.5 M175.22 45.5 C173.6 55.73, 171.91 62.08, 160.05 60.67 M175.22 45.5 C173.48 55.01, 171.95 59.97, 160.05 60.67 M160.05 60.67 C105.33 57.77, 50.61 58.02, 15.17 60.67 M160.05 60.67 C128.94 60.74, 98.06 60.36, 15.17 60.67 M15.17 60.67 C5.64 61.81, 1.35 56.1, 0 45.5 M15.17 60.67 C4.52 62.8, -1.42 55.4, 0 45.5 M0 45.5 C1.59 38.67, -0.22 31.48, 0 15.17 M0 45.5 C0.24 38.32, -0.84 33.02, 0 15.17 M0 15.17 C0.99 6.59, 5.13 -0.03, 15.17 0 M0 15.17 C0.5 5.75, 3.26 -1.82, 15.17 0" stroke="#1e1e1e" stroke-width="2" fill="none"></path></g><g transform="translate(1029.127080255304 663.722466199411) rotate(0 37.619964599609375 12.5)"><text x="37.619964599609375" y="17.52" font-family="Virgil, Segoe UI Emoji" font-size="20px" fill="#1e1e1e" text-anchor="middle" style="white-space: pre;" direction="ltr" dominant-baseline="alphabetic">Slashing</text></g><g stroke-linecap="round" transform="translate(981.8043032961571 739.553041112872) rotate(0 87.60936753531905 30.336112098257445)"><path d="M15.17 0 C50.73 -1.25, 87.26 -3.1, 160.05 0 M15.17 0 C51.75 -0.72, 88.98 -1.62, 160.05 0 M160.05 0 C170.64 -0.84, 176.03 3.15, 175.22 15.17 M160.05 0 C172.32 0.12, 177.27 7.24, 175.22 15.17 M175.22 15.17 C176.89 23.34, 173.88 30.97, 175.22 45.5 M175.22 15.17 C174.51 24.63, 176.19 34.68, 175.22 45.5 M175.22 45.5 C173.71 55.09, 171.71 60.06, 160.05 60.67 M175.22 45.5 C177.16 56.68, 167.87 61.79, 160.05 60.67 M160.05 60.67 C125.43 58.11, 95.04 59.07, 15.17 60.67 M160.05 60.67 C123.51 60.02, 87.06 59.69, 15.17 60.67 M15.17 60.67 C4.59 62.52, -1.23 55.42, 0 45.5 M15.17 60.67 C3.52 61.15, -0.68 57.51, 0 45.5 M0 45.5 C-1.83 36.28, 0.94 27.11, 0 15.17 M0 45.5 C0.74 39.89, 0.28 32.74, 0 15.17 M0 15.17 C0.43 5.66, 3.5 -1.58, 15.17 0 M0 15.17 C-1.55 3.54, 5.45 -0.66, 15.17 0" stroke="#1e1e1e" stroke-width="2" fill="none"></path></g><g transform="translate(1036.8936970765933 757.3891532111297) rotate(0 32.51997375488281 12.5)"><text x="32.51997375488281" y="17.52" font-family="Virgil, Segoe UI Emoji" font-size="20px" fill="#1e1e1e" text-anchor="middle" style="white-space: pre;" direction="ltr" dominant-baseline="alphabetic">reward</text></g><g mask="url(#mask-BT1nhsdNZq5crXPMkM1kS)" stroke-linecap="round"><g transform="translate(977.3038569809597 765.0949297799698) rotate(0 -198.5688239638814 -21.71360686881212)"><path d="M-2.43 -1.31 C-68.24 -8.77, -328.85 -35.13, -394.7 -42.11" stroke="#1e1e1e" stroke-width="2.5" fill="none" stroke-dasharray="8 10"></path></g><g transform="translate(977.3038569809597 765.0949297799698) rotate(0 -198.5688239638814 -21.71360686881212)"><path d="M-371.39 -46.33 C-376.34 -46.73, -384.53 -43.77, -395.83 -41.63" stroke="#1e1e1e" stroke-width="2.5" fill="none"></path></g><g transform="translate(977.3038569809597 765.0949297799698) rotate(0 -198.5688239638814 -21.71360686881212)"><path d="M-373.15 -29.32 C-377.73 -34.9, -385.38 -37.14, -395.83 -41.63" stroke="#1e1e1e" stroke-width="2.5" fill="none"></path></g></g><mask id="mask-BT1nhsdNZq5crXPMkM1kS"><rect x="0" y="0" fill="#fff" width="1474.6219182867526" height="909.2563144067035"></rect><rect x="748.0784200780633" y="731.5142374666029" fill="#000" width="61.1328125" height="23" opacity="1"></rect></mask><g transform="translate(748.0784200780633 731.5142374666029) rotate(0 30.65661293901502 11.867085444554732)"><text x="30.56640625" y="18.400390625" font-family="Helvetica, Segoe UI Emoji" font-size="20px" fill="#1e1e1e" text-anchor="middle" style="white-space: pre;" direction="ltr" dominant-baseline="alphabetic">reward</text></g><g mask="url(#mask-A1AWMqv8Vr3J7__AHVvRZ)" stroke-linecap="round"><g transform="translate(966.6746790450418 675.6582977977605) rotate(0 -188.13623045134628 15.108881410883896)"><path d="M-0.25 0.96 C-63.36 5.49, -313.29 24.48, -376.02 29.26" stroke="#1e1e1e" stroke-width="2.5" fill="none" stroke-dasharray="8 10"></path></g><g transform="translate(966.6746790450418 675.6582977977605) rotate(0 -188.13623045134628 15.108881410883896)"><path d="M-352.56 19.88 C-363.26 23.47, -371.93 27.86, -377.92 31.14" stroke="#1e1e1e" stroke-width="2.5" fill="none"></path></g><g transform="translate(966.6746790450418 675.6582977977605) rotate(0 -188.13623045134628 15.108881410883896)"><path d="M-351.26 36.93 C-362.6 33.81, -371.78 31.49, -377.92 31.14" stroke="#1e1e1e" stroke-width="2.5" fill="none"></path></g></g><mask id="mask-A1AWMqv8Vr3J7__AHVvRZ"><rect x="0" y="0" fill="#fff" width="1443.9927403508345" height="806.4990025672564"></rect><rect x="754.6709218296454" y="679.5786501825087" fill="#000" width="46.689453125" height="23" opacity="1"></rect></mask><g transform="translate(754.6709218296453 679.5786501825087) rotate(0 23.867526764050154 11.188529026135711)"><text x="23.3447265625" y="18.400390625" font-family="Helvetica, Segoe UI Emoji" font-size="20px" fill="#1e1e1e" text-anchor="middle" style="white-space: pre;" direction="ltr" dominant-baseline="alphabetic">slash</text></g><g mask="url(#mask-szNt8yYlZaGHl_mBdcZ3v)" stroke-linecap="round"><g transform="translate(974.8789898913706 565.7273707893887) rotate(0 -195.08571142204704 65.04596698834848)"><path d="M0.67 -1.18 C-64.69 20.96, -325.84 108.73, -390.84 131.27" stroke="#1e1e1e" stroke-width="2.5" fill="none" stroke-dasharray="8 10"></path></g><g transform="translate(974.8789898913706 565.7273707893887) rotate(0 -195.08571142204704 65.04596698834848)"><path d="M-372.2 116.42 C-380.1 122.95, -384.84 128.28, -388.94 130.64" stroke="#1e1e1e" stroke-width="2.5" fill="none"></path></g><g transform="translate(974.8789898913706 565.7273707893887) rotate(0 -195.08571142204704 65.04596698834848)"><path d="M-366.69 132.6 C-376.4 133.55, -383.05 133.27, -388.94 130.64" stroke="#1e1e1e" stroke-width="2.5" fill="none"></path></g></g><mask id="mask-szNt8yYlZaGHl_mBdcZ3v"><rect x="0" y="0" fill="#fff" width="1466.863595793518" height="799.6599094774097"></rect><rect x="749.980436940297" y="621.1936401333992" fill="#000" width="57.8125" height="23" opacity="1"></rect></mask><g transform="translate(749.9804369402968 621.1936401333992) rotate(0 29.812841529026628 9.579697644338012)"><text x="28.90625" y="18.400390625" font-family="Helvetica, Segoe UI Emoji" font-size="20px" fill="#1e1e1e" text-anchor="middle" style="white-space: pre;" direction="ltr" dominant-baseline="alphabetic">unlock</text></g><g mask="url(#mask-YfV_e92zW8CyI2r-hDbQn)" stroke-linecap="round"><g transform="translate(966.4525831422812 496.71096660971443) rotate(0 -184.2924267738343 94.55810382349568)"><path d="M2.63 0.15 C-59.43 32.09, -308.34 158.19, -371.21 188.96" stroke="#1e1e1e" stroke-width="2.5" fill="none" stroke-dasharray="8 10"></path></g><g transform="translate(966.4525831422812 496.71096660971443) rotate(0 -184.2924267738343 94.55810382349568)"><path d="M-353.91 172.6 C-358.15 176.53, -366.97 182.13, -369.38 188.99" stroke="#1e1e1e" stroke-width="2.5" fill="none"></path></g><g transform="translate(966.4525831422812 496.71096660971443) rotate(0 -184.2924267738343 94.55810382349568)"><path d="M-346.27 187.9 C-352.96 186.69, -364.4 187.08, -369.38 188.99" stroke="#1e1e1e" stroke-width="2.5" fill="none"></path></g></g><mask id="mask-YfV_e92zW8CyI2r-hDbQn"><rect x="0" y="0" fill="#fff" width="1440.1579027203388" height="783.0114213458828"></rect><rect x="761.8167202282523" y="578.3611939777984" fill="#000" width="35.56640625" height="23" opacity="1"></rect></mask><g transform="translate(761.8167202282523 578.3611939777984) rotate(0 20.34343614019454 12.907876455411724)"><text x="17.783203125" y="18.400390625" font-family="Helvetica, Segoe UI Emoji" font-size="20px" fill="#1e1e1e" text-anchor="middle" style="white-space: pre;" direction="ltr" dominant-baseline="alphabetic">lock</text></g><g mask="url(#mask-Qacoi6_ao-Ao6yRgGgGm-)" stroke-linecap="round"><g transform="translate(971.4760256888076 470.31411283223724) rotate(0 -196.6482435532579 62.42121420729268)"><path d="M-0.88 -1.49 C-66.7 19.12, -327.45 105.73, -392.41 126.33" stroke="#1e1e1e" stroke-width="2.5" fill="none" stroke-dasharray="8 10"></path></g><g transform="translate(971.4760256888076 470.31411283223724) rotate(0 -196.6482435532579 62.42121420729268)"><path d="M-373.79 109.72 C-378.41 116.89, -389.07 122.37, -392.22 126.99" stroke="#1e1e1e" stroke-width="2.5" fill="none"></path></g><g transform="translate(971.4760256888076 470.31411283223724) rotate(0 -196.6482435532579 62.42121420729268)"><path d="M-368.49 125.98 C-375.33 126.81, -388.05 125.96, -392.22 126.99" stroke="#1e1e1e" stroke-width="2.5" fill="none"></path></g></g><mask id="mask-Qacoi6_ao-Ao6yRgGgGm-"><rect x="0" y="0" fill="#fff" width="1462.1897668029312" height="694.0883400156113"></rect><rect x="756.1045066942457" y="520.7012264239243" fill="#000" width="40.029296875" height="23" opacity="1"></rect></mask><g transform="translate(756.1045066942459 520.7012264239243) rotate(0 18.72327544130391 12.034100615605666)"><text x="20.0146484375" y="18.400390625" font-family="Helvetica, Segoe UI Emoji" font-size="20px" fill="#1e1e1e" text-anchor="middle" style="white-space: pre;" direction="ltr" dominant-baseline="alphabetic">read</text></g><g stroke-linecap="round" transform="translate(1502.1891588147587 357.083906308882) rotate(0 87.60936753531905 30.336112098257445)"><path d="M15.17 0 C48.66 -0.5, 84.71 0.63, 160.05 0 M15.17 0 C64.8 0.62, 111.94 -0.35, 160.05 0 M160.05 0 C171.71 -0.61, 176.91 5.98, 175.22 15.17 M160.05 0 C167.87 1.11, 173.54 7.28, 175.22 15.17 M175.22 15.17 C175.68 21.71, 174.04 28.71, 175.22 45.5 M175.22 15.17 C175.98 21.95, 175.07 29.17, 175.22 45.5 M175.22 45.5 C173.99 55.42, 168.83 61.09, 160.05 60.67 M175.22 45.5 C174.53 57.51, 170.45 60.5, 160.05 60.67 M160.05 60.67 C116.48 61.42, 69.28 59.25, 15.17 60.67 M160.05 60.67 C115.36 61.77, 70.82 62.08, 15.17 60.67 M15.17 60.67 C3.5 59.09, -1.35 54.3, 0 45.5 M15.17 60.67 C5.45 60.01, -2.18 55.41, 0 45.5 M0 45.5 C-0.98 34.64, 1.82 26.38, 0 15.17 M0 45.5 C-0.28 37.28, 0.37 30.1, 0 15.17 M0 15.17 C0.75 4.09, 4.28 0.05, 15.17 0 M0 15.17 C-1.7 4.37, 3.44 -2.21, 15.17 0" stroke="#1971c2" stroke-width="2" fill="none"></path></g><g transform="translate(1540.678569379863 362.42001840713965) rotate(0 49.119956970214844 25)"><text x="49.119956970214844" y="17.52" font-family="Virgil, Segoe UI Emoji" font-size="20px" fill="#1971c2" text-anchor="middle" style="white-space: pre;" direction="ltr" dominant-baseline="alphabetic">Operator </text><text x="49.119956970214844" y="42.519999999999996" font-family="Virgil, Segoe UI Emoji" font-size="20px" fill="#1971c2" text-anchor="middle" style="white-space: pre;" direction="ltr" dominant-baseline="alphabetic">Manager</text></g><g stroke-linecap="round" transform="translate(1501.158715075976 450.39257792933176) rotate(0 87.60936753531905 30.336112098257445)"><path d="M15.17 0 C55.87 -2.09, 95.23 1.28, 160.05 0 M15.17 0 C69.63 0.08, 123.39 0.85, 160.05 0 M160.05 0 C168.17 0.97, 173.76 6.99, 175.22 15.17 M160.05 0 C168.77 -2.02, 173.28 5.89, 175.22 15.17 M175.22 15.17 C173.39 23.76, 176.22 32.53, 175.22 45.5 M175.22 15.17 C174.53 24.9, 174.48 35.04, 175.22 45.5 M175.22 45.5 C174.62 57.27, 170.41 60.52, 160.05 60.67 M175.22 45.5 C175.38 53.48, 170.46 61.72, 160.05 60.67 M160.05 60.67 C112.66 60.49, 66.46 59.58, 15.17 60.67 M160.05 60.67 C116.04 60.32, 72.91 60.45, 15.17 60.67 M15.17 60.67 C5.4 60.09, -1.9 55.43, 0 45.5 M15.17 60.67 C5.47 59.14, 2.28 54.26, 0 45.5 M0 45.5 C-0.94 37.87, 1.27 30.3, 0 15.17 M0 45.5 C0.28 36.44, -0.48 28.37, 0 15.17 M0 15.17 C-1.47 4.46, 3.65 -1.92, 15.17 0 M0 15.17 C1.64 4.45, 6.91 -0.17, 15.17 0" stroke="#1971c2" stroke-width="2" fill="none"></path></g><g transform="translate(1532.6681299135412 455.72869002758944) rotate(0 56.099952697753906 25)"><text x="56.099952697753906" y="17.52" font-family="Virgil, Segoe UI Emoji" font-size="20px" fill="#1971c2" text-anchor="middle" style="white-space: pre;" direction="ltr" dominant-baseline="alphabetic">Delegation </text><text x="56.099952697753906" y="42.519999999999996" font-family="Virgil, Segoe UI Emoji" font-size="20px" fill="#1971c2" text-anchor="middle" style="white-space: pre;" direction="ltr" dominant-baseline="alphabetic">Manager</text></g><g stroke-linecap="round" transform="translate(1499.8228858038274 540.365565236129) rotate(0 87.60936753531905 30.336112098257445)"><path d="M15.17 0 C48.29 -2.78, 78.06 0.28, 160.05 0 M15.17 0 C53.2 -0.19, 92.5 0.3, 160.05 0 M160.05 0 C168.95 -1.76, 173.53 5.78, 175.22 15.17 M160.05 0 C169.33 -1.05, 174.08 3.11, 175.22 15.17 M175.22 15.17 C175.87 24.69, 177.24 33.91, 175.22 45.5 M175.22 15.17 C174.72 24.8, 175.14 32.71, 175.22 45.5 M175.22 45.5 C175.36 53.76, 170.42 61.59, 160.05 60.67 M175.22 45.5 C175.87 53.55, 168.31 60.87, 160.05 60.67 M160.05 60.67 C109.41 61.16, 59.43 59.17, 15.17 60.67 M160.05 60.67 C128.22 59.43, 95.1 59.63, 15.17 60.67 M15.17 60.67 C5.42 59.34, 1.98 54.44, 0 45.5 M15.17 60.67 C3.66 62.53, 0.2 54.82, 0 45.5 M0 45.5 C-0.57 37.59, 1.16 29.16, 0 15.17 M0 45.5 C-0.62 37.56, -0.59 29.26, 0 15.17 M0 15.17 C1.42 4.53, 6.67 -0.14, 15.17 0 M0 15.17 C-1.22 5.95, 6.09 -0.54, 15.17 0" stroke="#1971c2" stroke-width="2" fill="none"></path></g><g transform="translate(1524.1722893498886 558.2016773343867) rotate(0 63.25996398925781 12.5)"><text x="63.25996398925781" y="17.52" font-family="Virgil, Segoe UI Emoji" font-size="20px" fill="#1971c2" text-anchor="middle" style="white-space: pre;" direction="ltr" dominant-baseline="alphabetic">AVS Manager</text></g><g mask="url(#mask-3voEvAfDwongCbhgONwjk)" stroke-linecap="round"><g transform="translate(1690.7434177588702 390.39597889565084) rotate(0 133.51581830313773 -6.760821580722222)"><path d="M-1.7 -2.46 C43.43 -4.75, 223.43 -9.25, 268.73 -11.06" stroke="#1e1e1e" stroke-width="2.5" fill="none" stroke-dasharray="8 10"></path></g><g transform="translate(1690.7434177588702 390.39597889565084) rotate(0 133.51581830313773 -6.760821580722222)"><path d="M19.76 -13.44 C17.06 -10.5, 10.16 -8.66, -3.39 -1.87" stroke="#1e1e1e" stroke-width="2.5" fill="none"></path></g><g transform="translate(1690.7434177588702 390.39597889565084) rotate(0 133.51581830313773 -6.760821580722222)"><path d="M20.3 3.66 C17.32 2.71, 10.29 0.67, -3.39 -1.87" stroke="#1e1e1e" stroke-width="2.5" fill="none"></path></g><g transform="translate(1690.7434177588702 390.39597889565084) rotate(0 133.51581830313773 -6.760821580722222)"><path d="M243.77 -3.46 C251.42 -4.46, 255.05 -6.83, 267.04 -10.48" stroke="#1e1e1e" stroke-width="2.5" fill="none"></path></g><g transform="translate(1690.7434177588702 390.39597889565084) rotate(0 133.51581830313773 -6.760821580722222)"><path d="M243.22 -20.55 C251.17 -17.67, 254.91 -16.17, 267.04 -10.48" stroke="#1e1e1e" stroke-width="2.5" fill="none"></path></g></g><mask id="mask-3voEvAfDwongCbhgONwjk"><rect x="0" y="0" fill="#fff" width="2061.833404891687" height="502.4793553737254"></rect><rect x="1741.8059894502785" y="372.85429065661356" fill="#000" width="168.96484375" height="23" opacity="1"></rect></mask><g transform="translate(1741.8059894502783 372.85429065661356) rotate(0 82.45324661172924 10.780866658315063)"><text x="84.482421875" y="18.400390625" font-family="Helvetica, Segoe UI Emoji" font-size="20px" fill="#1e1e1e" text-anchor="middle" style="white-space: pre;" direction="ltr" dominant-baseline="alphabetic">Register/unregister</text></g><g stroke-linecap="round" transform="translate(2164.65506118714 546.1525263945327) rotate(0 27.144963139482797 30.5)"><path d="M21.09 1.6 C26.55 -0.38, 33.94 0.19, 39.23 2.83 C44.52 5.46, 50.52 11.53, 52.84 17.42 C55.16 23.31, 54.87 31.84, 53.16 38.18 C51.45 44.52, 47.24 51.65, 42.58 55.45 C37.92 59.25, 31.02 61.57, 25.19 60.96 C19.36 60.36, 11.92 56.49, 7.58 51.8 C3.24 47.11, -0.53 39.3, -0.86 32.82 C-1.19 26.34, 1.83 18.44, 5.61 12.91 C9.38 7.37, 18.55 1.56, 21.79 -0.39 C25.02 -2.34, 24.66 0.57, 25.01 1.21 M25.76 -1.19 C31.06 -1.86, 38.69 1.71, 43.42 5.99 C48.14 10.28, 53.11 17.96, 54.1 24.53 C55.09 31.1, 52.2 39.81, 49.34 45.4 C46.47 50.99, 41.87 55.92, 36.9 58.08 C31.94 60.24, 25.23 60.18, 19.55 58.36 C13.87 56.54, 6.01 52.74, 2.84 47.17 C-0.34 41.6, -0.56 31.38, 0.51 24.92 C1.58 18.46, 4.94 12.62, 9.26 8.43 C13.58 4.23, 23.4 0.87, 26.42 -0.26 C29.45 -1.39, 27.23 1.22, 27.41 1.65" stroke="#1971c2" stroke-width="1" fill="none"></path></g><g transform="translate(2183.8195040031355 560.4857695683431) rotate(0 7.7861328125 16.09999999999991)"><text x="7.7861328125" y="25.760546874999996" font-family="Helvetica, Segoe UI Emoji" font-size="28px" fill="#1971c2" text-anchor="middle" style="white-space: pre;" direction="ltr" dominant-baseline="alphabetic">5</text></g><g stroke-linecap="round" transform="translate(2165.159116999368 377.9825232408334) rotate(0 27.144963139482797 30.5)"><path d="M37.08 1.11 C42.35 2.73, 47.57 8.63, 50.41 14.3 C53.25 19.98, 54.93 28.6, 54.13 35.18 C53.34 41.76, 50.1 49.46, 45.64 53.78 C41.18 58.09, 33.47 61, 27.36 61.07 C21.25 61.14, 13.4 58.31, 8.99 54.2 C4.58 50.09, 1.99 42.98, 0.92 36.4 C-0.15 29.82, -0.2 20.39, 2.6 14.73 C5.39 9.07, 11.05 4.11, 17.68 2.45 C24.31 0.78, 37.66 3.54, 42.37 4.73 C47.08 5.92, 46.26 9.29, 45.94 9.58 M16.94 1.92 C21.84 -0.69, 28.25 -0.61, 33.81 1.25 C39.36 3.1, 46.64 7.66, 50.27 13.04 C53.89 18.41, 56.49 26.66, 55.55 33.51 C54.61 40.36, 49.14 49.65, 44.64 54.14 C40.13 58.63, 34.25 60.15, 28.54 60.45 C22.84 60.74, 15.14 59.81, 10.41 55.89 C5.68 51.97, 1.3 43.32, 0.15 36.93 C-1 30.54, 0.65 23.42, 3.5 17.54 C6.35 11.66, 15.11 4.07, 17.25 1.64 C19.38 -0.8, 16.42 2.44, 16.31 2.95" stroke="#1971c2" stroke-width="1" fill="none"></path></g><g stroke-linecap="round" transform="translate(2164.2484502643783 460.88959955270366) rotate(0 27.144963139482797 30.5)"><path d="M23.9 -0.46 C29.23 -1.51, 37.26 1, 42.27 4.72 C47.28 8.44, 52.35 15.56, 53.98 21.88 C55.6 28.2, 54.59 36.65, 51.99 42.65 C49.4 48.65, 43.51 54.92, 38.4 57.88 C33.29 60.85, 27 62.12, 21.34 60.46 C15.69 58.8, 8.01 53.12, 4.47 47.91 C0.94 42.7, -0.48 35.6, 0.13 29.22 C0.75 22.84, 3.25 14.42, 8.17 9.61 C13.08 4.79, 25.11 1.75, 29.63 0.35 C34.16 -1.06, 35.51 0.82, 35.34 1.18 M16.96 1.5 C22.08 -0.97, 31.31 -1.18, 37.22 1.06 C43.13 3.29, 49.8 8.82, 52.41 14.91 C55.02 21, 54.22 31.15, 52.87 37.62 C51.52 44.09, 48.72 49.65, 44.3 53.74 C39.87 57.82, 32.24 62.22, 26.32 62.13 C20.4 62.04, 13.02 57.52, 8.77 53.2 C4.51 48.88, 1.51 42.76, 0.8 36.22 C0.08 29.69, 1.65 19.75, 4.48 13.99 C7.32 8.23, 15.64 3.71, 17.8 1.67 C19.97 -0.37, 17.39 1.53, 17.45 1.76" stroke="#1971c2" stroke-width="1" fill="none"></path></g><g transform="translate(2183.412893080374 475.22284272651405) rotate(0 7.7861328125 16.09999999999991)"><text x="7.7861328125" y="25.760546874999996" font-family="Helvetica, Segoe UI Emoji" font-size="28px" fill="#1971c2" text-anchor="middle" style="white-space: pre;" direction="ltr" dominant-baseline="alphabetic">4</text></g><g stroke-linecap="round" transform="translate(2167.002849619953 642.6992240245991) rotate(0 32.14481055159217 32.82077326819035)"><path d="M22.46 1.93 C27.93 -0.43, 35.69 -0.38, 41.43 1.49 C47.16 3.36, 52.98 8, 56.86 13.16 C60.75 18.33, 64.62 26.21, 64.74 32.49 C64.86 38.76, 61.27 45.5, 57.6 50.81 C53.94 56.11, 48.41 62.09, 42.74 64.33 C37.06 66.57, 29.6 66.18, 23.55 64.26 C17.51 62.34, 10.36 58.09, 6.48 52.82 C2.61 47.56, 0.56 39.24, 0.31 32.66 C0.06 26.08, 1.09 18.61, 5 13.36 C8.91 8.1, 20.09 3.35, 23.77 1.13 C27.45 -1.08, 26.86 -0.45, 27.08 0.08 M20.72 3.02 C26.01 0.66, 35.5 -0.96, 41.63 0.9 C47.76 2.76, 53.82 8.99, 57.51 14.16 C61.2 19.34, 63.53 25.53, 63.78 31.94 C64.02 38.35, 62.4 47.45, 58.98 52.65 C55.55 57.84, 49.35 61.18, 43.22 63.12 C37.09 65.05, 28.52 66.08, 22.22 64.26 C15.91 62.43, 9.27 57.54, 5.4 52.17 C1.52 46.79, -1.29 38.42, -1.05 32 C-0.81 25.58, 2.87 18.7, 6.85 13.65 C10.83 8.59, 20.48 3.47, 22.84 1.7 C25.21 -0.08, 20.96 2.53, 21.05 3.01" stroke="#1971c2" stroke-width="1" fill="none"></path></g><g stroke-linecap="round" transform="translate(2178.6514769571136 834.9863632404595) rotate(0 27.144963139482797 30.5)"><path d="M23.05 0.41 C28.17 -0.9, 35.34 1.17, 40.39 4.62 C45.44 8.06, 51.49 15.05, 53.34 21.09 C55.19 27.13, 53.7 34.75, 51.51 40.86 C49.32 46.98, 45.03 54.53, 40.19 57.79 C35.36 61.05, 28.23 61.77, 22.51 60.43 C16.79 59.08, 9.59 54.96, 5.89 49.71 C2.19 44.46, 0.29 35.62, 0.31 28.93 C0.33 22.25, 1.79 14.42, 6.02 9.62 C10.25 4.83, 21.82 1.83, 25.69 0.19 C29.56 -1.45, 29.14 -0.73, 29.25 -0.22 M17.36 2.89 C22.24 0.55, 31.43 -0.83, 36.97 1.49 C42.51 3.81, 47.87 11.05, 50.59 16.81 C53.31 22.56, 54.27 29.61, 53.29 36.02 C52.31 42.42, 49.07 51.17, 44.73 55.21 C40.4 59.26, 33.27 60.55, 27.28 60.27 C21.29 60, 13.46 57.82, 8.79 53.58 C4.12 49.35, 0.23 41.57, -0.76 34.87 C-1.76 28.17, -0.55 18.99, 2.8 13.39 C6.15 7.79, 16.52 3.16, 19.33 1.28 C22.14 -0.59, 19.82 1.5, 19.66 2.15" stroke="#1971c2" stroke-width="1" fill="none"></path></g><g transform="translate(2197.8159197731093 849.3196064142699) rotate(0 7.7861328125 16.09999999999991)"><text x="7.7861328125" y="25.760546874999996" font-family="Helvetica, Segoe UI Emoji" font-size="28px" fill="#1971c2" text-anchor="middle" style="white-space: pre;" direction="ltr" dominant-baseline="alphabetic">8</text></g><g stroke-linecap="round" transform="translate(1985.2352060926278 826.7570442517713) rotate(0 30.144993657060922 33)"><path d="M31.67 0.3 C37.82 -0.04, 44.69 2.91, 49.43 7.68 C54.16 12.45, 58.91 21.77, 60.09 28.91 C61.26 36.06, 59.91 44.59, 56.47 50.54 C53.03 56.48, 45.65 62.56, 39.43 64.61 C33.21 66.65, 25.26 65.61, 19.14 62.81 C13.03 60.01, 5.92 53.89, 2.73 47.81 C-0.46 41.72, -1.43 33.26, 0 26.3 C1.43 19.34, 5.43 10.31, 11.31 6.04 C17.18 1.77, 30.71 1.15, 35.24 0.67 C39.77 0.2, 38.68 2.79, 38.51 3.2 M41.72 3.79 C47.41 6.09, 53.49 11.54, 56.53 17.84 C59.57 24.13, 61.26 34.74, 59.97 41.55 C58.68 48.35, 54.13 54.61, 48.79 58.68 C43.45 62.76, 34.64 66.33, 27.91 65.99 C21.18 65.64, 13.22 61.71, 8.42 56.63 C3.63 51.55, -0.43 42.51, -0.84 35.5 C-1.25 28.49, 2.06 20.26, 5.97 14.56 C9.88 8.87, 16.74 3.2, 22.62 1.31 C28.49 -0.58, 37.9 2.97, 41.2 3.24 C44.5 3.5, 42.58 2.3, 42.43 2.91" stroke="#1971c2" stroke-width="1" fill="none"></path></g><g transform="translate(2004.4414234409555 848.4225204726154) rotate(0 11.123046875 11.5)"><text x="11.123046875" y="18.400390625" font-family="Helvetica, Segoe UI Emoji" font-size="20px" fill="#1971c2" text-anchor="middle" style="white-space: pre;" direction="ltr" dominant-baseline="alphabetic">10</text></g><g stroke-linecap="round" transform="translate(2175.5598265857575 747.1768048671229) rotate(0 27.144963139482797 30.5)"><path d="M31.06 0.8 C36.85 1.43, 44.25 5.35, 48.11 10.17 C51.98 14.99, 54.14 23.31, 54.26 29.7 C54.37 36.1, 52.53 43.55, 48.81 48.54 C45.09 53.53, 37.8 58.16, 31.95 59.67 C26.1 61.18, 18.75 60.7, 13.7 57.58 C8.66 54.45, 3.75 46.99, 1.67 40.93 C-0.4 34.87, -0.49 27.1, 1.25 21.21 C3 15.32, 6.41 8.94, 12.13 5.6 C17.85 2.25, 30.67 1.24, 35.57 1.13 C40.47 1.01, 41.65 4.34, 41.54 4.89 M37.65 3.2 C43.09 5.05, 49.02 9.73, 51.61 15.31 C54.19 20.9, 54.6 30.27, 53.15 36.71 C51.69 43.16, 47.51 50.18, 42.87 53.98 C38.23 57.79, 30.74 59.73, 25.29 59.55 C19.84 59.36, 14.13 57.01, 10.16 52.89 C6.19 48.76, 2.65 41.11, 1.5 34.8 C0.34 28.5, 0.28 20.66, 3.25 15.06 C6.21 9.46, 13.72 3.14, 19.29 1.19 C24.85 -0.76, 33.6 3.21, 36.64 3.35 C39.68 3.48, 37.7 1.85, 37.55 2" stroke="#1971c2" stroke-width="1" fill="none"></path></g><g transform="translate(2194.724269401753 761.5100480409333) rotate(0 7.7861328125 16.09999999999991)"><text x="7.7861328125" y="25.760546874999996" font-family="Helvetica, Segoe UI Emoji" font-size="28px" fill="#1971c2" text-anchor="middle" style="white-space: pre;" direction="ltr" dominant-baseline="alphabetic">7</text></g><g stroke-linecap="round" transform="translate(1971.5771084368748 469.92903519320134) rotate(0 27.144963139482797 32.50004577636719)"><path d="M29.28 -0.49 C34.65 -0.02, 41.97 5.2, 46.08 10.18 C50.19 15.16, 53.46 22.45, 53.94 29.4 C54.42 36.35, 52.46 45.93, 48.96 51.88 C45.46 57.82, 38.69 63.52, 32.95 65.05 C27.22 66.58, 19.55 64.28, 14.57 61.06 C9.6 57.83, 5.42 52.01, 3.12 45.71 C0.81 39.4, -0.88 30.01, 0.73 23.25 C2.34 16.49, 7.32 8.81, 12.8 5.15 C18.28 1.5, 29.45 1.6, 33.64 1.31 C37.82 1.02, 38.07 2.98, 37.9 3.39 M26.41 -1.44 C32.3 -1.77, 41.11 2.7, 45.9 7.46 C50.69 12.22, 54.51 20.09, 55.14 27.12 C55.77 34.16, 52.75 43.71, 49.7 49.66 C46.64 55.61, 42.25 60.41, 36.8 62.81 C31.36 65.22, 22.49 66.62, 17.03 64.1 C11.57 61.58, 6.89 54.09, 4.05 47.69 C1.22 41.3, -0.86 32.69, 0.02 25.72 C0.91 18.76, 4.95 10.35, 9.39 5.92 C13.83 1.49, 23.89 -0.01, 26.67 -0.87 C29.45 -1.73, 26.16 -0.13, 26.07 0.77" stroke="#1971c2" stroke-width="1" fill="none"></path></g><g transform="translate(1990.7415512528705 486.348078212226) rotate(0 7.7861328125 16.09999999999991)"><text x="7.7861328125" y="25.760546874999996" font-family="Helvetica, Segoe UI Emoji" font-size="28px" fill="#1971c2" text-anchor="middle" style="white-space: pre;" direction="ltr" dominant-baseline="alphabetic">2</text></g><g stroke-linecap="round" transform="translate(1985.2924833816364 744.1962769207398) rotate(0 27.144963139482797 30.5)"><path d="M16.17 2.46 C21.23 -0.3, 29.46 -1.49, 35.09 0.49 C40.73 2.47, 46.94 8.52, 49.99 14.37 C53.04 20.21, 54.24 29.21, 53.38 35.56 C52.52 41.9, 48.89 48.19, 44.84 52.44 C40.78 56.69, 34.83 60.73, 29.06 61.06 C23.29 61.4, 14.83 58.53, 10.21 54.46 C5.6 50.4, 2.6 42.98, 1.38 36.68 C0.17 30.38, -0.56 22.6, 2.93 16.66 C6.42 10.71, 18.47 3.75, 22.34 1.01 C26.22 -1.73, 26.21 -0.08, 26.19 0.23 M24.17 -0.05 C29.96 -1.14, 37.86 0.8, 42.51 4.37 C47.16 7.94, 50.32 15.22, 52.08 21.37 C53.84 27.52, 55.17 35.11, 53.09 41.29 C51 47.48, 44.72 55.41, 39.59 58.48 C34.47 61.54, 28.02 61.29, 22.34 59.67 C16.65 58.05, 9.29 53.98, 5.48 48.76 C1.66 43.53, -0.63 34.85, -0.54 28.29 C-0.45 21.74, 2.29 14.08, 6 9.44 C9.71 4.8, 19.07 1.66, 21.72 0.46 C24.37 -0.74, 21.48 1.96, 21.89 2.26" stroke="#1971c2" stroke-width="1" fill="none"></path></g><g transform="translate(2004.4569261976321 758.5295200945502) rotate(0 7.7861328125 16.09999999999991)"><text x="7.7861328125" y="25.760546874999996" font-family="Helvetica, Segoe UI Emoji" font-size="28px" fill="#1971c2" text-anchor="middle" style="white-space: pre;" direction="ltr" dominant-baseline="alphabetic">9</text></g><g stroke-linecap="round" transform="translate(2122.949072938607 357.6676591817459) rotate(0 71.79084411550843 182.74918189481468)"><path d="M32 0 C50.36 -0.44, 71.63 -0.75, 111.58 0 M111.58 0 C132.57 0.63, 144.97 11.42, 143.58 32 M143.58 32 C141.65 107.52, 141.7 182.5, 143.58 333.5 M143.58 333.5 C145 354.31, 134.53 365.35, 111.58 365.5 M111.58 365.5 C91.46 365.14, 73.87 366.62, 32 365.5 M32 365.5 C9.7 364.91, -1.01 354.1, 0 333.5 M0 333.5 C-0.19 272.16, -0.1 211.88, 0 32 M0 32 C0.92 9.23, 11.16 1.18, 32 0" stroke="#f08c00" stroke-width="4.5" fill="none" stroke-dasharray="8 12"></path></g><g transform="translate(2561.779307954331 383.6128101408167) rotate(0 36.935997009277344 22.5)"><text x="0" y="31.536" font-family="Virgil, Segoe UI Emoji" font-size="36px" fill="#1e1e1e" text-anchor="start" style="white-space: pre;" direction="ltr" dominant-baseline="alphabetic">AVS1</text></g><g transform="translate(2190.165717915472 403.8430856936775) rotate(0 7.7861328125 16.09999999999991)"><text x="0" y="25.760546874999996" font-family="Helvetica, Segoe UI Emoji" font-size="28px" fill="#1971c2" text-anchor="start" style="white-space: pre;" direction="ltr" dominant-baseline="alphabetic">3</text></g><g transform="translate(2190.165717915472 661.3430856936775) rotate(0 7.7861328125 16.09999999999991)"><text x="0" y="25.760546874999996" font-family="Helvetica, Segoe UI Emoji" font-size="28px" fill="#1971c2" text-anchor="start" style="white-space: pre;" direction="ltr" dominant-baseline="alphabetic">6</text></g><g stroke-linecap="round" transform="translate(1976.3063426317372 554.271593907265) rotate(0 31.144902104326547 31.500022888183594)"><path d="M38.86 1.17 C45.09 2.22, 51.67 6.92, 55.48 12.18 C59.3 17.43, 62.16 25.99, 61.75 32.7 C61.33 39.4, 57.57 47.54, 53.02 52.39 C48.47 57.25, 40.89 61.05, 34.44 61.83 C27.99 62.62, 19.7 60.53, 14.33 57.1 C8.97 53.67, 4.37 47.52, 2.26 41.25 C0.16 34.99, -0.82 25.92, 1.72 19.52 C4.27 13.12, 10.9 5.64, 17.52 2.85 C24.14 0.06, 36.6 2.46, 41.45 2.79 C46.31 3.11, 46.81 4.48, 46.63 4.81 M22.76 -0.45 C29.03 -2.52, 39.61 -0.37, 45.68 2.85 C51.75 6.08, 56.78 12.48, 59.19 18.88 C61.61 25.28, 61.85 34.99, 60.16 41.25 C58.48 47.52, 54.74 52.95, 49.06 56.48 C43.38 60.01, 32.62 62.76, 26.08 62.42 C19.54 62.09, 14.4 59.14, 9.82 54.45 C5.24 49.76, -0.73 41.49, -1.41 34.27 C-2.09 27.06, 1.55 16.98, 5.74 11.17 C9.92 5.37, 20.85 1.27, 23.7 -0.56 C26.56 -2.39, 22.74 -0.63, 22.84 0.2" stroke="#1971c2" stroke-width="1" fill="none"></path></g><g transform="translate(1996.305426383703 574.4977370036827) rotate(0 11.123046875 11.5)"><text x="11.123046875" y="18.400390625" font-family="Helvetica, Segoe UI Emoji" font-size="20px" fill="#1971c2" text-anchor="middle" style="white-space: pre;" direction="ltr" dominant-baseline="alphabetic">12</text></g><g stroke-linecap="round" transform="translate(1984.0205106353646 656.3433014965512) rotate(0 29.145008915849985 28.99987030029297)"><path d="M23.5 0.16 C29.06 -1.37, 37.79 0.42, 43.12 3.47 C48.46 6.52, 53.39 12.72, 55.54 18.46 C57.68 24.2, 57.93 32.11, 55.98 37.9 C54.04 43.69, 49.04 49.85, 43.89 53.2 C38.73 56.56, 31.35 58.91, 25.06 58.04 C18.78 57.16, 10.24 52.89, 6.16 47.96 C2.09 43.04, 0.63 34.62, 0.59 28.48 C0.55 22.34, 1.27 15.83, 5.92 11.14 C10.57 6.45, 24.33 2.11, 28.48 0.32 C32.63 -1.46, 30.97 0.1, 30.81 0.46 M37.78 0.6 C43.7 2.07, 49.55 7.27, 52.81 12.64 C56.07 18, 57.79 26.8, 57.35 32.79 C56.91 38.77, 54.8 44.43, 50.19 48.57 C45.58 52.71, 35.85 56.73, 29.7 57.61 C23.55 58.48, 18.35 57.25, 13.29 53.81 C8.23 50.36, 1.16 43.45, -0.64 36.94 C-2.44 30.42, -0.44 20.7, 2.5 14.72 C5.45 8.74, 11.47 3.51, 17.05 1.05 C22.62 -1.41, 32.67 -0.24, 35.95 -0.02 C39.22 0.19, 36.59 1.56, 36.68 2.35" stroke="#1971c2" stroke-width="1" fill="none"></path></g><g transform="translate(2002.6760267340746 673.8371668539767) rotate(0 10.380859375 11.5)"><text x="10.380859375" y="18.400390625" font-family="Helvetica, Segoe UI Emoji" font-size="20px" fill="#1971c2" text-anchor="middle" style="white-space: pre;" direction="ltr" dominant-baseline="alphabetic">11</text></g><g stroke-linecap="round" transform="translate(1969.8059241049518 365.05719266214874) rotate(0 27.144963139482797 32.50004577636719)"><path d="M22.17 -0.17 C27.57 -1.65, 35.61 0.29, 40.75 3.87 C45.88 7.45, 50.88 14.49, 52.97 21.33 C55.06 28.16, 55.55 38.21, 53.28 44.87 C51.02 51.54, 44.54 58.17, 39.38 61.31 C34.22 64.45, 28.04 65.04, 22.32 63.73 C16.61 62.42, 8.68 58.73, 5.07 53.43 C1.46 48.14, 0.51 39.06, 0.66 31.94 C0.81 24.83, 1.86 16.13, 5.98 10.73 C10.1 5.33, 21.51 1.39, 25.36 -0.44 C29.21 -2.27, 29.09 -0.91, 29.05 -0.25 M21.06 1.15 C26.68 -0.74, 36.12 -0.67, 41.14 2.53 C46.17 5.73, 48.99 13.37, 51.19 20.34 C53.39 27.32, 56.23 37.55, 54.33 44.39 C52.43 51.24, 45.11 58.27, 39.81 61.42 C34.5 64.57, 28.08 64.75, 22.5 63.28 C16.91 61.81, 10.29 57.81, 6.3 52.6 C2.3 47.39, -1.3 38.68, -1.46 32.04 C-1.61 25.41, 1.52 17.9, 5.38 12.79 C9.25 7.68, 18.92 3.48, 21.72 1.37 C24.51 -0.75, 21.93 -0.44, 22.16 0.12" stroke="#1971c2" stroke-width="1" fill="none"></path></g><g transform="translate(1988.9703669209475 381.4762356811734) rotate(0 7.7861328125 16.09999999999991)"><text x="7.7861328125" y="25.760546874999996" font-family="Helvetica, Segoe UI Emoji" font-size="28px" fill="#1971c2" text-anchor="middle" style="white-space: pre;" direction="ltr" dominant-baseline="alphabetic">1</text></g><g transform="translate(10 13.380891523406717) rotate(0 145.072265625 20.700000000000045)"><text x="0" y="33.120703125" font-family="Helvetica, Segoe UI Emoji" font-size="36px" fill="#e03131" text-anchor="start" style="white-space: pre;" direction="ltr" dominant-baseline="alphabetic">Supply of Security</text></g><g stroke-linecap="round" transform="translate(1406.2470305431466 326.4285521693905) rotate(0 201.99994405110704 318.6666679382322)"><path d="M32 0 C163.1 2.5, 293.74 1.65, 372 0 M32 0 C143.15 1.59, 253.52 2.49, 372 0 M372 0 C394.21 -0.49, 405.4 9.64, 404 32 M372 0 C392.1 1.39, 403.79 9.67, 404 32 M404 32 C404.91 226, 405.65 422.16, 404 605.33 M404 32 C402.71 256.65, 402.66 481.39, 404 605.33 M404 605.33 C403.64 628.3, 391.96 637.55, 372 637.33 M404 605.33 C402.35 626.79, 395.44 639.08, 372 637.33 M372 637.33 C269.69 638.77, 166.73 636.46, 32 637.33 M372 637.33 C250.26 636.56, 128.18 636.76, 32 637.33 M32 637.33 C10.8 637.84, -1.04 627.46, 0 605.33 M32 637.33 C10.39 636.88, 2.17 624.95, 0 605.33 M0 605.33 C-1.42 470.53, -1.47 335.33, 0 32 M0 605.33 C-2.03 378.39, -2.1 152.2, 0 32 M0 32 C0.28 11.22, 12.58 -1.88, 32 0 M0 32 C-0.05 9.27, 12.6 1.79, 32 0" stroke="#1971c2" stroke-width="2" fill="none"></path></g><g transform="translate(1468.604122827931 263.39526130635386) rotate(0 127.57655334472656 21.699966430664062)"><text x="0" y="30.414672949218733" font-family="Virgil, Segoe UI Emoji" font-size="34.719946289062484px" fill="#1971c2" text-anchor="start" style="white-space: pre;" direction="ltr" dominant-baseline="alphabetic">Verisense Chain</text></g><g stroke-linecap="round" transform="translate(1432.637881717138 880.7592834854399) rotate(0 87.60936753531905 30.336112098257445)"><path d="M0 0 C41.13 0, 82.26 0, 175.22 0 M175.22 0 C175.22 17.93, 175.22 35.86, 175.22 60.67 M175.22 60.67 C132.74 60.67, 90.27 60.67, 0 60.67 M0 60.67 C0 41.69, 0 22.7, 0 0" stroke="#1971c2" stroke-width="4.5" fill="none" stroke-dasharray="1.5 10"></path></g><g transform="translate(1471.4873005219883 898.5953955836976) rotate(0 48.75994873046875 12.5)"><text x="48.75994873046875" y="17.52" font-family="Virgil, Segoe UI Emoji" font-size="20px" fill="#1971c2" text-anchor="middle" style="white-space: pre;" direction="ltr" dominant-baseline="alphabetic">Consensus</text></g><g stroke-linecap="round" transform="translate(1616.6375155062005 882.7591766739174) rotate(0 87.60936753531905 30.336112098257445)"><path d="M0 0 C50.27 -1.19, 101.66 -2.86, 175.22 0 M175.22 0 C177.74 15.42, 176.16 35.05, 175.22 60.67 M175.22 60.67 C121.22 59.38, 72.49 61.11, 0 60.67 M0 60.67 C1.32 42.4, 1.8 22.17, 0 0" stroke="#1971c2" stroke-width="4.5" fill="none" stroke-dasharray="1.5 10"></path></g><g transform="translate(1667.4769169160313 900.5952887721751) rotate(0 36.76996612548828 12.5)"><text x="36.76996612548828" y="17.52" font-family="Virgil, Segoe UI Emoji" font-size="20px" fill="#1971c2" text-anchor="middle" style="white-space: pre;" direction="ltr" dominant-baseline="alphabetic">Runtime</text></g><g stroke-linecap="round" transform="translate(1502.6374239534662 630.7591308975502) rotate(0 87.60936753531905 30.336112098257445)"><path d="M15.17 0 C56.47 -1.24, 99.63 -1.05, 160.05 0 M15.17 0 C65.17 -0.61, 115.41 -0.54, 160.05 0 M160.05 0 C170.86 0.44, 174.32 5.43, 175.22 15.17 M160.05 0 C171.37 0.96, 175.31 3.51, 175.22 15.17 M175.22 15.17 C175.93 24.57, 175.66 33.74, 175.22 45.5 M175.22 15.17 C175.04 24.06, 175.08 31.73, 175.22 45.5 M175.22 45.5 C173.69 56.65, 171.29 61.92, 160.05 60.67 M175.22 45.5 C175.97 56.49, 170.41 62.89, 160.05 60.67 M160.05 60.67 C105.26 59.31, 48.23 61.09, 15.17 60.67 M160.05 60.67 C127.29 61.1, 96.14 62.59, 15.17 60.67 M15.17 60.67 C6.15 59.06, -1.39 57.49, 0 45.5 M15.17 60.67 C5.56 61.82, -0.65 56.33, 0 45.5 M0 45.5 C1.58 34.33, 0.81 23.36, 0 15.17 M0 45.5 C0.55 37.92, 0.83 29.46, 0 15.17 M0 15.17 C0.28 4.71, 5.1 0.48, 15.17 0 M0 15.17 C0.43 4.15, 7.23 -2.16, 15.17 0" stroke="#1971c2" stroke-width="2" fill="none"></path></g><g transform="translate(1542.7868381806798 636.0952429958079) rotate(0 47.45995330810547 25)"><text x="47.45995330810547" y="17.52" font-family="Virgil, Segoe UI Emoji" font-size="20px" fill="#1971c2" text-anchor="middle" style="white-space: pre;" direction="ltr" dominant-baseline="alphabetic">Slashing </text><text x="47.45995330810547" y="42.519999999999996" font-family="Virgil, Segoe UI Emoji" font-size="20px" fill="#1971c2" text-anchor="middle" style="white-space: pre;" direction="ltr" dominant-baseline="alphabetic">Detection</text></g><g transform="translate(1969.300475392808 259.39546730000666) rotate(0 164.11247006733095 20.100006103515625)"><text x="0" y="28.172168554687502" font-family="Virgil, Segoe UI Emoji" font-size="32.160009765625px" fill="#1971c2" text-anchor="start" style="white-space: pre;" direction="ltr" dominant-baseline="alphabetic">Verisense Node Pool </text></g><g stroke-linecap="round" transform="translate(1954.4564661721042 630.3461068773595) rotate(0 160.7909356682428 140.74917426542015)"><path d="M32 0 C126.26 0.31, 224.83 -1.4, 289.58 0 M289.58 0 C312.1 -0.49, 320.02 10.55, 321.58 32 M321.58 32 C322.07 85.74, 322.1 141.3, 321.58 249.5 M321.58 249.5 C320.48 272.07, 312.49 280.69, 289.58 281.5 M289.58 281.5 C214.99 279.54, 136.91 279.11, 32 281.5 M32 281.5 C9.71 283.48, 1.12 272.71, 0 249.5 M0 249.5 C0.08 163.23, -2.43 78.42, 0 32 M0 32 C1.52 11.14, 11.55 -1.19, 32 0" stroke="#1971c2" stroke-width="4.5" fill="none" stroke-dasharray="8 12"></path></g><g transform="translate(2584.710574752945 698.9952368922914) rotate(0 44.873992919921875 22.5)"><text x="0" y="31.536" font-family="Virgil, Segoe UI Emoji" font-size="36px" fill="#1e1e1e" text-anchor="start" style="white-space: pre;" direction="ltr" dominant-baseline="alphabetic">AVS2</text></g><g mask="url(#mask-SKenCSg0ppu8rF1uVfT1H)" stroke-linecap="round"><g transform="translate(1678.7312478438503 575.1369617524224) rotate(0 135.80922952747312 -0.10761168508156516)"><path d="M1.6 2.24 C46.49 1.59, 224.79 -1.62, 270.02 -2.46" stroke="#1e1e1e" stroke-width="2.5" fill="none" stroke-dasharray="8 10"></path></g><g transform="translate(1678.7312478438503 575.1369617524224) rotate(0 135.80922952747312 -0.10761168508156516)"><path d="M26.54 -7.48 C17.18 -2.33, 9.39 -0.64, 1.51 3.03" stroke="#1e1e1e" stroke-width="2.5" fill="none"></path></g><g transform="translate(1678.7312478438503 575.1369617524224) rotate(0 135.80922952747312 -0.10761168508156516)"><path d="M26.84 9.62 C17.29 9.24, 9.41 5.41, 1.51 3.03" stroke="#1e1e1e" stroke-width="2.5" fill="none"></path></g><g transform="translate(1678.7312478438503 575.1369617524224) rotate(0 135.80922952747312 -0.10761168508156516)"><path d="M248.29 5.75 C253.91 4.83, 261.21 0.73, 269.93 -1.67" stroke="#1e1e1e" stroke-width="2.5" fill="none"></path></g><g transform="translate(1678.7312478438503 575.1369617524224) rotate(0 135.80922952747312 -0.10761168508156516)"><path d="M247.98 -11.35 C253.79 -6.74, 261.2 -5.31, 269.93 -1.67" stroke="#1e1e1e" stroke-width="2.5" fill="none"></path></g></g><mask id="mask-SKenCSg0ppu8rF1uVfT1H"><rect x="0" y="0" fill="#fff" width="2049.8212349766673" height="677.220338230497"></rect><rect x="1742.0154992227588" y="562.5952735133851" fill="#000" width="144.521484375" height="23" opacity="1"></rect></mask><g transform="translate(1742.015499222759 562.5952735133851) rotate(0 72.52497814856463 12.43407655395572)"><text x="72.2607421875" y="18.400390625" font-family="Helvetica, Segoe UI Emoji" font-size="20px" fill="#1e1e1e" text-anchor="middle" style="white-space: pre;" direction="ltr" dominant-baseline="alphabetic">Register/Update</text></g><g mask="url(#mask-ilkLZm6zrhhLd8_A2hFOq)" stroke-linecap="round"><g transform="translate(2277.5312356368186 429.06264495168125) rotate(0 137.81110595992197 -9.239460938454158)"><path d="M0.73 -2.52 C46.83 -5.64, 229.44 -13.89, 274.89 -15.96" stroke="#1e1e1e" stroke-width="2.5" fill="none" stroke-dasharray="8 10"></path></g><g transform="translate(2277.5312356368186 429.06264495168125) rotate(0 137.81110595992197 -9.239460938454158)"><path d="M21.97 -10.95 C17.22 -9.6, 12.41 -7.54, -0.28 -1.49" stroke="#1e1e1e" stroke-width="2.5" fill="none"></path></g><g transform="translate(2277.5312356368186 429.06264495168125) rotate(0 137.81110595992197 -9.239460938454158)"><path d="M22.82 6.13 C17.71 3.38, 12.69 1.34, -0.28 -1.49" stroke="#1e1e1e" stroke-width="2.5" fill="none"></path></g><g transform="translate(2277.5312356368186 429.06264495168125) rotate(0 137.81110595992197 -9.239460938454158)"><path d="M250.01 -5.06 C256.15 -8.47, 262.41 -11.04, 273.88 -14.92" stroke="#1e1e1e" stroke-width="2.5" fill="none"></path></g><g transform="translate(2277.5312356368186 429.06264495168125) rotate(0 137.81110595992197 -9.239460938454158)"><path d="M249.23 -22.14 C255.73 -21.45, 262.18 -19.93, 273.88 -14.92" stroke="#1e1e1e" stroke-width="2.5" fill="none"></path></g></g><mask id="mask-ilkLZm6zrhhLd8_A2hFOq"><rect x="0" y="0" fill="#fff" width="2650.6213448399485" height="543.4718053370225"></rect><rect x="2333.125118363383" y="405.7580647590107" fill="#000" width="161.90234375" height="32.199999999999996" opacity="1"></rect></mask><g transform="translate(2333.1251183633835 405.7580647590107) rotate(0 82.21722323335723 14.06511925421637)"><text x="80.951171875" y="25.760546874999996" font-family="Helvetica, Segoe UI Emoji" font-size="28px" fill="#1e1e1e" text-anchor="middle" style="white-space: pre;" direction="ltr" dominant-baseline="alphabetic">double opt-in</text></g><g stroke-linecap="round" transform="translate(2554.4476581880035 379.0953955836976) rotate(0 45 32.99999237060547)"><path d="M0 0 C33.45 0, 66.91 0, 90 0 M90 0 C90 20.27, 90 40.54, 90 66 M90 66 C70.07 66, 50.15 66, 0 66 M0 66 C0 45.66, 0 25.31, 0 0" stroke="#1e1e1e" stroke-width="2.5" fill="none" stroke-dasharray="8 10"></path></g><g stroke-linecap="round" transform="translate(2578.4479023286285 683.8954749294007) rotate(0 49.000091552734375 38.00006866455078)"><path d="M0 0 C28.85 0, 57.7 0, 98 0 M98 0 C98 27.48, 98 54.97, 98 76 M98 76 C75.63 76, 53.25 76, 0 76 M0 76 C0 52.55, 0 29.11, 0 0" stroke="#1e1e1e" stroke-width="2.5" fill="none" stroke-dasharray="8 10"></path></g><g mask="url(#mask-EHELw6gfeoLa8ph4j-3TA)" stroke-linecap="round"><g transform="translate(2290.6366437808156 733.3372715058404) rotate(0 138.36836726000888 -5.297018074824791)"><path d="M-0.82 -2.51 C45.36 -3.44, 231.93 -7.03, 277.55 -8.08" stroke="#1e1e1e" stroke-width="2.5" fill="none" stroke-dasharray="8 10"></path></g><g transform="translate(2290.6366437808156 733.3372715058404) rotate(0 138.36836726000888 -5.297018074824791)"><path d="M20.71 -9.76 C13.6 -10.29, 5.68 -7.06, 0.7 -1.4" stroke="#1e1e1e" stroke-width="2.5" fill="none"></path></g><g transform="translate(2290.6366437808156 733.3372715058404) rotate(0 138.36836726000888 -5.297018074824791)"><path d="M21.04 7.33 C13.98 1.38, 5.95 -0.8, 0.7 -1.4" stroke="#1e1e1e" stroke-width="2.5" fill="none"></path></g><g transform="translate(2290.6366437808156 733.3372715058404) rotate(0 138.36836726000888 -5.297018074824791)"><path d="M252.45 2.72 C260.29 -3.4, 267.15 -5.89, 279.08 -6.97" stroke="#1e1e1e" stroke-width="2.5" fill="none"></path></g><g transform="translate(2290.6366437808156 733.3372715058404) rotate(0 138.36836726000888 -5.297018074824791)"><path d="M252.09 -14.38 C259.89 -15.07, 266.87 -12.14, 279.08 -6.97" stroke="#1e1e1e" stroke-width="2.5" fill="none"></path></g></g><mask id="mask-EHELw6gfeoLa8ph4j-3TA"><rect x="0" y="0" fill="#fff" width="2665.7265698784768" height="839.420663242704"></rect><rect x="2347.2304349546457" y="714.1955756374086" fill="#000" width="161.90234375" height="32.199999999999996" opacity="1"></rect></mask><g transform="translate(2347.230434954646 714.1955756374086) rotate(0 81.77457608617829 13.844677793606934)"><text x="80.951171875" y="25.760546874999996" font-family="Helvetica, Segoe UI Emoji" font-size="28px" fill="#1e1e1e" text-anchor="middle" style="white-space: pre;" direction="ltr" dominant-baseline="alphabetic">double opt-in</text></g><g transform="translate(2367.1752582856598 14.395487136432166) rotate(0 158.0712890625 20.700000000000045)"><text x="0" y="33.120703125" font-family="Helvetica, Segoe UI Emoji" font-size="36px" fill="#2f9e44" text-anchor="start" style="white-space: pre;" direction="ltr" dominant-baseline="alphabetic">Demand of Security</text></g><g stroke-linecap="round" transform="translate(1504.2380098909662 723.9592804336821) rotate(0 87.60936753531905 30.336112098257445)"><path d="M15.17 0 C73.45 -0.9, 129.27 0.66, 160.05 0 M15.17 0 C68.56 -0.97, 122.65 -0.77, 160.05 0 M160.05 0 C168.7 -0.87, 176.95 5.67, 175.22 15.17 M160.05 0 C170.86 -2.04, 176.88 5.62, 175.22 15.17 M175.22 15.17 C173.76 21.31, 173.84 31.51, 175.22 45.5 M175.22 15.17 C175.89 23.72, 174.8 30.87, 175.22 45.5 M175.22 45.5 C173.63 56.01, 169.72 60.28, 160.05 60.67 M175.22 45.5 C173.83 55.84, 169.09 59.91, 160.05 60.67 M160.05 60.67 C128.81 58.95, 95.65 62.5, 15.17 60.67 M160.05 60.67 C110.8 61.94, 62.6 61.98, 15.17 60.67 M15.17 60.67 C6.87 59.55, -0.07 55.43, 0 45.5 M15.17 60.67 C3.35 62.01, -2.14 54.31, 0 45.5 M0 45.5 C0.65 36.87, -0.42 30.06, 0 15.17 M0 45.5 C-1.2 37.48, -0.28 28.54, 0 15.17 M0 15.17 C-0.94 3.38, 3.46 0.33, 15.17 0 M0 15.17 C1.03 5.37, 4.61 1.06, 15.17 0" stroke="#1971c2" stroke-width="2" fill="none"></path></g><g transform="translate(1527.9074283906407 729.2953925319398) rotate(0 63.93994903564453 25)"><text x="63.93994903564453" y="17.52" font-family="Virgil, Segoe UI Emoji" font-size="20px" fill="#1971c2" text-anchor="middle" style="white-space: pre;" direction="ltr" dominant-baseline="alphabetic">Value-added </text><text x="63.93994903564453" y="42.519999999999996" font-family="Virgil, Segoe UI Emoji" font-size="20px" fill="#1971c2" text-anchor="middle" style="white-space: pre;" direction="ltr" dominant-baseline="alphabetic">Service</text></g><g mask="url(#mask-NNlGa1vAztxgjS_3EvbML)" stroke-linecap="round"><g transform="translate(652.2476002046056 33.095403213092595) rotate(0 617.7520806229629 -3.747477797271131)"><path d="M2.26 0.95 C208.47 0.27, 1030.53 -3.14, 1235.47 -3.91 M0.04 -1.01 C206.15 -2.57, 1027.7 -7.17, 1233.94 -8.44" stroke="#1e1e1e" stroke-width="2" fill="none"></path></g><g transform="translate(652.2476002046056 33.095403213092595) rotate(0 617.7520806229629 -3.747477797271131)"><path d="M1233.3 -7.16 L1221.79 -0.37 L1219.19 -12.76 L1235.18 -9.89" stroke="none" stroke-width="0" fill="#1e1e1e" fill-rule="evenodd"></path><path d="M1234.45 -7.74 C1231.22 -8.03, 1228.13 -5.68, 1220.48 -3.45 M1234.42 -8.62 C1230.56 -6.78, 1227.7 -5.59, 1219.66 -1.4 M1221.56 -2.74 C1219.68 -4.89, 1219.13 -10.47, 1219.91 -14.07 M1220.67 -2.24 C1219.89 -5.07, 1219.83 -8.8, 1219.89 -15.19 M1221.07 -15.08 C1222.86 -12.27, 1227.25 -12.55, 1234.2 -9.56 M1220.77 -14.35 C1223.59 -13.12, 1225.49 -12.8, 1234.39 -7.97 M1233.94 -8.44 C1233.94 -8.44, 1233.94 -8.44, 1233.94 -8.44 M1233.94 -8.44 C1233.94 -8.44, 1233.94 -8.44, 1233.94 -8.44" stroke="#1e1e1e" stroke-width="2" fill="none"></path></g></g><mask id="mask-NNlGa1vAztxgjS_3EvbML"><rect x="0" y="0" fill="#fff" width="1986.4003539086752" height="137.8862096392777"></rect><rect x="1204.3024926816404" y="10" fill="#000" width="130.04296875" height="41.4" opacity="1"></rect></mask><g transform="translate(1204.3024926816402 10) rotate(0 65.69718814592818 19.347925415821464)"><text x="65.021484375" y="33.120703125" font-family="Helvetica, Segoe UI Emoji" font-size="36px" fill="#1e1e1e" text-anchor="middle" style="white-space: pre;" direction="ltr" dominant-baseline="alphabetic">Security</text></g><g mask="url(#mask-WDcO2-ji-GWlufardiB2F)" stroke-linecap="round"><g transform="translate(1230.2474018403477 188.69553901631525) rotate(0 119.95015982609243 -2.855810504779356)"><path d="M1.82 -0.85 C41.86 -1.6, 201 -4.46, 240.54 -4.86 M-0.64 -3.78 C39.05 -4.09, 199.04 -2.38, 238.59 -1.7" stroke="#1e1e1e" stroke-width="2" fill="none"></path></g><g transform="translate(1230.2474018403477 188.69553901631525) rotate(0 119.95015982609243 -2.855810504779356)"><path d="M1.1 -15.56 C1.16 -11.72, 2.1 -7.75, 2.75 -0.17 M1.75 -16.05 C1.09 -11.08, 2.15 -6.73, 1.35 -0.17" stroke="#1e1e1e" stroke-width="2" fill="none"></path></g><g transform="translate(1230.2474018403477 188.69553901631525) rotate(0 119.95015982609243 -2.855810504779356)"><path d="M1.63 14.44 C1.56 8.98, 2.34 3.64, 2.75 -0.17 M2.27 13.94 C1.54 9.95, 2.44 5.32, 1.35 -0.17" stroke="#1e1e1e" stroke-width="2" fill="none"></path></g><g transform="translate(1230.2474018403477 188.69553901631525) rotate(0 119.95015982609243 -2.855810504779356)"><path d="M237.94 13.59 C238.01 8.12, 238.94 2.79, 239.52 -1.02 M238.59 13.09 C237.99 9.1, 239.03 4.47, 238.12 -1.02" stroke="#1e1e1e" stroke-width="2" fill="none"></path></g><g transform="translate(1230.2474018403477 188.69553901631525) rotate(0 119.95015982609243 -2.855810504779356)"><path d="M238.33 -16.41 C238.24 -12.57, 239.05 -8.6, 239.52 -1.02 M238.98 -16.91 C238.19 -11.93, 239.1 -7.58, 238.12 -1.02" stroke="#1e1e1e" stroke-width="2" fill="none"></path></g></g><mask id="mask-WDcO2-ji-GWlufardiB2F"><rect x="0" y="0" fill="#fff" width="1570.247707016129" height="292.6956305690496"></rect><rect x="1260.0131794282383" y="169.89549323994788" fill="#000" width="180.46875" height="33.6" opacity="1"></rect></mask><g transform="translate(1260.0131794282383 169.89549323994788) rotate(0 90.1843822382018 15.944235271588013)"><text x="90.234375" y="27.0375" font-family="Cascadia, Segoe UI Emoji" font-size="28px" fill="#1e1e1e" text-anchor="middle" style="white-space: pre;" direction="ltr" dominant-baseline="alphabetic">Integration</text></g><g mask="url(#mask-2hBOdFnVWB8DTW2EkFNhf)" stroke-linecap="round"><g transform="translate(585.2974708960913 205.09556343037775) rotate(0 179.06887131724508 -2.964310109987764)"><path d="M-1.48 1.83 C57.72 0.61, 294.51 -6.26, 354.2 -7.75 M2.91 0.35 C63.11 -0.51, 300.91 -4.24, 359.62 -5.08" stroke="#1e1e1e" stroke-width="2" fill="none"></path></g><g transform="translate(585.2974708960913 205.09556343037775) rotate(0 179.06887131724508 -2.964310109987764)"><path d="M-0.91 -14.14 C-2.74 -8.87, -2.32 -3.86, -2.68 1.09 M-1.21 -13.72 C-2.48 -9.11, -1.89 -4.73, -0.76 1.2" stroke="#1e1e1e" stroke-width="2" fill="none"></path></g><g transform="translate(585.2974708960913 205.09556343037775) rotate(0 179.06887131724508 -2.964310109987764)"><path d="M-0.1 15.85 C-2.1 13.22, -1.89 10.34, -2.68 1.09 M-0.41 16.27 C-1.72 12.81, -1.34 9.12, -0.76 1.2" stroke="#1e1e1e" stroke-width="2" fill="none"></path></g><g transform="translate(585.2974708960913 205.09556343037775) rotate(0 179.06887131724508 -2.964310109987764)"><path d="M360.82 8.95 C358.87 6.32, 359.13 3.44, 358.42 -5.81 M360.51 9.37 C359.25 5.91, 359.68 2.22, 360.34 -5.7" stroke="#1e1e1e" stroke-width="2" fill="none"></path></g><g transform="translate(585.2974708960913 205.09556343037775) rotate(0 179.06887131724508 -2.964310109987764)"><path d="M360.37 -21.04 C358.49 -15.78, 358.87 -10.77, 358.42 -5.81 M360.06 -20.63 C358.75 -16.01, 359.29 -11.63, 360.34 -5.7" stroke="#1e1e1e" stroke-width="2" fill="none"></path></g></g><mask id="mask-2hBOdFnVWB8DTW2EkFNhf"><rect x="0" y="0" fill="#fff" width="1041.2975319312477" height="311.09573890645197"></rect><rect x="656.6568764136695" y="134.89547569234082" fill="#000" width="213.28125" height="134.4" opacity="1"></rect></mask><g transform="translate(656.6568764136695 134.89547569234082) rotate(0 107.70946579966696 67.23577762804916)"><text x="106.640625" y="27.0375" font-family="Cascadia, Segoe UI Emoji" font-size="28px" fill="#1e1e1e" text-anchor="middle" style="white-space: pre;" direction="ltr" dominant-baseline="alphabetic">Economically </text><text x="106.640625" y="60.6375" font-family="Cascadia, Segoe UI Emoji" font-size="28px" fill="#1e1e1e" text-anchor="middle" style="white-space: pre;" direction="ltr" dominant-baseline="alphabetic">Associated</text><text x="106.640625" y="94.23750000000001" font-family="Cascadia, Segoe UI Emoji" font-size="28px" fill="#1e1e1e" text-anchor="middle" style="white-space: pre;" direction="ltr" dominant-baseline="alphabetic">(Restaking </text><text x="106.640625" y="127.8375" font-family="Cascadia, Segoe UI Emoji" font-size="28px" fill="#1e1e1e" text-anchor="middle" style="white-space: pre;" direction="ltr" dominant-baseline="alphabetic">Certificiate)</text></g><g mask="url(#mask-jloVxnTcfwUIX1LAjeZGN)" stroke-linecap="round"><g transform="translate(2314.4979256080046 191.4954047389715) rotate(0 149.98632080826928 -0.3208369809369742)"><path d="M-2.17 -1.5 C47.41 -2.63, 246.27 -4.74, 296.53 -4.48 M1.85 3.86 C52.45 2.78, 252.72 -0.83, 302.14 -2.2" stroke="#1e1e1e" stroke-width="2" fill="none"></path></g><g transform="translate(2314.4979256080046 191.4954047389715) rotate(0 149.98632080826928 -0.3208369809369742)"><path d="M-3.15 -17.28 C-3.51 -11.76, -1.03 -8.93, -3.38 -2.72 M-1.79 -16.99 C-2.65 -11.7, -2.6 -5.42, -2.14 -1.16" stroke="#1e1e1e" stroke-width="2" fill="none"></path></g><g transform="translate(2314.4979256080046 191.4954047389715) rotate(0 149.98632080826928 -0.3208369809369742)"><path d="M-2.79 12.72 C-3.49 10.26, -1.1 5.11, -3.38 -2.72 M-1.43 13 C-2.36 7.87, -2.44 3.73, -2.14 -1.16" stroke="#1e1e1e" stroke-width="2" fill="none"></path></g><g transform="translate(2314.4979256080046 191.4954047389715) rotate(0 149.98632080826928 -0.3208369809369742)"><path d="M301.67 12.01 C300.93 9.56, 303.28 4.41, 300.93 -3.42 M303.04 12.3 C302.05 7.17, 301.92 3.03, 302.17 -1.86" stroke="#1e1e1e" stroke-width="2" fill="none"></path></g><g transform="translate(2314.4979256080046 191.4954047389715) rotate(0 149.98632080826928 -0.3208369809369742)"><path d="M301.01 -17.98 C300.69 -12.45, 303.21 -9.63, 300.93 -3.42 M302.37 -17.69 C301.56 -12.4, 301.66 -6.12, 302.17 -1.86" stroke="#1e1e1e" stroke-width="2" fill="none"></path></g></g><mask id="mask-jloVxnTcfwUIX1LAjeZGN"><rect x="0" y="0" fill="#fff" width="2712.498108713474" height="293.495526809284"></rect><rect x="2332.2480171607385" y="140.09534370381516" fill="#000" width="262.5" height="100.80000000000001" opacity="1"></rect></mask><g transform="translate(2332.2480171607394 140.09534370381516) rotate(0 132.23622925553468 51.07922405421937)"><text x="131.25" y="27.0375" font-family="Cascadia, Segoe UI Emoji" font-size="28px" fill="#1e1e1e" text-anchor="middle" style="white-space: pre;" direction="ltr" dominant-baseline="alphabetic">Economically </text><text x="131.25" y="60.6375" font-family="Cascadia, Segoe UI Emoji" font-size="28px" fill="#1e1e1e" text-anchor="middle" style="white-space: pre;" direction="ltr" dominant-baseline="alphabetic">Associated </text><text x="131.25" y="94.23750000000001" font-family="Cascadia, Segoe UI Emoji" font-size="28px" fill="#1e1e1e" text-anchor="middle" style="white-space: pre;" direction="ltr" dominant-baseline="alphabetic">(Paying Rewards)</text></g><g mask="url(#mask-6FHTcHwcnEiOoscweA8cX)" stroke-linecap="round"><g transform="translate(1754.29748615488 187.09541847188166) rotate(0 120.16128535542634 -1.5834977963565962)"><path d="M0.9 -2.28 C41.09 -2.22, 202.08 -2.05, 242.38 -1.93 M-2.06 2.65 C37.86 2.16, 200.69 -4.41, 241.43 -5.82" stroke="#1e1e1e" stroke-width="2" fill="none"></path></g><g transform="translate(1754.29748615488 187.09541847188166) rotate(0 120.16128535542634 -1.5834977963565962)"><path d="M-0.3 -16.01 C1.9 -10.65, 2.09 -7.15, 1.08 -3.46 M0.5 -17.38 C1.62 -12.13, 0.51 -6.24, 1.29 -2.17" stroke="#1e1e1e" stroke-width="2" fill="none"></path></g><g transform="translate(1754.29748615488 187.09541847188166) rotate(0 120.16128535542634 -1.5834977963565962)"><path d="M-0.34 13.99 C2.12 9, 2.33 2.16, 1.08 -3.46 M0.46 12.62 C1.43 6.7, 0.33 1.42, 1.29 -2.17" stroke="#1e1e1e" stroke-width="2" fill="none"></path></g><g transform="translate(1754.29748615488 187.09541847188166) rotate(0 120.16128535542634 -1.5834977963565962)"><path d="M240.77 10.45 C243.03 5.46, 243.04 -1.38, 241.61 -6.99 M241.57 9.07 C242.33 3.16, 241.01 -2.12, 241.83 -5.7" stroke="#1e1e1e" stroke-width="2" fill="none"></path></g><g transform="translate(1754.29748615488 187.09541847188166) rotate(0 120.16128535542634 -1.5834977963565962)"><path d="M239.65 -19.53 C242.05 -14.18, 242.44 -10.68, 241.61 -6.99 M240.45 -20.91 C241.79 -15.65, 240.89 -9.77, 241.83 -5.7" stroke="#1e1e1e" stroke-width="2" fill="none"></path></g></g><mask id="mask-6FHTcHwcnEiOoscweA8cX"><rect x="0" y="0" fill="#fff" width="2094.2977913306613" height="291.09551002461603"></rect><rect x="1784.0632637427707" y="168.2953726955143" fill="#000" width="180.46875" height="33.6" opacity="1"></rect></mask><g transform="translate(1784.0632637427707 168.2953726955143) rotate(0 90.39550776753572 17.216547980010773)"><text x="90.234375" y="27.0375" font-family="Cascadia, Segoe UI Emoji" font-size="28px" fill="#1e1e1e" text-anchor="middle" style="white-space: pre;" direction="ltr" dominant-baseline="alphabetic">Same System</text></g><g mask="url(#mask-vJvTJwkrNBd7NSjs5sinW)" stroke-linecap="round"><g transform="translate(53.17872888736076 218.0955748744691) rotate(0 156.81402463775126 1.525947888679866)"><path d="M0.09 -0.11 C52.71 1.24, 263.81 5.38, 316.93 5.69 M-3.3 -2.64 C48.73 -1.87, 260.65 0.55, 314.11 1.6" stroke="#1e1e1e" stroke-width="2" fill="none"></path></g><g transform="translate(53.17872888736076 218.0955748744691) rotate(0 156.81402463775126 1.525947888679866)"><path d="M0.33 -15.68 C1.07 -9.49, -1.14 -3.45, -0.36 -1.46 M0.7 -15.17 C0.72 -10.2, 0.22 -5.61, 0.45 -0.65" stroke="#1e1e1e" stroke-width="2" fill="none"></path></g><g transform="translate(53.17872888736076 218.0955748744691) rotate(0 156.81402463775126 1.525947888679866)"><path d="M-0.26 14.31 C0.94 10.16, -1.06 5.86, -0.36 -1.46 M0.1 14.83 C0.35 10.46, 0.04 5.72, 0.45 -0.65" stroke="#1e1e1e" stroke-width="2" fill="none"></path></g><g transform="translate(53.17872888736076 218.0955748744691) rotate(0 156.81402463775126 1.525947888679866)"><path d="M313.82 16.02 C314.99 11.87, 312.97 7.57, 313.65 0.25 M314.19 16.54 C314.41 12.17, 314.08 7.43, 314.46 1.06" stroke="#1e1e1e" stroke-width="2" fill="none"></path></g><g transform="translate(53.17872888736076 218.0955748744691) rotate(0 156.81402463775126 1.525947888679866)"><path d="M314.27 -13.97 C315.03 -7.78, 312.85 -1.74, 313.65 0.25 M314.64 -13.46 C314.68 -8.49, 314.21 -3.9, 314.46 1.06" stroke="#1e1e1e" stroke-width="2" fill="none"></path></g></g><mask id="mask-vJvTJwkrNBd7NSjs5sinW"><rect x="0" y="0" fill="#fff" width="471.17879755191154" height="322.0953993983949"></rect><rect x="105.53813821963615" y="169.6954871364319" fill="#000" width="213.28125" height="100.80000000000001" opacity="1"></rect></mask><g transform="translate(105.53813821963615 169.6954871364319) rotate(0 104.45461530547587 49.926035626717066)"><text x="106.640625" y="27.0375" font-family="Cascadia, Segoe UI Emoji" font-size="28px" fill="#1e1e1e" text-anchor="middle" style="white-space: pre;" direction="ltr" dominant-baseline="alphabetic">Economically </text><text x="106.640625" y="60.6375" font-family="Cascadia, Segoe UI Emoji" font-size="28px" fill="#1e1e1e" text-anchor="middle" style="white-space: pre;" direction="ltr" dominant-baseline="alphabetic">Associated</text><text x="106.640625" y="94.23750000000001" font-family="Cascadia, Segoe UI Emoji" font-size="28px" fill="#1e1e1e" text-anchor="middle" style="white-space: pre;" direction="ltr" dominant-baseline="alphabetic">(Restaking)</text></g><g mask="url(#mask-cmaY5zP3ThahH-8BEmLbO)" stroke-linecap="round"><g transform="translate(1202.438202830453 674.1372821869927) rotate(0 135.11565156510449 -3.009571723775025)"><path d="M-2.48 -1.75 C43.23 -2.18, 226.65 -4.3, 272.71 -4.27" stroke="#1e1e1e" stroke-width="2.5" fill="none" stroke-dasharray="8 10"></path></g><g transform="translate(1202.438202830453 674.1372821869927) rotate(0 135.11565156510449 -3.009571723775025)"><path d="M19.68 -9.38 C13.55 -6.61, 9.7 -7.63, -1.84 -3.59" stroke="#1e1e1e" stroke-width="2.5" fill="none"></path></g><g transform="translate(1202.438202830453 674.1372821869927) rotate(0 135.11565156510449 -3.009571723775025)"><path d="M19.85 7.72 C13.78 6.27, 9.89 1.04, -1.84 -3.59" stroke="#1e1e1e" stroke-width="2.5" fill="none"></path></g><g transform="translate(1202.438202830453 674.1372821869927) rotate(0 135.11565156510449 -3.009571723775025)"><path d="M248.02 5.58 C253.53 4.45, 261.23 -0.87, 273.35 -6.12" stroke="#1e1e1e" stroke-width="2.5" fill="none"></path></g><g transform="translate(1202.438202830453 674.1372821869927) rotate(0 135.11565156510449 -3.009571723775025)"><path d="M247.91 -11.52 C253.35 -8.43, 261.08 -9.54, 273.35 -6.12" stroke="#1e1e1e" stroke-width="2.5" fill="none"></path></g></g><mask id="mask-cmaY5zP3ThahH-8BEmLbO"><rect x="0" y="0" fill="#fff" width="1573.52818996327" height="776.2206586650673"></rect><rect x="1307.9685479593613" y="661.5955939479554" fill="#000" width="60.029296875" height="23" opacity="1"></rect></mask><g transform="translate(1307.968547959361 661.5955939479554) rotate(0 29.585306436195992 9.53211651526226)"><text x="30.0146484375" y="18.400390625" font-family="Helvetica, Segoe UI Emoji" font-size="20px" fill="#1e1e1e" text-anchor="middle" style="white-space: pre;" direction="ltr" dominant-baseline="alphabetic">Report</text></g><g stroke-linecap="round" transform="translate(1379.8474994965973 251.99545051533823) rotate(0 484.79998779296886 365.59999084472656)"><path d="M32 0 C308.15 0, 584.31 0, 937.6 0 M937.6 0 C958.93 0, 969.6 10.67, 969.6 32 M969.6 32 C969.6 258.38, 969.6 484.75, 969.6 699.2 M969.6 699.2 C969.6 720.53, 958.93 731.2, 937.6 731.2 M937.6 731.2 C741.66 731.2, 545.72 731.2, 32 731.2 M32 731.2 C10.67 731.2, 0 720.53, 0 699.2 M0 699.2 C0 457.13, 0 215.06, 0 32 M0 32 C0 10.67, 10.67 0, 32 0" stroke="#1971c2" stroke-width="2.5" fill="none" stroke-dasharray="8 10"></path></g><g transform="translate(1767.4710193940582 999.8954901881898) rotate(0 127.02119445800781 21.699966430664062)"><text x="0" y="30.414672949218733" font-family="Virgil, Segoe UI Emoji" font-size="34.719946289062484px" fill="#1971c2" text-anchor="start" style="white-space: pre;" direction="ltr" dominant-baseline="alphabetic">Verisense VaaS</text></g></svg>